<?xml version="1.0" encoding="UTF-8" ?>
<!DOCTYPE svg PUBLIC "-//W3C//DTD SVG 1.1//EN" "http://www.w3.org/Graphics/SVG/1.1/DTD/svg11.dtd">
<svg width="1340pt" height="1000pt" viewBox="0 0 775 643" version="1.1" xmlns="http://www.w3.org/2000/svg">
<g id="#a5dbf1ff">
<path fill="#a5dbf1" opacity="1.00" d=" M 0.00 0.00 L 425.42 0.00 L 426.38 0.07 C 417.60 0.68 408.80 0.99 400.00 1.05 C 266.67 0.94 133.33 1.03 0.00 1.00 L 0.00 0.00 Z" />
<path fill="#a5dbf1" opacity="1.00" d=" M 515.62 0.00 L 775.00 0.00 L 775.00 1.00 L 774.00 1.00 C 708.67 0.99 643.33 1.01 578.00 0.99 C 557.21 0.90 536.40 1.62 515.66 0.11 L 514.61 0.05 L 515.62 0.00 Z" />
</g>
<g id="#b0e0f2ff">
<path fill="#b0e0f2" opacity="1.00" d=" M 425.42 0.00 L 515.62 0.00 L 514.61 0.05 C 485.24 1.51 455.74 1.69 426.38 0.07 L 425.42 0.00 Z" />
</g>
<g id="#4eb7e2ff">
<path fill="#4eb7e2" opacity="1.00" d=" M 0.00 1.00 C 133.33 1.03 266.67 0.94 400.00 1.05 C 408.80 0.99 417.60 0.68 426.38 0.07 C 417.74 14.36 408.25 28.10 399.00 42.00 C 376.31 75.74 354.32 109.94 331.57 143.63 C 331.35 143.97 330.89 144.64 330.66 144.97 C 310.47 143.50 290.22 144.01 270.00 143.99 C 180.22 144.03 90.45 143.96 0.68 144.02 C 0.51 145.66 0.17 148.95 0.00 150.59 L 0.00 1.00 Z" />
<path fill="#4eb7e2" opacity="1.00" d=" M 515.66 0.11 C 536.40 1.62 557.21 0.90 578.00 0.99 C 643.33 1.01 708.67 0.99 774.00 1.00 C 774.00 48.67 774.00 96.33 774.00 144.00 C 737.00 143.98 700.00 144.04 663.00 143.98 C 645.66 143.99 628.24 143.23 611.00 145.44 C 610.31 144.41 609.59 143.40 608.89 142.38 C 588.79 112.34 569.12 82.01 549.07 51.93 C 538.01 34.61 525.90 17.94 515.66 0.11 Z" />
</g>
<g id="#68c3e7ff">
<path fill="#68c3e7" opacity="1.00" d=" M 426.38 0.07 C 455.74 1.69 485.24 1.51 514.61 0.05 L 515.66 0.11 C 525.90 17.94 538.01 34.61 549.07 51.93 C 569.12 82.01 588.79 112.34 608.89 142.38 C 593.68 144.49 578.30 144.15 563.00 144.06 C 537.99 143.88 512.98 144.10 487.97 143.97 C 482.47 135.40 477.06 126.76 471.18 118.44 C 465.59 127.05 460.13 135.75 454.53 144.36 C 413.55 143.40 372.55 144.60 331.57 143.63 C 354.32 109.94 376.31 75.74 399.00 42.00 C 408.25 28.10 417.74 14.36 426.38 0.07 Z" />
</g>
<g id="#66c1e6ff">
<path fill="#66c1e6" opacity="1.00" d=" M 774.00 1.00 L 775.00 1.00 L 775.00 181.99 L 774.00 182.00 C 773.97 177.33 774.00 172.67 774.00 168.00 C 773.94 164.65 774.01 161.34 774.00 158.00 C 773.97 153.33 773.99 148.67 774.00 144.00 C 774.00 96.33 774.00 48.67 774.00 1.00 Z" />
</g>
<g id="#4fb8e2ff">
<path fill="#4fb8e2" opacity="1.00" d=" M 454.53 144.36 C 460.13 135.75 465.59 127.05 471.18 118.44 C 477.06 126.76 482.47 135.40 487.97 143.97 C 476.54 145.07 463.43 141.11 452.89 146.84 C 453.44 146.01 453.99 145.19 454.53 144.36 Z" />
</g>
<g id="#66c0e4fe">
<path fill="#66c0e4" opacity="1.00" d=" M 608.89 142.38 C 609.59 143.40 610.31 144.41 611.00 145.44 C 613.99 150.09 616.94 154.79 620.03 159.38 C 621.43 161.53 622.82 163.69 624.26 165.83 C 583.52 166.19 542.79 165.93 502.05 165.99 C 497.37 158.63 492.65 151.32 487.97 143.97 C 512.98 144.10 537.99 143.88 563.00 144.06 C 578.30 144.15 593.68 144.49 608.89 142.38 Z" />
</g>
<g id="#4db5dfff">
<path fill="#4db5df" opacity="1.00" d=" M 0.68 144.02 C 90.45 143.96 180.22 144.03 270.00 143.99 C 290.22 144.01 310.47 143.50 330.66 144.97 C 327.38 149.84 324.13 154.73 320.85 159.60 C 312.28 158.47 303.64 157.98 295.00 157.91 C 197.06 158.14 99.11 157.88 1.17 158.04 C 0.79 161.23 0.31 164.44 0.00 167.65 L 0.00 150.59 C 0.17 148.95 0.51 145.66 0.68 144.02 Z" />
<path fill="#4db5df" opacity="1.00" d=" M 611.00 145.44 C 628.24 143.23 645.66 143.99 663.00 143.98 C 700.00 144.04 737.00 143.98 774.00 144.00 C 773.99 148.67 773.97 153.33 774.00 158.00 C 732.00 157.94 690.00 158.14 648.00 157.86 C 638.66 157.92 629.28 158.06 620.03 159.38 C 616.94 154.79 613.99 150.09 611.00 145.44 Z" />
</g>
<g id="#66c0e4ff">
<path fill="#66c0e4" opacity="1.00" d=" M 330.66 144.97 C 330.89 144.64 331.35 143.97 331.57 143.63 C 372.55 144.60 413.55 143.40 454.53 144.36 C 453.99 145.19 453.44 146.01 452.89 146.84 C 448.59 153.23 444.68 159.86 440.49 166.33 C 399.24 165.54 357.98 166.35 316.73 165.84 C 318.12 163.77 319.47 161.68 320.85 159.60 C 324.13 154.73 327.38 149.84 330.66 144.97 Z" />
</g>
<g id="#4cb4deff">
<path fill="#4cb4de" opacity="1.00" d=" M 452.89 146.84 C 463.43 141.11 476.54 145.07 487.97 143.97 C 492.65 151.32 497.37 158.63 502.05 165.99 C 483.35 166.23 464.63 165.40 445.94 166.09 C 442.80 166.08 440.34 168.24 438.05 170.10 C 438.87 168.85 439.68 167.59 440.49 166.33 C 444.68 159.86 448.59 153.23 452.89 146.84 Z" />
</g>
<g id="#4bb3ddff">
<path fill="#4bb3dd" opacity="1.00" d=" M 1.17 158.04 C 99.11 157.88 197.06 158.14 295.00 157.91 C 303.64 157.98 312.28 158.47 320.85 159.60 C 319.47 161.68 318.12 163.77 316.73 165.84 C 316.03 166.88 315.33 167.92 314.64 168.96 C 296.12 167.60 277.55 167.96 259.00 167.98 C 173.06 168.06 87.12 167.93 1.17 168.04 C 0.79 172.56 0.28 177.08 0.00 181.62 L 0.00 167.65 C 0.31 164.44 0.79 161.23 1.17 158.04 Z" />
</g>
<g id="#4bb3ddfe">
<path fill="#4bb3dd" opacity="1.00" d=" M 620.03 159.38 C 629.28 158.06 638.66 157.92 648.00 157.86 C 690.00 158.14 732.00 157.94 774.00 158.00 C 774.01 161.34 773.94 164.65 774.00 168.00 C 724.77 168.50 675.50 166.94 626.30 168.84 C 625.62 167.83 624.93 166.83 624.26 165.83 C 622.82 163.69 621.43 161.53 620.03 159.38 Z" />
</g>
<g id="#65bde1ff">
<path fill="#65bde1" opacity="1.00" d=" M 314.64 168.96 C 315.33 167.92 316.03 166.88 316.73 165.84 C 357.98 166.35 399.24 165.54 440.49 166.33 C 439.68 167.59 438.87 168.85 438.05 170.10 C 435.60 173.74 433.31 177.48 430.98 181.19 C 407.01 182.66 382.99 181.79 359.00 182.02 C 341.69 182.02 324.31 182.74 307.09 180.58 C 309.59 176.70 312.08 172.80 314.64 168.96 Z" />
<path fill="#65bde1" opacity="1.00" d=" M 502.05 165.99 C 542.79 165.93 583.52 166.19 624.26 165.83 C 624.93 166.83 625.62 167.83 626.30 168.84 C 628.82 172.68 631.31 176.57 633.90 180.38 C 613.71 183.12 593.30 181.82 573.00 182.00 C 552.66 181.78 532.29 182.68 511.98 181.35 C 508.72 176.20 505.40 171.08 502.05 165.99 Z" />
</g>
<g id="#4ab1dbff">
<path fill="#4ab1db" opacity="1.00" d=" M 438.05 170.10 C 440.34 168.24 442.80 166.08 445.94 166.09 C 464.63 165.40 483.35 166.23 502.05 165.99 C 505.40 171.08 508.72 176.20 511.98 181.35 C 512.22 181.72 512.70 182.46 512.93 182.83 C 485.33 181.64 457.62 181.32 430.03 182.70 C 430.27 182.33 430.74 181.57 430.98 181.19 C 433.31 177.48 435.60 173.74 438.05 170.10 Z" />
<path fill="#4ab1db" opacity="1.00" d=" M 1.17 168.04 C 87.12 167.93 173.06 168.06 259.00 167.98 C 277.55 167.96 296.12 167.60 314.64 168.96 C 312.08 172.80 309.59 176.70 307.09 180.58 C 306.96 180.79 306.69 181.20 306.55 181.41 C 282.38 182.41 258.18 181.92 234.00 182.00 C 156.33 182.03 78.66 181.95 0.99 182.03 C 0.61 185.87 0.28 189.71 -0.00 193.57 L 0.00 181.62 C 0.28 177.08 0.79 172.56 1.17 168.04 Z" />
<path fill="#4ab1db" opacity="1.00" d=" M 626.30 168.84 C 675.50 166.94 724.77 168.50 774.00 168.00 C 774.00 172.67 773.97 177.33 774.00 182.00 C 738.67 181.95 703.33 182.12 668.00 181.87 C 657.32 181.85 646.62 182.07 636.03 183.43 C 635.32 182.41 634.59 181.40 633.90 180.38 C 631.31 176.57 628.82 172.68 626.30 168.84 Z" />
</g>
<g id="#62badfff">
<path fill="#62badf" opacity="1.00" d=" M 306.55 181.41 C 306.69 181.20 306.96 180.79 307.09 180.58 C 324.31 182.74 341.69 182.02 359.00 182.02 C 382.99 181.79 407.01 182.66 430.98 181.19 C 430.74 181.57 430.27 182.33 430.03 182.70 C 426.98 187.54 423.99 192.40 420.83 197.16 C 379.10 198.83 337.30 197.95 295.55 197.66 C 298.42 193.28 301.24 188.87 304.04 184.44 C 305.44 184.19 306.17 183.35 306.22 181.92 L 306.55 181.41 Z" />
</g>
<g id="#62badffe">
<path fill="#62badf" opacity="1.00" d=" M 633.90 180.38 C 634.59 181.40 635.32 182.41 636.03 183.43 C 639.18 188.13 642.28 192.88 645.45 197.59 C 604.33 198.02 563.16 198.77 522.06 197.19 C 518.94 192.45 516.00 187.60 512.93 182.83 C 512.70 182.46 512.22 181.72 511.98 181.35 C 532.29 182.68 552.66 181.78 573.00 182.00 C 593.30 181.82 613.71 183.12 633.90 180.38 Z" />
</g>
<g id="#48afd9ff">
<path fill="#48afd9" opacity="1.00" d=" M 234.00 182.00 C 258.18 181.92 282.38 182.41 306.55 181.41 L 306.22 181.92 C 304.83 182.18 304.10 183.02 304.04 184.44 C 301.24 188.87 298.42 193.28 295.55 197.66 C 295.39 197.90 295.06 198.38 294.90 198.63 C 286.31 197.50 277.66 196.96 269.00 196.90 C 179.72 197.15 90.44 196.88 1.15 197.05 C 0.78 200.23 0.31 203.44 0.00 206.64 L 0.00 193.57 C 0.28 189.71 0.61 185.87 0.99 182.03 C 78.66 181.95 156.33 182.03 234.00 182.00 Z" />
<path fill="#48afd9" opacity="1.00" d=" M 430.03 182.70 C 457.62 181.32 485.33 181.64 512.93 182.83 C 516.00 187.60 518.94 192.45 522.06 197.19 C 522.67 198.10 523.28 199.02 523.91 199.92 C 521.25 198.33 518.15 197.43 515.00 197.87 C 493.33 197.66 471.67 198.29 450.00 197.86 C 439.75 198.11 429.25 197.24 419.19 199.64 C 419.72 198.81 420.28 197.98 420.83 197.16 C 423.99 192.40 426.98 187.54 430.03 182.70 Z" />
<path fill="#48afd9" opacity="1.00" d=" M 636.03 183.43 C 646.62 182.07 657.32 181.85 668.00 181.87 C 703.33 182.12 738.67 181.95 774.00 182.00 C 773.97 186.99 774.00 192.00 774.00 197.00 C 743.66 196.95 713.33 197.12 683.00 196.89 C 670.66 196.79 658.28 196.86 646.03 198.46 C 645.88 198.24 645.59 197.81 645.45 197.59 C 642.28 192.88 639.18 188.13 636.03 183.43 Z" />
</g>
<g id="#54b5ddff">
<path fill="#54b5dd" opacity="1.00" d=" M 304.04 184.44 C 304.10 183.02 304.83 182.18 306.22 181.92 C 306.17 183.35 305.44 184.19 304.04 184.44 Z" />
</g>
<g id="#5cb4daff">
<path fill="#5cb4da" opacity="1.00" d=" M 774.00 182.00 L 775.00 181.99 L 775.00 266.00 L 774.00 266.00 C 773.98 258.99 774.00 252.00 774.00 245.00 C 773.97 239.66 774.00 234.33 774.00 229.00 C 773.97 223.99 774.00 219.00 774.00 214.00 C 773.98 208.33 773.98 202.66 774.00 197.00 C 774.00 192.00 773.97 186.99 774.00 182.00 Z" />
</g>
<g id="#47acd7fe">
<path fill="#47acd7" opacity="1.00" d=" M 1.15 197.05 C 90.44 196.88 179.72 197.15 269.00 196.90 C 277.66 196.96 286.31 197.50 294.90 198.63 C 291.46 203.78 287.99 208.91 284.54 214.06 C 189.91 213.90 95.28 214.05 0.65 214.00 C 0.49 215.65 0.16 218.95 0.00 220.60 L 0.00 206.64 C 0.31 203.44 0.78 200.23 1.15 197.05 Z" />
</g>
<g id="#60b8ddff">
<path fill="#60b8dd" opacity="1.00" d=" M 295.55 197.66 C 337.30 197.95 379.10 198.83 420.83 197.16 C 420.28 197.98 419.72 198.81 419.19 199.64 C 415.00 206.17 410.90 212.76 406.74 219.31 C 385.96 222.33 364.90 220.70 344.00 220.98 C 322.99 220.63 301.84 222.32 280.93 219.59 C 282.14 217.75 283.33 215.90 284.54 214.06 C 287.99 208.91 291.46 203.78 294.90 198.63 C 295.06 198.38 295.39 197.90 295.55 197.66 Z" />
<path fill="#60b8dd" opacity="1.00" d=" M 522.06 197.19 C 563.16 198.77 604.33 198.02 645.45 197.59 C 645.59 197.81 645.88 198.24 646.03 198.46 C 649.73 204.17 653.36 209.93 657.14 215.61 C 658.24 217.30 659.34 219.01 660.47 220.70 C 619.32 220.91 578.12 221.81 536.99 220.20 C 532.63 213.44 528.38 206.60 523.91 199.92 C 523.28 199.02 522.67 198.10 522.06 197.19 Z" />
</g>
<g id="#46abd6ff">
<path fill="#46abd6" opacity="1.00" d=" M 515.00 197.87 C 518.15 197.43 521.25 198.33 523.91 199.92 C 528.38 206.60 532.63 213.44 536.99 220.20 C 537.24 220.60 537.75 221.40 538.01 221.80 C 510.70 220.24 483.33 221.27 456.00 220.99 C 439.06 221.10 422.07 220.40 405.16 221.72 C 405.68 220.92 406.21 220.12 406.74 219.31 C 410.90 212.76 415.00 206.17 419.19 199.64 C 429.25 197.24 439.75 198.11 450.00 197.86 C 471.67 198.29 493.33 197.66 515.00 197.87 Z" />
</g>
<g id="#47acd7ff">
<path fill="#47acd7" opacity="1.00" d=" M 646.03 198.46 C 658.28 196.86 670.66 196.79 683.00 196.89 C 713.33 197.12 743.66 196.95 774.00 197.00 C 773.98 202.66 773.98 208.33 774.00 214.00 C 748.66 213.96 723.33 214.11 698.00 213.90 C 684.36 213.80 670.67 213.75 657.14 215.61 C 653.36 209.93 649.73 204.17 646.03 198.46 Z" />
</g>
<g id="#45aad5ff">
<path fill="#45aad5" opacity="1.00" d=" M 0.65 214.00 C 95.28 214.05 189.91 213.90 284.54 214.06 C 283.33 215.90 282.14 217.75 280.93 219.59 C 280.25 220.60 279.56 221.60 278.88 222.61 C 270.30 221.47 261.65 220.97 253.00 220.91 C 169.03 221.13 85.05 220.90 1.08 221.03 C 0.74 225.21 0.28 229.39 0.00 233.58 L 0.00 220.60 C 0.16 218.95 0.49 215.65 0.65 214.00 Z" />
</g>
<g id="#44a9d4ff">
<path fill="#44a9d4" opacity="1.00" d=" M 657.14 215.61 C 670.67 213.75 684.36 213.80 698.00 213.90 C 723.33 214.11 748.66 213.96 774.00 214.00 C 774.00 219.00 773.97 223.99 774.00 229.00 C 738.40 229.82 702.66 227.17 667.17 230.54 C 664.96 227.23 662.68 223.99 660.47 220.70 C 659.34 219.01 658.24 217.30 657.14 215.61 Z" />
</g>
<g id="#5db5d9ff">
<path fill="#5db5d9" opacity="1.00" d=" M 278.88 222.61 C 279.56 221.60 280.25 220.60 280.93 219.59 C 301.84 222.32 322.99 220.63 344.00 220.98 C 364.90 220.70 385.96 222.33 406.74 219.31 C 406.21 220.12 405.68 220.92 405.16 221.72 C 400.31 229.15 395.60 236.68 390.78 244.14 C 363.55 245.85 336.26 244.64 309.00 245.05 C 294.36 244.98 279.59 245.78 265.04 243.69 C 269.76 236.73 274.17 229.57 278.88 222.61 Z" />
</g>
<g id="#5db5d9fe">
<path fill="#5db5d9" opacity="1.00" d=" M 536.99 220.20 C 578.12 221.81 619.32 220.91 660.47 220.70 C 662.68 223.99 664.96 227.23 667.17 230.54 C 670.21 235.30 673.17 240.13 676.12 244.96 C 634.79 244.57 593.42 245.96 552.12 244.22 C 547.39 236.76 542.75 229.25 538.01 221.80 C 537.75 221.40 537.24 220.60 536.99 220.20 Z" />
</g>
<g id="#43a8d3ff">
<path fill="#43a8d3" opacity="1.00" d=" M 1.08 221.03 C 85.05 220.90 169.03 221.13 253.00 220.91 C 261.65 220.97 270.30 221.47 278.88 222.61 C 274.17 229.57 269.76 236.73 265.04 243.69 C 264.54 244.41 264.03 245.12 263.53 245.85 C 243.38 244.55 223.18 245.02 203.00 244.99 C 135.56 245.02 68.13 244.97 0.70 245.01 C 0.52 246.65 0.17 249.94 0.00 251.59 L 0.00 233.58 C 0.28 229.39 0.74 225.21 1.08 221.03 Z" />
</g>
<g id="#43a7d2ff">
<path fill="#43a7d2" opacity="1.00" d=" M 405.16 221.72 C 422.07 220.40 439.06 221.10 456.00 220.99 C 483.33 221.27 510.70 220.24 538.01 221.80 C 542.75 229.25 547.39 236.76 552.12 244.22 L 552.49 244.80 C 505.32 245.20 458.16 245.01 411.00 244.86 C 403.70 245.10 396.24 244.65 389.14 246.64 C 389.68 245.80 390.23 244.97 390.78 244.14 C 395.60 236.68 400.31 229.15 405.16 221.72 Z" />
<path fill="#43a7d2" opacity="1.00" d=" M 667.17 230.54 C 702.66 227.17 738.40 229.82 774.00 229.00 C 774.00 234.33 773.97 239.66 774.00 245.00 C 741.66 244.98 709.33 245.04 677.00 244.97 L 676.12 244.96 C 673.17 240.13 670.21 235.30 667.17 230.54 Z" />
</g>
<g id="#5bb1d7ff">
<path fill="#5bb1d7" opacity="1.00" d=" M 263.53 245.85 C 264.03 245.12 264.54 244.41 265.04 243.69 C 279.59 245.78 294.36 244.98 309.00 245.05 C 336.26 244.64 363.55 245.85 390.78 244.14 C 390.23 244.97 389.68 245.80 389.14 246.64 C 384.91 253.19 380.79 259.82 376.55 266.36 C 342.71 265.61 308.85 266.12 275.00 266.11 C 266.99 265.93 258.92 265.99 250.99 264.72 C 251.70 263.57 252.40 262.42 253.08 261.26 C 256.49 256.06 259.99 250.94 263.53 245.85 Z" />
<path fill="#5bb1d7" opacity="1.00" d=" M 552.12 244.22 C 593.42 245.96 634.79 244.57 676.12 244.96 L 677.00 244.97 C 681.34 251.97 685.84 258.91 690.05 266.01 C 648.66 265.59 607.25 266.84 565.89 265.32 C 561.46 258.45 557.00 251.61 552.49 244.80 L 552.12 244.22 Z" />
</g>
<g id="#41a5cfff">
<path fill="#41a5cf" opacity="1.00" d=" M 0.70 245.01 C 68.13 244.97 135.56 245.02 203.00 244.99 C 223.18 245.02 243.38 244.55 263.53 245.85 C 259.99 250.94 256.49 256.06 253.08 261.26 C 253.59 259.89 254.06 258.51 254.54 257.13 C 170.08 256.85 85.61 257.02 1.15 257.05 C 0.78 260.23 0.31 263.45 0.00 266.65 L 0.00 251.59 C 0.17 249.94 0.52 246.65 0.70 245.01 Z" />
</g>
<g id="#40a4cffe">
<path fill="#40a4cf" opacity="1.00" d=" M 389.14 246.64 C 396.24 244.65 403.70 245.10 411.00 244.86 C 458.16 245.01 505.32 245.20 552.49 244.80 C 557.00 251.61 561.46 258.45 565.89 265.32 C 566.14 265.71 566.63 266.47 566.88 266.85 C 509.61 264.83 452.28 266.69 394.99 265.84 C 388.35 266.48 380.64 264.56 374.92 268.87 C 375.46 268.04 376.01 267.20 376.55 266.36 C 380.79 259.82 384.91 253.19 389.14 246.64 Z" />
</g>
<g id="#40a4cfff">
<path fill="#40a4cf" opacity="1.00" d=" M 677.00 244.97 C 709.33 245.04 741.66 244.98 774.00 245.00 C 774.00 252.00 773.98 258.99 774.00 266.00 C 746.30 266.00 718.60 266.01 690.90 266.01 L 690.05 266.01 C 685.84 258.91 681.34 251.97 677.00 244.97 Z" />
</g>
<g id="#3fa2ceff">
<path fill="#3fa2ce" opacity="1.00" d=" M 1.15 257.05 C 85.61 257.02 170.08 256.85 254.54 257.13 C 254.06 258.51 253.59 259.89 253.08 261.26 C 252.40 262.42 251.70 263.57 250.99 264.72 C 249.95 266.32 248.88 267.90 247.84 269.51 C 237.61 268.23 227.30 267.86 217.00 267.88 C 145.09 268.18 73.18 267.87 1.27 268.04 C 0.88 272.90 0.39 277.78 0.00 282.65 L 0.00 266.65 C 0.31 263.45 0.78 260.23 1.15 257.05 Z" />
</g>
<g id="#59aed4ff">
<path fill="#59aed4" opacity="1.00" d=" M 247.84 269.51 C 248.88 267.90 249.95 266.32 250.99 264.72 C 258.92 265.99 266.99 265.93 275.00 266.11 C 308.85 266.12 342.71 265.61 376.55 266.36 C 376.01 267.20 375.46 268.04 374.92 268.87 C 372.89 271.88 370.99 274.97 369.05 278.03 C 327.21 277.91 285.36 278.12 243.52 277.95 C 243.91 276.84 244.33 275.74 244.76 274.65 C 245.75 272.91 246.77 271.19 247.84 269.51 Z" />
</g>
<g id="#59afd5fe">
<path fill="#59afd5" opacity="1.00" d=" M 565.89 265.32 C 607.25 266.84 648.66 265.59 690.05 266.01 L 690.90 266.01 C 692.35 268.60 693.83 271.19 695.44 273.69 C 653.96 273.96 612.44 274.69 570.98 273.31 C 569.60 271.16 568.25 269.00 566.88 266.85 C 566.63 266.47 566.14 265.71 565.89 265.32 Z" />
</g>
<g id="#3ea1ccff">
<path fill="#3ea1cc" opacity="1.00" d=" M 374.92 268.87 C 380.64 264.56 388.35 266.48 394.99 265.84 C 452.28 266.69 509.61 264.83 566.88 266.85 C 568.25 269.00 569.60 271.16 570.98 273.31 C 573.22 276.77 575.52 280.22 577.77 283.68 C 553.65 280.39 529.24 282.52 505.00 282.02 C 458.70 282.44 412.36 281.05 366.09 282.73 C 367.08 281.17 368.07 279.60 369.05 278.03 C 370.99 274.97 372.89 271.88 374.92 268.87 Z" />
<path fill="#3ea1cc" opacity="1.00" d=" M 690.90 266.01 C 718.60 266.01 746.30 266.00 774.00 266.00 C 773.98 271.33 774.00 276.67 774.00 282.01 C 750.05 282.39 725.99 280.64 702.15 283.55 C 699.91 280.25 697.61 277.02 695.44 273.69 C 693.83 271.19 692.35 268.60 690.90 266.01 Z" />
</g>
<g id="#53a8cfff">
<path fill="#53a8cf" opacity="1.00" d=" M 774.00 266.00 L 775.00 266.00 L 775.00 344.20 L 774.98 345.11 C 774.68 339.72 774.13 334.37 773.99 328.99 C 773.90 321.32 773.97 313.66 773.99 306.01 C 773.99 298.00 774.00 290.01 774.00 282.01 C 774.00 276.67 773.98 271.33 774.00 266.00 Z" />
</g>
<g id="#3ea0cbff">
<path fill="#3ea0cb" opacity="1.00" d=" M 1.27 268.04 C 73.18 267.87 145.09 268.18 217.00 267.88 C 227.30 267.86 237.61 268.23 247.84 269.51 C 246.77 271.19 245.75 272.91 244.76 274.65 C 240.33 281.28 235.63 287.74 231.21 294.38 C 231.66 292.96 232.06 291.52 232.48 290.10 C 155.34 289.89 78.21 290.01 1.07 290.04 C 0.73 292.85 0.29 295.78 0.00 298.63 L 0.00 282.65 C 0.39 277.78 0.88 272.90 1.27 268.04 Z" />
</g>
<g id="#57add2ff">
<path fill="#57add2" opacity="1.00" d=" M 570.98 273.31 C 612.44 274.69 653.96 273.96 695.44 273.69 C 697.61 277.02 699.91 280.25 702.15 283.55 C 705.25 288.25 708.31 292.98 711.38 297.72 C 669.67 297.84 627.91 298.87 586.24 297.22 C 585.08 295.37 583.96 293.51 582.81 291.66 C 581.13 289.00 579.45 286.34 577.77 283.68 C 575.52 280.22 573.22 276.77 570.98 273.31 Z" />
</g>
<g id="#57acd2ff">
<path fill="#57acd2" opacity="1.00" d=" M 231.21 294.38 C 235.63 287.74 240.33 281.28 244.76 274.65 C 244.33 275.74 243.91 276.84 243.52 277.95 C 285.36 278.12 327.21 277.91 369.05 278.03 C 368.07 279.60 367.08 281.17 366.09 282.73 C 364.38 285.38 362.68 288.03 361.03 290.71 C 359.68 292.88 358.33 295.04 356.95 297.19 C 334.66 298.56 312.31 297.89 290.00 298.00 C 269.83 297.96 249.64 298.46 229.51 297.17 C 230.08 296.24 230.65 295.31 231.21 294.38 Z" />
</g>
<g id="#3d9fcbff">
<path fill="#3d9fcb" opacity="1.00" d=" M 366.09 282.73 C 412.36 281.05 458.70 282.44 505.00 282.02 C 529.24 282.52 553.65 280.39 577.77 283.68 C 579.45 286.34 581.13 289.00 582.81 291.66 C 558.68 288.42 534.26 290.51 510.00 290.01 C 460.34 290.44 410.65 289.07 361.03 290.71 C 362.68 288.03 364.38 285.38 366.09 282.73 Z" />
</g>
<g id="#3c9dc9ff">
<path fill="#3c9dc9" opacity="1.00" d=" M 702.15 283.55 C 725.99 280.64 750.05 282.39 774.00 282.01 C 774.00 290.01 773.99 298.00 773.99 306.01 C 755.61 305.99 737.25 305.93 718.89 306.06 C 719.91 308.52 720.90 311.00 722.01 313.43 L 721.71 312.97 C 718.25 307.89 714.79 302.83 711.38 297.72 C 708.31 292.98 705.25 288.25 702.15 283.55 Z" />
</g>
<g id="#3b9dc8ff">
<path fill="#3b9dc8" opacity="1.00" d=" M 1.07 290.04 C 78.21 290.01 155.34 289.89 232.48 290.10 C 232.06 291.52 231.66 292.96 231.21 294.38 C 230.65 295.31 230.08 296.24 229.51 297.17 C 227.51 300.23 225.49 303.28 223.44 306.31 C 149.32 305.64 75.19 306.13 1.07 306.04 C 0.73 308.85 0.29 311.78 0.00 314.63 L 0.00 298.63 C 0.29 295.78 0.73 292.85 1.07 290.04 Z" />
<path fill="#3b9dc8" opacity="1.00" d=" M 361.03 290.71 C 410.65 289.07 460.34 290.44 510.00 290.01 C 534.26 290.51 558.68 288.42 582.81 291.66 C 583.96 293.51 585.08 295.37 586.24 297.22 C 588.10 300.18 590.04 303.10 591.94 306.03 C 518.29 305.90 444.64 306.14 370.99 305.89 C 364.03 306.12 356.95 305.92 350.15 307.62 C 352.43 304.15 354.69 300.67 356.95 297.19 C 358.33 295.04 359.68 292.88 361.03 290.71 Z" />
</g>
<g id="#55aacfff">
<path fill="#55aacf" opacity="1.00" d=" M 223.44 306.31 C 225.49 303.28 227.51 300.23 229.51 297.17 C 249.64 298.46 269.83 297.96 290.00 298.00 C 312.31 297.89 334.66 298.56 356.95 297.19 C 354.69 300.67 352.43 304.15 350.15 307.62 C 347.71 311.38 345.33 315.18 342.93 318.97 C 305.95 319.14 268.96 318.73 231.99 319.26 C 226.61 319.03 220.96 319.87 215.84 317.78 C 218.37 313.95 220.86 310.11 223.44 306.31 Z" />
<path fill="#55aacf" opacity="1.00" d=" M 586.24 297.22 C 627.91 298.87 669.67 297.84 711.38 297.72 C 714.79 302.83 718.25 307.89 721.71 312.97 C 680.21 315.21 638.60 313.48 597.06 313.98 C 595.34 311.33 593.65 308.67 591.94 306.03 C 590.04 303.10 588.10 300.18 586.24 297.22 Z" />
</g>
<g id="#3a9ac6ff">
<path fill="#3a9ac6" opacity="1.00" d=" M 1.07 306.04 C 75.19 306.13 149.32 305.64 223.44 306.31 C 220.86 310.11 218.37 313.95 215.84 317.78 C 215.04 318.96 214.21 320.12 213.41 321.30 C 142.63 322.92 71.81 321.50 1.02 322.04 C 0.69 324.84 0.28 327.78 0.00 330.62 L 0.00 314.63 C 0.29 311.78 0.73 308.85 1.07 306.04 Z" />
<path fill="#3a9ac6" opacity="1.00" d=" M 350.15 307.62 C 356.95 305.92 364.03 306.12 370.99 305.89 C 444.64 306.14 518.29 305.90 591.94 306.03 C 593.65 308.67 595.34 311.33 597.06 313.98 C 598.94 316.89 600.89 319.76 602.76 322.69 C 593.58 321.28 584.27 320.93 575.00 320.87 C 505.00 321.14 435.00 320.96 365.00 320.96 C 357.04 321.06 349.07 321.17 341.14 321.76 C 341.73 320.82 342.33 319.89 342.93 318.97 C 345.33 315.18 347.71 311.38 350.15 307.62 Z" />
<path fill="#3a9ac6" opacity="1.00" d=" M 718.89 306.06 C 737.25 305.93 755.61 305.99 773.99 306.01 C 773.97 313.66 773.90 321.32 773.99 328.99 C 760.31 329.09 746.45 327.99 732.92 330.35 C 732.80 330.16 732.55 329.80 732.43 329.62 C 728.84 324.29 725.36 318.90 722.01 313.43 C 720.90 311.00 719.91 308.52 718.89 306.06 Z" />
</g>
<g id="#54a8ceff">
<path fill="#54a8ce" opacity="1.00" d=" M 721.71 312.97 L 722.01 313.43 C 725.36 318.90 728.84 324.29 732.43 329.62 C 690.61 330.04 648.74 330.65 606.94 329.34 C 605.53 327.13 604.15 324.90 602.76 322.69 C 600.89 319.76 598.94 316.89 597.06 313.98 C 638.60 313.48 680.21 315.21 721.71 312.97 Z" />
</g>
<g id="#53a7cdff">
<path fill="#53a7cd" opacity="1.00" d=" M 213.41 321.30 C 214.21 320.12 215.04 318.96 215.84 317.78 C 220.96 319.87 226.61 319.03 231.99 319.26 C 268.96 318.73 305.95 319.14 342.93 318.97 C 342.33 319.89 341.73 320.82 341.14 321.76 C 339.40 324.49 337.69 327.24 335.97 329.98 C 334.65 332.06 333.32 334.13 331.99 336.21 C 308.02 337.64 283.99 336.82 260.00 337.01 C 241.37 336.96 222.65 337.86 204.13 335.44 C 207.27 330.75 210.28 325.99 213.41 321.30 Z" />
</g>
<g id="#3898c4ff">
<path fill="#3898c4" opacity="1.00" d=" M 1.02 322.04 C 71.81 321.50 142.63 322.92 213.41 321.30 C 210.28 325.99 207.27 330.75 204.13 335.44 C 203.31 336.62 202.47 337.77 201.67 338.96 C 183.14 337.60 164.56 337.96 146.00 337.98 C 97.64 338.06 49.27 337.93 0.91 338.03 C 0.55 340.55 0.25 343.08 0.00 345.63 L 0.00 330.62 C 0.28 327.78 0.69 324.84 1.02 322.04 Z" />
</g>
<g id="#3998c5ff">
<path fill="#3998c5" opacity="1.00" d=" M 341.14 321.76 C 349.07 321.17 357.04 321.06 365.00 320.96 C 435.00 320.96 505.00 321.14 575.00 320.87 C 584.27 320.93 593.58 321.28 602.76 322.69 C 604.15 324.90 605.53 327.13 606.94 329.34 C 607.18 329.71 607.66 330.47 607.90 330.84 C 587.29 329.51 566.63 330.03 546.00 330.00 C 475.99 329.99 405.98 330.02 335.97 329.98 C 337.69 327.24 339.40 324.49 341.14 321.76 Z" />
</g>
<g id="#52a5ccfe">
<path fill="#52a5cc" opacity="1.00" d=" M 606.94 329.34 C 648.74 330.65 690.61 330.04 732.43 329.62 C 732.55 329.80 732.80 330.16 732.92 330.35 C 736.15 335.22 739.38 340.11 742.69 344.96 C 720.83 346.68 698.89 345.88 677.00 346.00 C 657.04 345.88 637.05 346.61 617.14 345.18 C 614.00 340.43 610.96 335.63 607.90 330.84 C 607.66 330.47 607.18 329.71 606.94 329.34 Z" />
</g>
<g id="#3797c3ff">
<path fill="#3797c3" opacity="1.00" d=" M 732.92 330.35 C 746.45 327.99 760.31 329.09 773.99 328.99 C 774.13 334.37 774.68 339.72 774.98 345.11 L 774.95 346.09 C 764.49 346.08 754.05 346.37 743.60 346.22 C 743.37 345.91 742.92 345.28 742.69 344.96 C 739.38 340.11 736.15 335.22 732.92 330.35 Z" />
<path fill="#3797c3" opacity="1.00" d=" M 335.97 329.98 C 405.98 330.02 475.99 329.99 546.00 330.00 C 566.63 330.03 587.29 329.51 607.90 330.84 C 610.96 335.63 614.00 340.43 617.14 345.18 C 617.68 346.01 618.23 346.84 618.78 347.69 C 609.59 346.28 600.27 345.93 591.00 345.87 C 509.33 346.14 427.67 345.96 346.00 345.96 C 339.04 346.09 332.09 346.04 325.16 346.73 C 327.44 343.22 329.72 339.71 331.99 336.21 C 333.32 334.13 334.65 332.06 335.97 329.98 Z" />
</g>
<g id="#51a4cbff">
<path fill="#51a4cb" opacity="1.00" d=" M 201.67 338.96 C 202.47 337.77 203.31 336.62 204.13 335.44 C 222.65 337.86 241.37 336.96 260.00 337.01 C 283.99 336.82 308.02 337.64 331.99 336.21 C 329.72 339.71 327.44 343.22 325.16 346.73 C 324.42 347.88 323.68 349.04 322.94 350.20 C 300.65 351.56 278.31 350.89 256.00 351.00 C 235.42 350.95 214.82 351.52 194.27 350.11 C 196.73 346.39 199.21 342.69 201.67 338.96 Z" />
</g>
<g id="#3696c2ff">
<path fill="#3696c2" opacity="1.00" d=" M 0.91 338.03 C 49.27 337.93 97.64 338.06 146.00 337.98 C 164.56 337.96 183.14 337.60 201.67 338.96 C 199.21 342.69 196.73 346.39 194.27 350.11 C 194.06 350.43 193.64 351.06 193.43 351.38 C 129.32 350.55 65.19 351.17 1.07 351.04 C 0.73 353.84 0.29 356.79 0.00 359.63 L 0.00 345.63 C 0.25 343.08 0.55 340.55 0.91 338.03 Z" />
</g>
<g id="#50a2caff">
<path fill="#50a2ca" opacity="1.00" d=" M 617.14 345.18 C 637.05 346.61 657.04 345.88 677.00 346.00 C 698.89 345.88 720.83 346.68 742.69 344.96 C 742.92 345.28 743.37 345.91 743.60 346.22 C 748.18 352.89 752.47 359.75 756.84 366.58 C 714.94 367.60 673.00 366.72 631.09 366.98 C 629.41 364.30 627.71 361.64 626.00 359.00 C 623.56 355.24 621.19 351.44 618.78 347.69 C 618.23 346.84 617.68 346.01 617.14 345.18 Z" />
<path fill="#50a2ca" opacity="1.00" d=" M 193.43 351.38 C 193.64 351.06 194.06 350.43 194.27 350.11 C 214.82 351.52 235.42 350.95 256.00 351.00 C 278.31 350.89 300.65 351.56 322.94 350.20 C 320.71 353.68 318.47 357.15 316.25 360.63 C 315.10 362.47 313.96 364.32 312.79 366.15 C 288.89 367.69 264.93 366.81 241.00 367.00 C 222.01 366.89 202.92 367.95 184.03 365.56 C 187.14 360.82 190.26 356.09 193.43 351.38 Z" />
</g>
<g id="#4d9ec5ff">
<path fill="#4d9ec5" opacity="1.00" d=" M 774.98 345.11 L 775.00 344.20 L 775.00 392.43 C 774.84 394.08 774.51 397.38 774.34 399.04 C 733.28 398.50 692.18 400.02 651.14 398.17 C 648.01 393.42 645.00 388.61 641.92 383.84 C 641.66 383.45 641.16 382.66 640.90 382.27 C 683.04 383.75 725.23 382.88 767.40 382.78 C 769.53 385.94 771.67 389.08 773.84 392.25 C 773.84 376.86 773.84 361.45 774.95 346.09 L 774.98 345.11 Z" />
<path fill="#4d9ec5" opacity="1.00" d=" M 171.66 384.01 C 171.88 383.68 172.34 383.04 172.57 382.71 C 215.71 383.25 258.86 382.91 302.01 383.01 C 298.64 388.32 295.30 393.64 291.98 398.99 C 248.86 398.93 205.74 399.22 162.61 398.76 C 165.57 393.80 168.54 388.86 171.66 384.01 Z" />
</g>
<g id="#3594c0ff">
<path fill="#3594c0" opacity="1.00" d=" M 325.16 346.73 C 332.09 346.04 339.04 346.09 346.00 345.96 C 427.67 345.96 509.33 346.14 591.00 345.87 C 600.27 345.93 609.59 346.28 618.78 347.69 C 621.19 351.44 623.56 355.24 626.00 359.00 C 539.00 358.97 452.00 359.05 365.00 358.96 C 348.76 359.05 332.36 358.03 316.25 360.63 C 318.47 357.15 320.71 353.68 322.94 350.20 C 323.68 349.04 324.42 347.88 325.16 346.73 Z" />
</g>
<g id="#3593bfff">
<path fill="#3593bf" opacity="1.00" d=" M 743.60 346.22 C 754.05 346.37 764.49 346.08 774.95 346.09 C 773.84 361.45 773.84 376.86 773.84 392.25 C 771.67 389.08 769.53 385.94 767.40 382.78 C 763.83 377.39 760.36 371.97 756.84 366.58 C 752.47 359.75 748.18 352.89 743.60 346.22 Z" />
<path fill="#3593bf" opacity="1.00" d=" M 1.07 351.04 C 65.19 351.17 129.32 350.55 193.43 351.38 C 190.26 356.09 187.14 360.82 184.03 365.56 C 183.33 366.57 182.61 367.56 181.92 368.58 C 170.01 366.99 157.99 366.80 146.00 366.88 C 97.70 367.19 49.41 366.85 1.11 367.05 C 0.76 369.85 0.31 372.80 0.00 375.64 L 0.00 359.63 C 0.29 356.79 0.73 353.84 1.07 351.04 Z" />
<path fill="#3593bf" opacity="1.00" d=" M 316.25 360.63 C 332.36 358.03 348.76 359.05 365.00 358.96 C 452.00 359.05 539.00 358.97 626.00 359.00 C 627.71 361.64 629.41 364.30 631.09 366.98 C 532.39 366.97 433.69 367.11 334.99 366.89 C 327.04 367.05 319.05 367.25 311.20 368.63 C 311.73 367.80 312.26 366.97 312.79 366.15 C 313.96 364.32 315.10 362.47 316.25 360.63 Z" />
</g>
<g id="#4ea0c7ff">
<path fill="#4ea0c7" opacity="1.00" d=" M 181.92 368.58 C 182.61 367.56 183.33 366.57 184.03 365.56 C 202.92 367.95 222.01 366.89 241.00 367.00 C 264.93 366.81 288.89 367.69 312.79 366.15 C 312.26 366.97 311.73 367.80 311.20 368.63 C 308.16 373.43 305.16 378.27 302.01 383.01 C 258.86 382.91 215.71 383.25 172.57 382.71 C 175.75 378.04 178.79 373.28 181.92 368.58 Z" />
<path fill="#4ea0c7" opacity="1.00" d=" M 756.84 366.58 C 760.36 371.97 763.83 377.39 767.40 382.78 C 725.23 382.88 683.04 383.75 640.90 382.27 C 637.61 377.18 634.37 372.07 631.09 366.98 C 673.00 366.72 714.94 367.60 756.84 366.58 Z" />
</g>
<g id="#3391bdff">
<path fill="#3391bd" opacity="1.00" d=" M 1.11 367.05 C 49.41 366.85 97.70 367.19 146.00 366.88 C 157.99 366.80 170.01 366.99 181.92 368.58 C 178.79 373.28 175.75 378.04 172.57 382.71 C 172.34 383.04 171.88 383.68 171.66 384.01 C 158.13 382.99 144.56 382.85 131.00 382.94 C 87.70 383.11 44.41 382.88 1.11 383.05 C 0.76 385.85 0.31 388.80 0.00 391.64 L 0.00 375.64 C 0.31 372.80 0.76 369.85 1.11 367.05 Z" />
<path fill="#3391bd" opacity="1.00" d=" M 311.20 368.63 C 319.05 367.25 327.04 367.05 334.99 366.89 C 433.69 367.11 532.39 366.97 631.09 366.98 C 634.37 372.07 637.61 377.18 640.90 382.27 C 641.16 382.66 641.66 383.45 641.92 383.84 C 621.30 382.51 600.64 383.03 580.00 383.00 C 487.34 383.01 394.68 382.99 302.01 383.01 C 305.16 378.27 308.16 373.43 311.20 368.63 Z" />
</g>
<g id="#318ebbff">
<path fill="#318ebb" opacity="1.00" d=" M 1.11 383.05 C 44.41 382.88 87.70 383.11 131.00 382.94 C 144.56 382.85 158.13 382.99 171.66 384.01 C 168.54 388.86 165.57 393.80 162.61 398.76 C 162.25 398.77 161.51 398.80 161.15 398.82 C 107.72 399.32 54.29 398.79 0.87 399.03 C 0.52 401.54 0.23 404.07 0.00 406.61 L 0.00 391.64 C 0.31 388.80 0.76 385.85 1.11 383.05 Z" />
<path fill="#318ebb" opacity="1.00" d=" M 302.01 383.01 C 394.68 382.99 487.34 383.01 580.00 383.00 C 600.64 383.03 621.30 382.51 641.92 383.84 C 645.00 388.61 648.01 393.42 651.14 398.17 C 651.68 399.00 652.24 399.83 652.79 400.67 C 645.25 399.52 637.61 399.10 630.01 398.94 C 517.34 399.06 404.66 398.98 291.98 398.99 C 295.30 393.64 298.64 388.32 302.01 383.01 Z" />
</g>
<g id="#59a2c6ff">
<path fill="#59a2c6" opacity="1.00" d=" M 774.34 399.04 C 774.51 397.38 774.84 394.08 775.00 392.43 L 775.00 490.08 L 774.88 491.16 C 774.64 488.42 774.43 485.69 774.26 482.97 C 774.04 477.63 773.96 472.32 773.95 466.99 C 773.94 460.32 774.00 453.66 774.00 447.00 C 773.97 441.65 774.01 436.34 774.00 431.00 C 773.96 425.65 773.93 420.33 773.95 415.00 C 774.02 409.66 773.95 404.35 774.34 399.04 Z" />
</g>
<g id="#4a9bc3ff">
<path fill="#4a9bc3" opacity="1.00" d=" M 161.15 398.82 C 161.51 398.80 162.25 398.77 162.61 398.76 C 205.74 399.22 248.86 398.93 291.98 398.99 C 290.04 401.86 288.08 404.72 286.20 407.63 C 283.73 411.52 281.36 415.48 278.84 419.34 C 256.36 422.45 233.60 420.59 211.00 420.98 C 190.03 420.69 168.95 422.20 148.08 419.66 C 149.36 417.55 150.64 415.43 151.94 413.33 C 155.00 408.49 158.04 403.63 161.15 398.82 Z" />
</g>
<g id="#4b9cc3ff">
<path fill="#4b9cc3" opacity="1.00" d=" M 651.14 398.17 C 692.18 400.02 733.28 398.50 774.34 399.04 C 773.95 404.35 774.02 409.66 773.95 415.00 C 736.60 415.02 699.25 414.95 661.90 415.05 C 659.98 412.01 658.03 408.99 656.12 405.94 C 655.01 404.18 653.91 402.42 652.79 400.67 C 652.24 399.83 651.68 399.00 651.14 398.17 Z" />
</g>
<g id="#308cb8ff">
<path fill="#308cb8" opacity="1.00" d=" M 0.87 399.03 C 54.29 398.79 107.72 399.32 161.15 398.82 C 158.04 403.63 155.00 408.49 151.94 413.33 C 147.34 412.67 142.67 412.94 138.05 412.85 C 92.34 413.17 46.62 412.89 0.90 413.03 C 0.67 415.65 0.22 420.88 0.00 423.50 L 0.00 406.61 C 0.23 404.07 0.52 401.54 0.87 399.03 Z" />
</g>
<g id="#308db9ff">
<path fill="#308db9" opacity="1.00" d=" M 291.98 398.99 C 404.66 398.98 517.34 399.06 630.01 398.94 C 637.61 399.10 645.25 399.52 652.79 400.67 C 653.91 402.42 655.01 404.18 656.12 405.94 C 540.74 406.01 425.37 406.09 309.99 405.89 C 302.04 406.04 294.04 406.25 286.20 407.63 C 288.08 404.72 290.04 401.86 291.98 398.99 Z" />
</g>
<g id="#2f8ab7fe">
<path fill="#2f8ab7" opacity="1.00" d=" M 286.20 407.63 C 294.04 406.25 302.04 406.04 309.99 405.89 C 425.37 406.09 540.74 406.01 656.12 405.94 C 658.03 408.99 659.98 412.01 661.90 415.05 C 663.58 417.71 665.27 420.36 666.98 423.01 C 553.32 422.97 439.66 423.03 326.00 422.98 C 309.32 423.03 292.62 422.58 275.97 423.68 C 276.91 422.22 277.89 420.79 278.84 419.34 C 281.36 415.48 283.73 411.52 286.20 407.63 Z" />
</g>
<g id="#2f8ab6ff">
<path fill="#2f8ab6" opacity="1.00" d=" M 138.05 412.85 C 142.67 412.94 147.34 412.67 151.94 413.33 C 150.64 415.43 149.36 417.55 148.08 419.66 C 147.23 421.03 146.37 422.40 145.53 423.79 C 126.62 424.16 107.66 423.37 88.78 424.93 C 87.17 425.08 85.56 425.33 83.96 425.59 C 83.40 424.02 81.26 424.30 81.04 425.92 C 76.93 427.20 72.85 428.55 68.71 429.70 C 68.39 429.72 67.75 429.76 67.44 429.79 C 45.30 430.21 23.15 429.85 1.01 430.04 C 0.69 432.82 0.28 435.78 0.00 438.62 L 0.00 423.50 C 0.22 420.88 0.67 415.65 0.90 413.03 C 46.62 412.89 92.34 413.17 138.05 412.85 Z" />
</g>
<g id="#499ac1ff">
<path fill="#499ac1" opacity="1.00" d=" M 661.90 415.05 C 699.25 414.95 736.60 415.02 773.95 415.00 C 773.93 420.33 773.96 425.65 774.00 431.00 C 739.70 430.14 705.25 432.91 671.07 429.39 C 669.71 427.26 668.35 425.13 666.98 423.01 C 665.27 420.36 663.58 417.71 661.90 415.05 Z" />
</g>
<g id="#4999c1ff">
<path fill="#4999c1" opacity="1.00" d=" M 145.53 423.79 C 146.37 422.40 147.23 421.03 148.08 419.66 C 168.95 422.20 190.03 420.69 211.00 420.98 C 233.60 420.59 256.36 422.45 278.84 419.34 C 277.89 420.79 276.91 422.22 275.97 423.68 C 273.04 428.39 269.93 433.08 268.16 438.38 C 267.67 437.45 267.17 436.54 266.67 435.64 C 266.21 434.31 265.29 433.70 263.89 433.79 C 263.39 433.64 262.39 433.35 261.89 433.20 C 261.97 431.52 260.79 430.05 259.15 429.75 C 258.58 429.54 257.45 429.12 256.88 428.91 C 257.33 427.52 256.87 426.68 255.48 426.40 C 254.91 426.28 253.78 426.05 253.21 425.94 C 248.20 424.97 243.17 424.15 238.15 423.34 C 238.08 428.21 237.99 433.11 237.99 437.99 C 216.59 437.99 195.19 438.30 173.80 437.46 C 173.27 436.35 172.70 435.27 172.13 434.20 C 171.36 432.25 170.20 430.21 167.97 429.77 C 164.09 428.31 160.14 427.04 156.19 425.80 C 155.01 424.65 153.33 424.42 151.85 425.08 C 130.83 425.11 109.80 424.74 88.78 424.93 C 107.66 423.37 126.62 424.16 145.53 423.79 Z" />
</g>
<g id="#2e88b5ff">
<path fill="#2e88b5" opacity="1.00" d=" M 275.97 423.68 C 292.62 422.58 309.32 423.03 326.00 422.98 C 439.66 423.03 553.32 422.97 666.98 423.01 C 668.35 425.13 669.71 427.26 671.07 429.39 C 674.69 435.03 678.37 440.65 682.01 446.31 C 682.27 446.71 682.79 447.53 683.05 447.93 C 678.50 447.35 673.95 446.80 669.43 446.25 C 669.92 447.56 670.42 448.87 670.97 450.18 C 669.93 448.60 668.87 447.05 667.83 445.50 C 667.90 444.07 667.25 443.16 665.90 442.77 C 661.96 436.61 658.01 430.48 654.15 424.29 C 649.70 424.59 645.20 424.28 640.86 425.32 C 636.50 432.71 632.18 440.14 627.45 447.31 C 595.50 446.75 563.55 446.99 531.61 447.12 C 531.54 446.74 531.39 446.00 531.32 445.63 C 530.37 442.45 529.63 439.07 527.75 436.31 C 526.31 434.39 524.60 432.69 522.72 431.22 C 518.55 427.97 513.04 427.32 508.20 425.64 C 506.98 424.55 505.32 424.34 503.84 424.98 C 502.65 424.93 501.46 424.88 500.28 424.84 C 473.25 423.45 446.17 423.91 419.12 424.11 L 419.07 425.03 C 418.89 432.35 418.94 439.67 418.96 447.00 C 397.64 447.00 376.33 447.00 355.01 447.00 C 354.99 439.28 355.00 431.57 354.96 423.87 C 349.50 424.07 344.05 424.30 338.61 424.59 C 338.29 432.05 338.07 439.52 337.98 446.99 C 319.59 446.79 301.20 447.34 282.82 447.06 C 282.42 446.97 281.60 446.79 281.20 446.70 C 280.66 446.57 279.59 446.30 279.05 446.17 C 279.07 444.79 278.45 443.97 277.17 443.70 C 276.61 443.55 275.49 443.24 274.93 443.09 C 274.85 441.48 273.65 439.69 271.85 439.98 L 270.83 439.99 C 270.51 438.51 269.62 437.97 268.16 438.38 C 269.93 433.08 273.04 428.39 275.97 423.68 Z" />
</g>
<g id="#6dadcdff">
<path fill="#6dadcd" opacity="1.00" d=" M 238.15 423.34 C 243.17 424.15 248.20 424.97 253.21 425.94 C 248.49 425.38 243.75 425.10 239.02 424.75 C 239.06 444.28 239.01 463.81 238.66 483.34 L 238.63 482.64 C 238.37 477.41 238.05 472.22 237.98 467.00 C 237.86 457.32 237.97 447.66 237.99 437.99 C 237.99 433.11 238.08 428.21 238.15 423.34 Z" />
</g>
<g id="#4895bdff">
<path fill="#4895bd" opacity="1.00" d=" M 338.61 424.59 C 344.05 424.30 349.50 424.07 354.96 423.87 C 355.00 431.57 354.99 439.28 355.01 447.00 C 355.01 453.66 355.00 460.33 355.00 467.00 C 354.98 472.66 354.97 478.32 354.99 484.00 C 355.01 493.14 355.10 502.29 355.26 511.45 C 354.91 511.46 354.20 511.50 353.85 511.51 C 354.11 482.73 354.02 453.96 353.97 425.18 C 348.84 424.98 343.73 424.86 338.61 424.59 Z" />
</g>
<g id="#509dc3ff">
<path fill="#509dc3" opacity="1.00" d=" M 419.12 424.11 C 446.17 423.91 473.25 423.45 500.28 424.84 C 473.53 424.98 446.77 425.02 420.02 425.03 L 419.07 425.03 L 419.12 424.11 Z" />
</g>
<g id="#4d9bc2fe">
<path fill="#4d9bc2" opacity="1.00" d=" M 640.86 425.32 C 645.20 424.28 649.70 424.59 654.15 424.29 C 649.69 424.63 645.29 424.99 640.86 425.32 Z" />
</g>
<g id="#87bcd6ff">
<path fill="#87bcd6" opacity="1.00" d=" M 81.04 425.92 C 81.26 424.30 83.40 424.02 83.96 425.59 C 83.23 425.67 81.77 425.84 81.04 425.92 Z" />
</g>
<g id="#fefefeff">
<path fill="#fefefe" opacity="1.00" d=" M 83.96 425.59 C 85.56 425.33 87.17 425.08 88.78 424.93 C 109.80 424.74 130.83 425.11 151.85 425.08 C 153.00 426.26 154.71 426.49 156.19 425.80 C 160.14 427.04 164.09 428.31 167.97 429.77 C 168.12 432.10 170.04 433.56 172.13 434.20 C 172.70 435.27 173.27 436.35 173.80 437.46 C 173.87 438.04 174.01 439.20 174.08 439.78 C 174.12 458.94 174.06 478.10 174.21 497.26 C 174.17 497.69 174.07 498.55 174.02 498.98 C 173.52 500.41 172.95 501.82 172.39 503.24 C 170.26 503.55 168.58 505.13 168.11 507.23 C 163.51 508.71 158.86 510.06 154.20 511.37 C 152.46 510.52 150.44 510.65 148.89 511.83 C 128.93 512.07 108.97 512.13 89.02 511.80 C 87.84 510.98 86.37 510.59 84.99 511.13 C 84.23 511.23 82.71 511.44 81.95 511.55 C 74.54 509.52 64.03 506.24 62.85 497.25 C 63.03 478.47 62.58 459.67 63.15 440.91 C 63.55 438.53 64.25 436.22 64.91 433.91 C 66.83 433.28 68.41 431.76 68.71 429.70 C 72.85 428.55 76.93 427.20 81.04 425.92 C 81.77 425.84 83.23 425.67 83.96 425.59 M 88.83 437.88 C 86.54 438.01 84.23 438.60 82.26 439.80 C 81.15 438.11 77.85 439.78 78.96 441.63 C 79.04 450.29 78.99 458.95 78.95 467.62 C 79.00 476.94 78.95 486.26 78.73 495.58 C 79.09 497.18 79.91 497.46 81.21 496.42 C 83.51 499.44 87.62 498.93 91.00 498.97 L 91.02 499.99 C 109.42 499.91 127.85 500.58 146.22 499.26 C 149.62 499.10 153.54 499.23 155.76 496.23 C 156.97 497.31 157.80 497.06 158.25 495.49 L 158.22 494.30 C 159.54 477.16 159.43 459.93 158.26 442.80 C 157.67 438.38 151.35 438.95 148.27 437.60 C 128.50 436.42 108.60 436.51 88.83 437.88 Z" />
<path fill="#fefefe" opacity="1.00" d=" M 239.02 424.75 C 243.75 425.10 248.49 425.38 253.21 425.94 C 253.78 426.05 254.91 426.28 255.48 426.40 C 255.10 427.68 255.57 428.52 256.88 428.91 C 257.45 429.12 258.58 429.54 259.15 429.75 C 259.03 431.41 260.17 433.00 261.89 433.20 C 262.39 433.35 263.39 433.64 263.89 433.79 C 264.30 435.18 265.23 435.79 266.67 435.64 C 267.17 436.54 267.67 437.45 268.16 438.38 C 268.64 439.59 269.53 440.12 270.83 439.99 L 271.85 439.98 C 272.04 441.58 273.31 442.89 274.93 443.09 C 275.49 443.24 276.61 443.55 277.17 443.70 C 276.93 445.12 277.56 445.94 279.05 446.17 C 279.59 446.30 280.66 446.57 281.20 446.70 C 281.08 447.97 281.71 448.70 283.07 448.90 C 283.60 449.11 284.65 449.54 285.17 449.75 C 285.04 451.40 286.13 453.13 287.91 453.18 C 288.47 453.29 289.59 453.50 290.15 453.61 C 289.98 454.98 290.63 455.79 292.09 456.05 C 292.57 456.22 293.53 456.57 294.01 456.74 C 294.03 458.13 294.72 458.99 296.09 459.31 C 297.14 459.73 298.20 460.15 299.27 460.55 C 298.95 461.97 299.55 462.81 301.05 463.08 C 301.59 463.22 302.67 463.51 303.21 463.65 C 302.99 465.03 303.61 465.86 305.09 466.14 C 305.60 466.32 306.60 466.67 307.11 466.84 C 307.04 468.49 308.17 470.13 309.92 470.21 C 310.47 470.32 311.58 470.55 312.14 470.66 C 311.96 472.06 312.61 472.86 314.10 473.07 C 314.63 473.21 315.69 473.49 316.22 473.62 C 315.99 475.00 316.62 475.83 318.09 476.12 C 318.59 476.30 319.60 476.66 320.10 476.84 C 320.03 478.49 321.17 480.14 322.93 480.19 C 323.48 480.30 324.59 480.52 325.14 480.63 C 324.97 482.00 325.62 482.81 327.09 483.05 C 327.56 483.21 328.50 483.52 328.98 483.68 C 329.09 485.09 329.87 485.88 331.29 486.06 C 332.06 486.71 332.82 487.37 333.59 488.04 C 334.04 489.44 335.00 490.03 336.46 489.78 C 336.80 490.19 337.47 490.99 337.80 491.39 C 338.04 491.69 338.52 492.30 338.76 492.61 C 339.26 469.94 339.13 447.25 338.61 424.59 C 343.73 424.86 348.84 424.98 353.97 425.18 C 354.02 453.96 354.11 482.73 353.85 511.51 C 349.49 511.66 345.15 511.85 340.80 511.92 C 341.24 510.61 340.78 509.83 339.42 509.57 C 338.85 509.42 337.73 509.13 337.16 508.99 C 337.12 507.56 336.44 506.79 335.12 506.66 C 334.55 506.58 333.41 506.43 332.84 506.36 C 332.97 504.99 332.32 504.19 330.88 503.95 C 330.38 503.77 329.38 503.41 328.88 503.24 C 328.99 501.54 327.78 500.04 326.11 499.79 C 325.60 499.62 324.59 499.28 324.09 499.10 C 324.15 497.70 323.53 496.87 322.23 496.61 C 321.70 496.47 320.65 496.19 320.12 496.05 C 320.11 494.62 319.44 493.83 318.12 493.68 C 317.55 493.60 316.41 493.44 315.84 493.36 C 315.97 491.99 315.32 491.19 313.88 490.95 C 313.38 490.77 312.37 490.42 311.87 490.24 C 311.97 488.54 310.78 487.07 309.15 486.74 C 308.64 486.54 307.63 486.14 307.12 485.95 C 307.17 484.46 306.53 483.65 305.18 483.52 C 304.56 483.46 303.32 483.36 302.69 483.30 C 303.19 481.97 302.76 481.16 301.40 480.86 C 300.82 480.72 299.65 480.43 299.07 480.29 C 298.91 478.89 298.13 478.10 296.73 477.93 C 295.90 477.30 295.08 476.68 294.26 476.07 C 294.17 474.61 293.41 473.81 291.99 473.66 C 291.45 473.52 290.39 473.25 289.85 473.12 C 290.22 471.78 289.72 470.97 288.34 470.68 C 287.79 470.52 286.68 470.20 286.12 470.04 C 286.11 468.61 285.45 467.82 284.13 467.67 C 283.55 467.59 282.41 467.43 281.84 467.35 C 281.98 465.99 281.32 465.19 279.88 464.95 C 279.38 464.77 278.38 464.41 277.88 464.23 C 277.99 462.53 276.78 461.04 275.11 460.80 C 274.60 460.62 273.59 460.28 273.09 460.10 C 273.15 458.70 272.53 457.87 271.23 457.61 C 270.70 457.47 269.65 457.18 269.12 457.04 C 269.11 455.61 268.44 454.82 267.12 454.68 C 266.56 454.61 265.43 454.47 264.87 454.40 C 264.98 453.03 264.30 452.24 262.85 452.04 C 262.18 451.81 260.85 451.35 260.19 451.13 C 260.99 450.13 260.78 449.37 259.58 448.84 C 258.90 448.48 257.55 447.76 256.87 447.40 C 255.97 446.91 255.07 446.41 254.17 445.93 C 254.25 448.61 254.40 453.99 254.48 456.68 C 254.03 474.94 253.92 493.22 253.88 511.49 C 248.98 511.56 244.09 511.68 239.19 511.59 C 239.02 502.17 238.92 492.75 238.66 483.34 C 239.01 463.81 239.06 444.28 239.02 424.75 Z" />
<path fill="#fefefe" opacity="1.00" d=" M 420.02 425.03 C 446.77 425.02 473.53 424.98 500.28 424.84 C 501.46 424.88 502.65 424.93 503.84 424.98 C 505.00 426.18 506.72 426.39 508.20 425.64 C 513.04 427.32 518.55 427.97 522.72 431.22 C 524.46 432.85 526.14 434.54 527.75 436.31 C 529.63 439.07 530.37 442.45 531.32 445.63 C 531.13 461.51 531.12 477.39 531.23 493.28 C 530.80 496.02 529.54 498.59 527.83 500.75 C 526.22 502.51 524.56 504.22 522.83 505.86 C 519.76 508.03 516.23 509.45 512.78 510.89 C 510.44 511.27 508.10 511.67 505.77 512.09 C 505.32 510.88 504.42 510.48 503.08 510.89 C 501.63 510.35 500.12 510.89 499.07 511.93 C 472.76 511.89 446.44 512.41 420.15 511.63 C 419.88 482.76 420.02 453.89 420.02 425.03 M 435.02 437.01 C 435.15 457.98 434.45 478.96 435.59 499.91 L 435.62 499.27 C 456.44 500.62 477.36 500.38 498.20 499.26 C 502.51 498.90 507.98 499.44 510.69 495.35 C 512.09 496.67 514.78 494.36 513.58 492.81 C 513.92 492.65 514.59 492.31 514.93 492.15 C 514.97 489.10 514.95 486.01 515.02 483.00 C 515.01 477.67 514.95 472.32 514.94 467.00 C 515.08 460.46 515.26 453.91 515.57 447.39 C 514.80 446.42 514.05 445.45 513.21 444.57 C 514.10 442.99 513.66 442.18 511.88 442.12 C 509.61 438.79 503.99 438.68 500.22 437.76 C 478.52 436.25 456.75 437.23 435.02 437.01 Z" />
</g>
<g id="#a5cee1ff">
<path fill="#a5cee1" opacity="1.00" d=" M 151.85 425.08 C 153.33 424.42 155.01 424.65 156.19 425.80 C 154.71 426.49 153.00 426.26 151.85 425.08 Z" />
</g>
<g id="#89bbd4ff">
<path fill="#89bbd4" opacity="1.00" d=" M 337.98 446.99 C 338.07 439.52 338.29 432.05 338.61 424.59 C 339.13 447.25 339.26 469.94 338.76 492.61 C 338.52 492.30 338.04 491.69 337.80 491.39 C 337.83 476.59 337.98 461.79 337.98 446.99 Z" />
<path fill="#89bbd4" opacity="1.00" d=" M 285.17 449.75 C 286.75 450.12 287.95 451.52 287.91 453.18 C 286.13 453.13 285.04 451.40 285.17 449.75 Z" />
</g>
<g id="#bad8e7ff">
<path fill="#bad8e7" opacity="1.00" d=" M 419.07 425.03 L 420.02 425.03 C 420.02 453.89 419.88 482.76 420.15 511.63 C 419.79 511.62 419.09 511.58 418.73 511.57 C 418.88 502.37 418.98 493.18 419.01 484.00 C 419.01 478.32 419.01 472.66 419.01 467.00 C 418.99 460.32 418.98 453.66 418.96 447.00 C 418.94 439.67 418.89 432.35 419.07 425.03 Z" />
</g>
<g id="#a2cbdfff">
<path fill="#a2cbdf" opacity="1.00" d=" M 503.84 424.98 C 505.32 424.34 506.98 424.55 508.20 425.64 C 506.72 426.39 505.00 426.18 503.84 424.98 Z" />
</g>
<g id="#fcfdfeff">
<path fill="#fcfdfe" opacity="1.00" d=" M 640.86 425.32 C 645.29 424.99 649.69 424.63 654.15 424.29 C 658.01 430.48 661.96 436.61 665.90 442.77 C 665.80 444.19 666.44 445.10 667.83 445.50 C 668.87 447.05 669.93 448.60 670.97 450.18 C 677.84 461.14 685.22 471.78 692.46 482.51 C 695.31 486.85 698.13 491.25 700.89 495.66 C 700.74 497.09 701.36 498.00 702.73 498.39 L 703.27 498.63 C 703.15 500.03 703.77 500.93 705.15 501.33 C 707.10 504.78 709.13 508.25 711.10 511.71 C 705.37 511.75 699.66 511.78 693.96 511.71 C 690.22 506.18 686.61 500.59 683.03 494.97 C 682.40 493.59 681.85 492.18 681.36 490.76 C 681.01 489.45 680.14 488.86 678.76 488.99 C 676.54 485.08 674.29 481.22 672.05 477.34 C 672.00 475.94 671.31 475.07 669.98 474.71 C 668.98 473.09 667.98 471.48 666.91 469.92 C 660.63 460.30 654.61 450.51 648.31 440.91 C 642.72 449.97 637.02 458.96 631.14 467.83 C 624.42 478.00 618.26 488.53 611.70 498.80 C 611.48 499.11 611.03 499.73 610.80 500.05 C 625.88 500.01 640.97 500.10 656.06 499.82 C 658.41 503.68 660.73 507.58 663.08 511.45 C 637.09 512.37 611.08 512.19 585.09 511.70 C 588.72 505.93 592.46 500.24 596.03 494.43 C 597.33 493.97 597.94 493.05 597.85 491.68 L 597.91 491.04 C 599.27 490.78 599.97 489.95 600.03 488.57 L 600.16 487.87 C 601.53 487.55 602.14 486.74 601.98 485.45 L 601.91 484.78 C 603.31 484.67 603.89 483.92 603.66 482.53 L 604.37 482.41 C 605.73 482.25 606.31 481.49 606.12 480.13 L 606.05 479.28 C 607.38 479.15 608.05 478.35 608.04 476.89 C 609.89 473.88 611.73 470.88 613.64 467.92 C 618.20 461.02 622.86 454.19 627.45 447.31 C 632.18 440.14 636.50 432.71 640.86 425.32 Z" />
</g>
<g id="#76b3d1ff">
<path fill="#76b3d1" opacity="1.00" d=" M 255.48 426.40 C 256.87 426.68 257.33 427.52 256.88 428.91 C 255.57 428.52 255.10 427.68 255.48 426.40 Z" />
</g>
<g id="#2d87b4ff">
<path fill="#2d87b4" opacity="1.00" d=" M 1.01 430.04 C 23.15 429.85 45.30 430.21 67.44 429.79 C 66.03 430.73 65.27 432.30 64.91 433.91 C 64.25 436.22 63.55 438.53 63.15 440.91 C 62.91 442.43 62.43 445.49 62.19 447.02 C 41.83 447.08 21.48 446.66 1.13 447.21 C 0.85 448.52 0.28 451.14 0.00 452.45 L 0.00 438.62 C 0.28 435.78 0.69 432.82 1.01 430.04 Z" />
<path fill="#2d87b4" opacity="1.00" d=" M 436.02 438.03 C 457.42 438.05 478.82 437.92 500.22 437.76 C 503.99 438.68 509.61 438.79 511.88 442.12 C 511.94 443.13 512.38 443.95 513.21 444.57 C 514.05 445.45 514.80 446.42 515.57 447.39 C 489.05 446.71 462.52 447.05 435.99 447.00 C 436.02 444.04 435.94 440.95 436.02 438.03 Z" />
</g>
<g id="#4797bfff">
<path fill="#4797bf" opacity="1.00" d=" M 671.07 429.39 C 705.25 432.91 739.70 430.14 774.00 431.00 C 774.01 436.34 773.97 441.65 774.00 447.00 C 743.34 446.55 712.63 447.96 682.01 446.31 C 678.37 440.65 674.69 435.03 671.07 429.39 Z" />
</g>
<g id="#559fc4fe">
<path fill="#559fc4" opacity="1.00" d=" M 67.44 429.79 C 67.75 429.76 68.39 429.72 68.71 429.70 C 68.41 431.76 66.83 433.28 64.91 433.91 C 65.27 432.30 66.03 430.73 67.44 429.79 Z" />
</g>
<g id="#b1d4e5fe">
<path fill="#b1d4e5" opacity="1.00" d=" M 167.97 429.77 C 170.20 430.21 171.36 432.25 172.13 434.20 C 170.04 433.56 168.12 432.10 167.97 429.77 Z" />
</g>
<g id="#9ac7ddff">
<path fill="#9ac7dd" opacity="1.00" d=" M 259.15 429.75 C 260.79 430.05 261.97 431.52 261.89 433.20 C 260.17 433.00 259.03 431.41 259.15 429.75 Z" />
</g>
<g id="#d6e8f1ff">
<path fill="#d6e8f1" opacity="1.00" d=" M 522.72 431.22 C 524.60 432.69 526.31 434.39 527.75 436.31 C 526.14 434.54 524.46 432.85 522.72 431.22 Z" />
</g>
<g id="#7eb6d3ff">
<path fill="#7eb6d3" opacity="1.00" d=" M 263.89 433.79 C 265.29 433.70 266.21 434.31 266.67 435.64 C 265.23 435.79 264.30 435.18 263.89 433.79 Z" />
</g>
<g id="#bddae9ff">
<path fill="#bddae9" opacity="1.00" d=" M 88.83 437.88 C 108.60 436.51 128.50 436.42 148.27 437.60 C 143.90 437.64 139.54 437.87 135.17 437.97 C 119.72 438.27 104.28 437.73 88.83 437.88 Z" />
</g>
<g id="#4696bdff">
<path fill="#4696bd" opacity="1.00" d=" M 173.80 437.46 C 195.19 438.30 216.59 437.99 237.99 437.99 C 237.97 447.66 237.86 457.32 237.98 467.00 C 217.02 467.00 196.06 467.00 175.10 467.00 C 175.05 457.91 174.83 448.83 174.08 439.78 C 174.01 439.20 173.87 438.04 173.80 437.46 Z" />
<path fill="#4696bd" opacity="1.00" d=" M 254.98 456.49 C 255.69 453.47 256.23 450.41 256.87 447.40 C 257.55 447.76 258.90 448.48 259.58 448.84 C 259.36 449.18 258.92 449.87 258.70 450.21 C 257.51 452.33 256.18 454.37 254.98 456.49 Z" />
</g>
<g id="#c2dceafe">
<path fill="#c2dcea" opacity="1.00" d=" M 435.02 437.01 C 456.75 437.23 478.52 436.25 500.22 437.76 C 478.82 437.92 457.42 438.05 436.02 438.03 C 435.94 440.95 436.02 444.04 435.99 447.00 C 436.00 453.66 435.98 460.33 435.99 467.00 C 435.99 472.32 436.09 477.67 436.03 483.00 C 435.91 488.41 435.86 493.85 435.62 499.27 L 435.59 499.91 C 434.45 478.96 435.15 457.98 435.02 437.01 Z" />
</g>
<g id="#2c85b2ff">
<path fill="#2c85b2" opacity="1.00" d=" M 82.26 439.80 C 84.23 438.60 86.54 438.01 88.83 437.88 C 104.28 437.73 119.72 438.27 135.17 437.97 C 129.53 447.64 123.57 457.11 117.61 466.58 C 117.24 466.69 116.50 466.91 116.13 467.02 C 103.73 467.25 91.34 467.07 78.95 467.62 C 78.99 458.95 79.04 450.29 78.96 441.63 C 80.21 441.33 81.24 440.54 82.26 439.80 Z" />
</g>
<g id="#4696bdfe">
<path fill="#4696bd" opacity="1.00" d=" M 135.17 437.97 C 139.54 437.87 143.90 437.64 148.27 437.60 C 151.35 438.95 157.67 438.38 158.26 442.80 C 158.31 450.87 158.07 458.96 158.01 467.04 C 144.54 467.14 131.08 466.69 117.61 466.58 C 123.57 457.11 129.53 447.64 135.17 437.97 Z" />
</g>
<g id="#c7dfecff">
<path fill="#c7dfec" opacity="1.00" d=" M 268.16 438.38 C 269.62 437.97 270.51 438.51 270.83 439.99 C 269.53 440.12 268.64 439.59 268.16 438.38 Z" />
</g>
<g id="#c9e1ecff">
<path fill="#c9e1ec" opacity="1.00" d=" M 78.96 441.63 C 77.85 439.78 81.15 438.11 82.26 439.80 C 81.24 440.54 80.21 441.33 78.96 441.63 Z" />
</g>
<g id="#bfdae9ff">
<path fill="#bfdae9" opacity="1.00" d=" M 174.08 439.78 C 174.83 448.83 175.05 457.91 175.10 467.00 C 175.08 472.32 175.15 477.67 175.02 483.01 C 174.79 487.74 174.66 492.52 174.21 497.26 C 174.06 478.10 174.12 458.94 174.08 439.78 Z" />
</g>
<g id="#8bbdd6ff">
<path fill="#8bbdd6" opacity="1.00" d=" M 271.85 439.98 C 273.65 439.69 274.85 441.48 274.93 443.09 C 273.31 442.89 272.04 441.58 271.85 439.98 Z" />
</g>
<g id="#90bed6fe">
<path fill="#90bed6" opacity="1.00" d=" M 62.19 447.02 C 62.43 445.49 62.91 442.43 63.15 440.91 C 62.58 459.67 63.03 478.47 62.85 497.25 C 62.45 492.83 62.09 488.43 61.96 484.02 C 61.92 478.58 61.97 473.18 61.94 467.76 C 62.01 460.84 61.70 453.92 62.19 447.02 Z" />
</g>
<g id="#2d85b2ff">
<path fill="#2d85b2" opacity="1.00" d=" M 648.31 440.91 C 654.61 450.51 660.63 460.30 666.91 469.92 C 655.76 465.05 642.99 466.84 631.14 467.83 C 637.02 458.96 642.72 449.97 648.31 440.91 Z" />
</g>
<g id="#58a0c4ff">
<path fill="#58a0c4" opacity="1.00" d=" M 511.88 442.12 C 513.66 442.18 514.10 442.99 513.21 444.57 C 512.38 443.95 511.94 443.13 511.88 442.12 Z" />
</g>
<g id="#cae1edff">
<path fill="#cae1ed" opacity="1.00" d=" M 158.26 442.80 C 159.43 459.93 159.54 477.16 158.22 494.30 C 158.13 490.49 158.03 486.76 158.00 482.97 C 157.98 477.65 157.94 472.36 158.01 467.04 C 158.07 458.96 158.31 450.87 158.26 442.80 Z" />
</g>
<g id="#b9d7e6ff">
<path fill="#b9d7e6" opacity="1.00" d=" M 665.90 442.77 C 667.25 443.16 667.90 444.07 667.83 445.50 C 666.44 445.10 665.80 444.19 665.90 442.77 Z" />
</g>
<g id="#6aaacbff">
<path fill="#6aaacb" opacity="1.00" d=" M 277.17 443.70 C 278.45 443.97 279.07 444.79 279.05 446.17 C 277.56 445.94 276.93 445.12 277.17 443.70 Z" />
</g>
<g id="#7cb5d1fe">
<path fill="#7cb5d1" opacity="1.00" d=" M 254.17 445.93 C 255.07 446.41 255.97 446.91 256.87 447.40 C 256.23 450.41 255.69 453.47 254.98 456.49 L 254.51 457.45 L 254.48 456.68 C 254.40 453.99 254.25 448.61 254.17 445.93 Z" />
</g>
<g id="#90bed6ff">
<path fill="#90bed6" opacity="1.00" d=" M 531.32 445.63 C 531.39 446.00 531.54 446.74 531.61 447.12 C 531.93 453.73 532.04 460.37 532.11 467.00 C 532.11 472.67 532.13 478.34 532.04 484.02 C 531.80 487.07 531.71 490.22 531.23 493.28 C 531.12 477.39 531.13 461.51 531.32 445.63 Z" />
</g>
<g id="#2e86b1ff">
<path fill="#2e86b1" opacity="1.00" d=" M 669.43 446.25 C 673.95 446.80 678.50 447.35 683.05 447.93 C 686.99 454.06 690.91 460.21 694.85 466.35 C 698.22 471.56 701.54 476.80 704.92 482.01 C 700.75 482.07 696.59 482.26 692.46 482.51 C 685.22 471.78 677.84 461.14 670.97 450.18 C 670.42 448.87 669.92 447.56 669.43 446.25 Z" />
</g>
<g id="#4595bcff">
<path fill="#4595bc" opacity="1.00" d=" M 682.01 446.31 C 712.63 447.96 743.34 446.55 774.00 447.00 C 774.00 453.66 773.94 460.32 773.95 466.99 C 747.58 466.81 721.20 467.60 694.85 466.35 C 690.91 460.21 686.99 454.06 683.05 447.93 C 682.79 447.53 682.27 446.71 682.01 446.31 Z" />
</g>
<g id="#2b84b1fe">
<path fill="#2b84b1" opacity="1.00" d=" M 1.13 447.21 C 21.48 446.66 41.83 447.08 62.19 447.02 C 61.70 453.92 62.01 460.84 61.94 467.76 C 41.64 468.04 21.33 467.97 1.03 468.04 C 0.70 470.82 0.28 473.79 0.00 476.62 L 0.00 452.45 C 0.28 451.14 0.85 448.52 1.13 447.21 Z" />
</g>
<g id="#5fa4c5ff">
<path fill="#5fa4c5" opacity="1.00" d=" M 281.20 446.70 C 281.60 446.79 282.42 446.97 282.82 447.06 C 282.89 447.52 283.01 448.44 283.07 448.90 C 281.71 448.70 281.08 447.97 281.20 446.70 Z" />
</g>
<g id="#2b84b0ff">
<path fill="#2b84b0" opacity="1.00" d=" M 282.82 447.06 C 301.20 447.34 319.59 446.79 337.98 446.99 C 337.98 461.79 337.83 476.59 337.80 491.39 C 337.47 490.99 336.80 490.19 336.46 489.78 C 335.91 488.51 334.96 487.93 333.59 488.04 C 332.82 487.37 332.06 486.71 331.29 486.06 C 331.15 484.64 330.38 483.85 328.98 483.68 C 328.50 483.52 327.56 483.21 327.09 483.05 C 327.11 481.63 326.46 480.82 325.14 480.63 C 324.59 480.52 323.48 480.30 322.93 480.19 C 322.96 478.52 321.72 477.12 320.10 476.84 C 319.60 476.66 318.59 476.30 318.09 476.12 C 318.15 474.72 317.53 473.88 316.22 473.62 C 315.69 473.49 314.63 473.21 314.10 473.07 C 314.09 471.67 313.44 470.87 312.14 470.66 C 311.58 470.55 310.47 470.32 309.92 470.21 C 309.96 468.53 308.73 467.11 307.11 466.84 C 306.60 466.67 305.60 466.32 305.09 466.14 C 305.14 464.74 304.51 463.91 303.21 463.65 C 302.67 463.51 301.59 463.22 301.05 463.08 C 301.11 461.73 300.52 460.89 299.27 460.55 C 298.20 460.15 297.14 459.73 296.09 459.31 C 296.12 457.86 295.43 457.00 294.01 456.74 C 293.53 456.57 292.57 456.22 292.09 456.05 C 292.12 454.62 291.47 453.81 290.15 453.61 C 289.59 453.50 288.47 453.29 287.91 453.18 C 287.95 451.52 286.75 450.12 285.17 449.75 C 284.65 449.54 283.60 449.11 283.07 448.90 C 283.01 448.44 282.89 447.52 282.82 447.06 Z" />
</g>
<g id="#2b84b1ff">
<path fill="#2b84b1" opacity="1.00" d=" M 355.01 447.00 C 376.33 447.00 397.64 447.00 418.96 447.00 C 418.98 453.66 418.99 460.32 419.01 467.00 C 397.67 467.00 376.33 467.00 355.00 467.00 C 355.00 460.33 355.01 453.66 355.01 447.00 Z" />
<path fill="#2b84b1" opacity="1.00" d=" M 435.99 447.00 C 462.52 447.05 489.05 446.71 515.57 447.39 C 515.26 453.91 515.08 460.46 514.94 467.00 C 488.62 467.00 462.31 467.00 435.99 467.00 C 435.98 460.33 436.00 453.66 435.99 447.00 Z" />
<path fill="#2b84b1" opacity="1.00" d=" M 531.61 447.12 C 563.55 446.99 595.50 446.75 627.45 447.31 C 622.86 454.19 618.20 461.02 613.64 467.92 C 586.50 466.17 559.28 467.26 532.11 467.00 C 532.04 460.37 531.93 453.73 531.61 447.12 Z" />
</g>
<g id="#6aaacaff">
<path fill="#6aaaca" opacity="1.00" d=" M 259.58 448.84 C 260.78 449.37 260.99 450.13 260.19 451.13 C 259.82 450.90 259.07 450.44 258.70 450.21 C 258.92 449.87 259.36 449.18 259.58 448.84 Z" />
</g>
<g id="#2a83afff">
<path fill="#2a83af" opacity="1.00" d=" M 254.98 456.49 C 256.18 454.37 257.51 452.33 258.70 450.21 C 259.07 450.44 259.82 450.90 260.19 451.13 C 260.85 451.35 262.18 451.81 262.85 452.04 C 262.85 453.47 263.53 454.26 264.87 454.40 C 265.43 454.47 266.56 454.61 267.12 454.68 C 266.99 456.05 267.66 456.84 269.12 457.04 C 269.65 457.18 270.70 457.47 271.23 457.61 C 270.99 458.99 271.61 459.82 273.09 460.10 C 273.59 460.28 274.60 460.62 275.11 460.80 C 275.01 462.48 276.21 463.95 277.88 464.23 C 278.38 464.41 279.38 464.77 279.88 464.95 C 279.84 466.38 280.50 467.19 281.84 467.35 C 282.41 467.43 283.55 467.59 284.13 467.67 C 283.99 469.04 284.66 469.83 286.12 470.04 C 286.68 470.20 287.79 470.52 288.34 470.68 C 287.97 472.02 288.48 472.83 289.85 473.12 C 290.39 473.25 291.45 473.52 291.99 473.66 C 292.10 475.04 292.86 475.84 294.26 476.07 C 295.08 476.68 295.90 477.30 296.73 477.93 C 296.86 479.36 297.63 480.15 299.07 480.29 C 299.65 480.43 300.82 480.72 301.40 480.86 C 301.53 481.46 301.81 482.67 301.94 483.27 C 286.31 482.79 270.67 482.99 255.03 483.00 C 254.87 474.48 254.94 465.96 254.51 457.45 L 254.98 456.49 Z" />
</g>
<g id="#70adcbff">
<path fill="#70adcb" opacity="1.00" d=" M 262.85 452.04 C 264.30 452.24 264.98 453.03 264.87 454.40 C 263.53 454.26 262.85 453.47 262.85 452.04 Z" />
</g>
<g id="#67a8c8ff">
<path fill="#67a8c8" opacity="1.00" d=" M 290.15 453.61 C 291.47 453.81 292.12 454.62 292.09 456.05 C 290.63 455.79 289.98 454.98 290.15 453.61 Z" />
</g>
<g id="#bedae8ff">
<path fill="#bedae8" opacity="1.00" d=" M 267.12 454.68 C 268.44 454.82 269.11 455.61 269.12 457.04 C 267.66 456.84 266.99 456.05 267.12 454.68 Z" />
</g>
<g id="#6ca9c8ff">
<path fill="#6ca9c8" opacity="1.00" d=" M 254.48 456.68 L 254.51 457.45 C 254.94 465.96 254.87 474.48 255.03 483.00 C 255.07 492.48 255.07 501.96 255.24 511.45 C 254.90 511.46 254.22 511.48 253.88 511.49 C 253.92 493.22 254.03 474.94 254.48 456.68 Z" />
<path fill="#6ca9c8" opacity="1.00" d=" M 155.76 496.23 C 156.42 495.22 157.25 494.98 158.25 495.49 C 157.80 497.06 156.97 497.31 155.76 496.23 Z" />
</g>
<g id="#5ca1c4ff">
<path fill="#5ca1c4" opacity="1.00" d=" M 294.01 456.74 C 295.43 457.00 296.12 457.86 296.09 459.31 C 294.72 458.99 294.03 458.13 294.01 456.74 Z" />
</g>
<g id="#c6deebff">
<path fill="#c6deeb" opacity="1.00" d=" M 271.23 457.61 C 272.53 457.87 273.15 458.70 273.09 460.10 C 271.61 459.82 270.99 458.99 271.23 457.61 Z" />
</g>
<g id="#99c4daff">
<path fill="#99c4da" opacity="1.00" d=" M 275.11 460.80 C 276.78 461.04 277.99 462.53 277.88 464.23 C 276.21 463.95 275.01 462.48 275.11 460.80 Z" />
</g>
<g id="#70accbff">
<path fill="#70accb" opacity="1.00" d=" M 299.27 460.55 C 300.52 460.89 301.11 461.73 301.05 463.08 C 299.55 462.81 298.95 461.97 299.27 460.55 Z" />
</g>
<g id="#65a6c7ff">
<path fill="#65a6c7" opacity="1.00" d=" M 303.21 463.65 C 304.51 463.91 305.14 464.74 305.09 466.14 C 303.61 465.86 302.99 465.03 303.21 463.65 Z" />
</g>
<g id="#6faccaff">
<path fill="#6facca" opacity="1.00" d=" M 279.88 464.95 C 281.32 465.19 281.98 465.99 281.84 467.35 C 280.50 467.19 279.84 466.38 279.88 464.95 Z" />
</g>
<g id="#4493baff">
<path fill="#4493ba" opacity="1.00" d=" M 116.13 467.02 C 116.50 466.91 117.24 466.69 117.61 466.58 C 131.08 466.69 144.54 467.14 158.01 467.04 C 157.94 472.36 157.98 477.65 158.00 482.97 C 141.01 482.75 123.83 484.24 106.96 481.71 C 110.04 476.82 113.01 471.87 116.13 467.02 Z" />
<path fill="#4493ba" opacity="1.00" d=" M 694.85 466.35 C 721.20 467.60 747.58 466.81 773.95 466.99 C 773.96 472.32 774.04 477.63 774.26 482.97 C 751.14 482.81 727.98 483.83 704.92 482.01 C 701.54 476.80 698.22 471.56 694.85 466.35 Z" />
</g>
<g id="#2982aeff">
<path fill="#2982ae" opacity="1.00" d=" M 1.03 468.04 C 21.33 467.97 41.64 468.04 61.94 467.76 C 61.97 473.18 61.92 478.58 61.96 484.02 C 41.69 483.96 21.42 483.97 1.15 484.05 C 0.78 488.21 0.30 492.40 0.00 496.59 L 0.00 476.62 C 0.28 473.79 0.70 470.82 1.03 468.04 Z" />
<path fill="#2982ae" opacity="1.00" d=" M 355.00 467.00 C 376.33 467.00 397.67 467.00 419.01 467.00 C 419.01 472.66 419.01 478.32 419.01 484.00 C 397.67 484.00 376.33 484.00 354.99 484.00 C 354.97 478.32 354.98 472.66 355.00 467.00 Z" />
<path fill="#2982ae" opacity="1.00" d=" M 435.99 467.00 C 462.31 467.00 488.62 467.00 514.94 467.00 C 514.95 472.32 515.01 477.67 515.02 483.00 C 488.68 483.00 462.35 483.00 436.03 483.00 C 436.09 477.67 435.99 472.32 435.99 467.00 Z" />
<path fill="#2982ae" opacity="1.00" d=" M 532.11 467.00 C 559.28 467.26 586.50 466.17 613.64 467.92 C 611.73 470.88 609.89 473.88 608.04 476.89 C 606.59 477.14 605.93 477.93 606.05 479.28 L 606.12 480.13 C 604.71 480.25 604.12 481.01 604.37 482.41 L 603.66 482.53 C 602.28 482.67 601.70 483.42 601.91 484.78 L 601.98 485.45 L 601.21 485.35 C 578.24 482.80 555.09 484.31 532.04 484.02 C 532.13 478.34 532.11 472.67 532.11 467.00 Z" />
</g>
<g id="#2981aeff">
<path fill="#2981ae" opacity="1.00" d=" M 78.95 467.62 C 91.34 467.07 103.73 467.25 116.13 467.02 C 113.01 471.87 110.04 476.82 106.96 481.71 C 103.20 487.46 99.32 493.14 95.68 498.99 C 94.12 498.98 92.56 498.98 91.00 498.97 C 87.62 498.93 83.51 499.44 81.21 496.42 C 80.56 495.42 79.74 495.14 78.73 495.58 C 78.95 486.26 79.00 476.94 78.95 467.62 Z" />
<path fill="#2981ae" opacity="1.00" d=" M 631.14 467.83 C 642.99 466.84 655.76 465.05 666.91 469.92 C 667.98 471.48 668.98 473.09 669.98 474.71 C 669.92 476.17 670.61 477.04 672.05 477.34 C 674.29 481.22 676.54 485.08 678.76 488.99 C 679.12 490.44 679.99 491.03 681.36 490.76 C 681.85 492.18 682.40 493.59 683.03 494.97 C 675.18 488.19 663.38 491.73 653.98 490.66 C 644.54 489.32 636.01 493.42 628.45 498.50 C 622.85 498.53 617.27 498.60 611.70 498.80 C 618.26 488.53 624.42 478.00 631.14 467.83 Z" />
</g>
<g id="#4493bafe">
<path fill="#4493ba" opacity="1.00" d=" M 175.10 467.00 C 196.06 467.00 217.02 467.00 237.98 467.00 C 238.05 472.22 238.37 477.41 238.63 482.64 C 217.43 483.19 196.22 483.00 175.02 483.01 C 175.15 477.67 175.08 472.32 175.10 467.00 Z" />
</g>
<g id="#8ebdd5ff">
<path fill="#8ebdd5" opacity="1.00" d=" M 307.11 466.84 C 308.73 467.11 309.96 468.53 309.92 470.21 C 308.17 470.13 307.04 468.49 307.11 466.84 Z" />
</g>
<g id="#bed9e7ff">
<path fill="#bed9e7" opacity="1.00" d=" M 284.13 467.67 C 285.45 467.82 286.11 468.61 286.12 470.04 C 284.66 469.83 283.99 469.04 284.13 467.67 Z" />
</g>
<g id="#c5deeaff">
<path fill="#c5deea" opacity="1.00" d=" M 288.34 470.68 C 289.72 470.97 290.22 471.78 289.85 473.12 C 288.48 472.83 287.97 472.02 288.34 470.68 Z" />
</g>
<g id="#6daac9ff">
<path fill="#6daac9" opacity="1.00" d=" M 312.14 470.66 C 313.44 470.87 314.09 471.67 314.10 473.07 C 312.61 472.86 311.96 472.06 312.14 470.66 Z" />
<path fill="#6daac9" opacity="1.00" d=" M 296.73 477.93 C 298.13 478.10 298.91 478.89 299.07 480.29 C 297.63 480.15 296.86 479.36 296.73 477.93 Z" />
</g>
<g id="#cde2edff">
<path fill="#cde2ed" opacity="1.00" d=" M 291.99 473.66 C 293.41 473.81 294.17 474.61 294.26 476.07 C 292.86 475.84 292.10 475.04 291.99 473.66 Z" />
<path fill="#cde2ed" opacity="1.00" d=" M 78.73 495.58 C 79.74 495.14 80.56 495.42 81.21 496.42 C 79.91 497.46 79.09 497.18 78.73 495.58 Z" />
</g>
<g id="#62a3c5ff">
<path fill="#62a3c5" opacity="1.00" d=" M 316.22 473.62 C 317.53 473.88 318.15 474.72 318.09 476.12 C 316.62 475.83 315.99 475.00 316.22 473.62 Z" />
</g>
<g id="#6eabc9ff">
<path fill="#6eabc9" opacity="1.00" d=" M 669.98 474.71 C 671.31 475.07 672.00 475.94 672.05 477.34 C 670.61 477.04 669.92 476.17 669.98 474.71 Z" />
</g>
<g id="#8bbcd4ff">
<path fill="#8bbcd4" opacity="1.00" d=" M 320.10 476.84 C 321.72 477.12 322.96 478.52 322.93 480.19 C 321.17 480.14 320.03 478.49 320.10 476.84 Z" />
</g>
<g id="#b8d6e5ff">
<path fill="#b8d6e5" opacity="1.00" d=" M 606.05 479.28 C 605.93 477.93 606.59 477.14 608.04 476.89 C 608.05 478.35 607.38 479.15 606.05 479.28 Z" />
</g>
<g id="#b7d6e5ff">
<path fill="#b7d6e5" opacity="1.00" d=" M 604.37 482.41 C 604.12 481.01 604.71 480.25 606.12 480.13 C 606.31 481.49 605.73 482.25 604.37 482.41 Z" />
</g>
<g id="#4291b8ff">
<path fill="#4291b8" opacity="1.00" d=" M 95.68 498.99 C 99.32 493.14 103.20 487.46 106.96 481.71 C 123.83 484.24 141.01 482.75 158.00 482.97 C 158.03 486.76 158.13 490.49 158.22 494.30 L 158.25 495.49 C 157.25 494.98 156.42 495.22 155.76 496.23 C 153.54 499.23 149.62 499.10 146.22 499.26 C 129.37 499.11 112.53 498.89 95.68 498.99 Z" />
<path fill="#4291b8" opacity="1.00" d=" M 704.92 482.01 C 727.98 483.83 751.14 482.81 774.26 482.97 C 774.43 485.69 774.64 488.42 774.88 491.16 C 774.72 492.45 774.57 493.75 774.42 495.06 C 754.20 495.03 733.96 494.51 713.77 495.66 C 710.80 491.12 707.83 486.57 704.92 482.01 Z" />
</g>
<g id="#bdd9e7ff">
<path fill="#bdd9e7" opacity="1.00" d=" M 301.40 480.86 C 302.76 481.16 303.19 481.97 302.69 483.30 L 301.94 483.27 C 301.81 482.67 301.53 481.46 301.40 480.86 Z" />
</g>
<g id="#6aa9c8ff">
<path fill="#6aa9c8" opacity="1.00" d=" M 325.14 480.63 C 326.46 480.82 327.11 481.63 327.09 483.05 C 325.62 482.81 324.97 482.00 325.14 480.63 Z" />
</g>
<g id="#2a81adff">
<path fill="#2a81ad" opacity="1.00" d=" M 692.46 482.51 C 696.59 482.26 700.75 482.07 704.92 482.01 C 707.83 486.57 710.80 491.12 713.77 495.66 C 717.17 501.03 720.54 506.43 723.97 511.81 C 719.67 511.73 715.37 511.69 711.10 511.71 C 709.13 508.25 707.10 504.78 705.15 501.33 C 705.25 499.90 704.62 499.00 703.27 498.63 L 702.73 498.39 C 702.85 496.99 702.23 496.08 700.89 495.66 C 698.13 491.25 695.31 486.85 692.46 482.51 Z" />
</g>
<g id="#4290b8ff">
<path fill="#4290b8" opacity="1.00" d=" M 175.02 483.01 C 196.22 483.00 217.43 483.19 238.63 482.64 L 238.07 483.60 C 234.79 488.78 231.36 493.86 227.96 498.97 C 209.98 499.00 192.00 499.03 174.02 498.98 C 174.07 498.55 174.17 497.69 174.21 497.26 C 174.66 492.52 174.79 487.74 175.02 483.01 Z" />
</g>
<g id="#5a9ec1ff">
<path fill="#5a9ec1" opacity="1.00" d=" M 238.63 482.64 L 238.66 483.34 C 238.92 492.75 239.02 502.17 239.19 511.59 C 238.82 511.59 238.06 511.58 237.69 511.58 C 237.82 502.25 237.75 492.92 238.07 483.60 L 238.63 482.64 Z" />
</g>
<g id="#277eabff">
<path fill="#277eab" opacity="1.00" d=" M 255.03 483.00 C 270.67 482.99 286.31 482.79 301.94 483.27 L 302.69 483.30 C 303.32 483.36 304.56 483.46 305.18 483.52 C 305.05 484.85 305.70 485.66 307.12 485.95 C 307.63 486.14 308.64 486.54 309.15 486.74 C 309.00 488.43 310.18 489.96 311.87 490.24 C 312.37 490.42 313.38 490.77 313.88 490.95 C 313.84 492.39 314.50 493.19 315.84 493.36 C 316.41 493.44 317.55 493.60 318.12 493.68 C 317.99 495.06 318.66 495.85 320.12 496.05 C 320.65 496.19 321.70 496.47 322.23 496.61 C 321.99 497.99 322.61 498.82 324.09 499.10 C 324.59 499.28 325.60 499.62 326.11 499.79 C 326.01 501.47 327.21 502.95 328.88 503.24 C 329.38 503.41 330.38 503.77 330.88 503.95 C 330.84 505.39 331.50 506.19 332.84 506.36 C 333.41 506.43 334.55 506.58 335.12 506.66 C 335.00 508.04 335.68 508.81 337.16 508.99 C 337.73 509.13 338.85 509.42 339.42 509.57 C 339.57 510.16 339.88 511.33 340.03 511.92 C 311.79 510.46 283.50 510.73 255.24 511.45 C 255.07 501.96 255.07 492.48 255.03 483.00 Z" />
</g>
<g id="#2880acff">
<path fill="#2880ac" opacity="1.00" d=" M 436.03 483.00 C 462.35 483.00 488.68 483.00 515.02 483.00 C 514.95 486.01 514.97 489.10 514.93 492.15 C 514.59 492.31 513.92 492.65 513.58 492.81 C 512.31 493.25 511.44 494.29 510.69 495.35 C 507.98 499.44 502.51 498.90 498.20 499.26 C 477.33 499.05 456.47 498.71 435.62 499.27 C 435.86 493.85 435.91 488.41 436.03 483.00 Z" />
</g>
<g id="#6fabc9ff">
<path fill="#6fabc9" opacity="1.00" d=" M 601.91 484.78 C 601.70 483.42 602.28 482.67 603.66 482.53 C 603.89 483.92 603.31 484.67 601.91 484.78 Z" />
</g>
<g id="#267eabff">
<path fill="#267eab" opacity="1.00" d=" M 1.15 484.05 C 21.42 483.97 41.69 483.96 61.96 484.02 C 62.09 488.43 62.45 492.83 62.85 497.25 C 64.03 506.24 74.54 509.52 81.95 511.55 C 82.96 512.39 84.03 512.51 85.15 511.90 L 86.09 512.34 C 85.64 513.05 85.18 513.78 84.73 514.51 C 56.93 511.46 28.91 513.52 1.02 513.04 C 0.69 515.81 0.28 518.79 0.00 521.62 L 0.00 496.59 C 0.30 492.40 0.78 488.21 1.15 484.05 Z" />
<path fill="#267eab" opacity="1.00" d=" M 227.96 498.97 C 231.36 493.86 234.79 488.78 238.07 483.60 C 237.75 492.92 237.82 502.25 237.69 511.58 C 231.47 511.70 225.26 511.92 219.08 512.58 C 222.01 508.02 224.97 503.49 227.96 498.97 Z" />
<path fill="#267eab" opacity="1.00" d=" M 354.99 484.00 C 376.33 484.00 397.67 484.00 419.01 484.00 C 418.98 493.18 418.88 502.37 418.73 511.57 C 397.59 510.68 376.41 510.69 355.26 511.45 C 355.10 502.29 355.01 493.14 354.99 484.00 Z" />
</g>
<g id="#c4ddeaff">
<path fill="#c4ddea" opacity="1.00" d=" M 305.18 483.52 C 306.53 483.65 307.17 484.46 307.12 485.95 C 305.70 485.66 305.05 484.85 305.18 483.52 Z" />
</g>
<g id="#5fa1c3ff">
<path fill="#5fa1c3" opacity="1.00" d=" M 328.98 483.68 C 330.38 483.85 331.15 484.64 331.29 486.06 C 329.87 485.88 329.09 485.09 328.98 483.68 Z" />
</g>
<g id="#277facff">
<path fill="#277fac" opacity="1.00" d=" M 532.04 484.02 C 555.09 484.31 578.24 482.80 601.21 485.35 C 600.95 485.98 600.42 487.24 600.16 487.87 L 600.03 488.57 C 598.59 488.78 597.88 489.60 597.91 491.04 L 597.85 491.68 C 596.44 492.06 595.84 492.97 596.03 494.43 C 592.46 500.24 588.72 505.93 585.09 511.70 C 561.00 510.69 536.88 510.89 512.78 510.89 C 516.23 509.45 519.76 508.03 522.83 505.86 C 524.70 504.38 526.35 502.63 527.83 500.75 C 529.54 498.59 530.80 496.02 531.23 493.28 C 531.71 490.22 531.80 487.07 532.04 484.02 Z" />
</g>
<g id="#6ea9c8ff">
<path fill="#6ea9c8" opacity="1.00" d=" M 600.16 487.87 C 600.42 487.24 600.95 485.98 601.21 485.35 L 601.98 485.45 C 602.14 486.74 601.53 487.55 600.16 487.87 Z" />
</g>
<g id="#98c3d8ff">
<path fill="#98c3d8" opacity="1.00" d=" M 309.15 486.74 C 310.78 487.07 311.97 488.54 311.87 490.24 C 310.18 489.96 309.00 488.43 309.15 486.74 Z" />
</g>
<g id="#bbd7e6ff">
<path fill="#bbd7e6" opacity="1.00" d=" M 333.59 488.04 C 334.96 487.93 335.91 488.51 336.46 489.78 C 335.00 490.03 334.04 489.44 333.59 488.04 Z" />
</g>
<g id="#6da9c8ff">
<path fill="#6da9c8" opacity="1.00" d=" M 597.91 491.04 C 597.88 489.60 598.59 488.78 600.03 488.57 C 599.97 489.95 599.27 490.78 597.91 491.04 Z" />
</g>
<g id="#b7d5e4ff">
<path fill="#b7d5e4" opacity="1.00" d=" M 678.76 488.99 C 680.14 488.86 681.01 489.45 681.36 490.76 C 679.99 491.03 679.12 490.44 678.76 488.99 Z" />
</g>
<g id="#6ca8c7ff">
<path fill="#6ca8c7" opacity="1.00" d=" M 313.88 490.95 C 315.32 491.19 315.97 491.99 315.84 493.36 C 314.50 493.19 313.84 492.39 313.88 490.95 Z" />
</g>
<g id="#277fabff">
<path fill="#277fab" opacity="1.00" d=" M 628.45 498.50 C 636.01 493.42 644.54 489.32 653.98 490.66 C 663.38 491.73 675.18 488.19 683.03 494.97 C 686.61 500.59 690.22 506.18 693.96 511.71 C 683.67 511.36 673.37 511.07 663.08 511.45 C 660.73 507.58 658.41 503.68 656.06 499.82 C 646.86 499.24 637.65 498.75 628.45 498.50 Z" />
</g>
<g id="#4f96bbff">
<path fill="#4f96bb" opacity="1.00" d=" M 774.88 491.16 L 775.00 490.08 L 775.00 589.13 L 774.83 590.27 L 774.75 589.32 C 773.72 575.27 773.90 561.18 773.98 547.11 C 774.00 539.06 774.01 531.02 773.97 522.98 C 773.92 513.67 773.79 504.35 774.42 495.06 C 774.57 493.75 774.72 492.45 774.88 491.16 Z" />
</g>
<g id="#6ba8c7ff">
<path fill="#6ba8c7" opacity="1.00" d=" M 596.03 494.43 C 595.84 492.97 596.44 492.06 597.85 491.68 C 597.94 493.05 597.33 493.97 596.03 494.43 Z" />
<path fill="#6ba8c7" opacity="1.00" d=" M 330.88 503.95 C 332.32 504.19 332.97 504.99 332.84 506.36 C 331.50 506.19 330.84 505.39 330.88 503.95 Z" />
</g>
<g id="#579cbfff">
<path fill="#579cbf" opacity="1.00" d=" M 510.69 495.35 C 511.44 494.29 512.31 493.25 513.58 492.81 C 514.78 494.36 512.09 496.67 510.69 495.35 Z" />
</g>
<g id="#bcd8e6ff">
<path fill="#bcd8e6" opacity="1.00" d=" M 318.12 493.68 C 319.44 493.83 320.11 494.62 320.12 496.05 C 318.66 495.85 317.99 495.06 318.12 493.68 Z" />
</g>
<g id="#408eb6ff">
<path fill="#408eb6" opacity="1.00" d=" M 713.77 495.66 C 733.96 494.51 754.20 495.03 774.42 495.06 C 773.79 504.35 773.92 513.67 773.97 522.98 C 759.80 522.96 745.64 522.99 731.49 523.35 C 731.01 522.62 730.54 521.91 730.08 521.20 C 728.03 518.07 725.99 514.95 723.97 511.81 C 720.54 506.43 717.17 501.03 713.77 495.66 Z" />
<path fill="#408eb6" opacity="1.00" d=" M 174.02 498.98 C 192.00 499.03 209.98 499.00 227.96 498.97 C 224.97 503.49 222.01 508.02 219.08 512.58 C 217.33 515.40 215.68 518.28 214.09 521.20 C 199.86 523.58 185.36 523.11 171.00 523.08 C 140.52 522.79 110.04 523.32 79.57 522.72 C 81.30 519.98 83.02 517.24 84.73 514.51 C 85.18 513.78 85.64 513.05 86.09 512.34 C 86.82 512.20 88.29 511.93 89.02 511.80 C 108.97 512.13 128.93 512.07 148.89 511.83 C 150.64 512.57 152.61 512.43 154.20 511.37 C 158.86 510.06 163.51 508.71 168.11 507.23 C 170.23 506.87 171.92 505.35 172.39 503.24 C 172.95 501.82 173.52 500.41 174.02 498.98 Z" />
</g>
<g id="#b8d5e4ff">
<path fill="#b8d5e4" opacity="1.00" d=" M 700.89 495.66 C 702.23 496.08 702.85 496.99 702.73 498.39 C 701.36 498.00 700.74 497.09 700.89 495.66 Z" />
</g>
<g id="#c4dce9ff">
<path fill="#c4dce9" opacity="1.00" d=" M 322.23 496.61 C 323.53 496.87 324.15 497.70 324.09 499.10 C 322.61 498.82 321.99 497.99 322.23 496.61 Z" />
<path fill="#c4dce9" opacity="1.00" d=" M 84.99 511.13 C 86.37 510.59 87.84 510.98 89.02 511.80 C 88.29 511.93 86.82 512.20 86.09 512.34 L 85.15 511.90 L 84.99 511.13 Z" />
</g>
<g id="#e3eff5ff">
<path fill="#e3eff5" opacity="1.00" d=" M 91.00 498.97 C 92.56 498.98 94.12 498.98 95.68 498.99 C 112.53 498.89 129.37 499.11 146.22 499.26 C 127.85 500.58 109.42 499.91 91.02 499.99 L 91.00 498.97 Z" />
</g>
<g id="#e2eff5ff">
<path fill="#e2eff5" opacity="1.00" d=" M 435.62 499.27 C 456.47 498.71 477.33 499.05 498.20 499.26 C 477.36 500.38 456.44 500.62 435.62 499.27 Z" />
</g>
<g id="#d6e7f0ff">
<path fill="#d6e7f0" opacity="1.00" d=" M 610.80 500.05 C 611.03 499.73 611.48 499.11 611.70 498.80 C 617.27 498.60 622.85 498.53 628.45 498.50 C 637.65 498.75 646.86 499.24 656.06 499.82 C 640.97 500.10 625.88 500.01 610.80 500.05 Z" />
<path fill="#d6e7f0" opacity="1.00" d=" M 499.07 511.93 C 500.12 510.89 501.63 510.35 503.08 510.89 L 503.04 511.64 C 501.75 512.18 500.43 512.28 499.07 511.93 Z" />
</g>
<g id="#6da8c7ff">
<path fill="#6da8c7" opacity="1.00" d=" M 703.27 498.63 C 704.62 499.00 705.25 499.90 705.15 501.33 C 703.77 500.93 703.15 500.03 703.27 498.63 Z" />
</g>
<g id="#97c2d7ff">
<path fill="#97c2d7" opacity="1.00" d=" M 326.11 499.79 C 327.78 500.04 328.99 501.54 328.88 503.24 C 327.21 502.95 326.01 501.47 326.11 499.79 Z" />
</g>
<g id="#b2d1e2ff">
<path fill="#b2d1e2" opacity="1.00" d=" M 522.83 505.86 C 524.56 504.22 526.22 502.51 527.83 500.75 C 526.35 502.63 524.70 504.38 522.83 505.86 Z" />
</g>
<g id="#6da9c8fe">
<path fill="#6da9c8" opacity="1.00" d=" M 168.11 507.23 C 168.58 505.13 170.26 503.55 172.39 503.24 C 171.92 505.35 170.23 506.87 168.11 507.23 Z" />
</g>
<g id="#bcd7e5ff">
<path fill="#bcd7e5" opacity="1.00" d=" M 335.12 506.66 C 336.44 506.79 337.12 507.56 337.16 508.99 C 335.68 508.81 335.00 508.04 335.12 506.66 Z" />
</g>
<g id="#c4dce8ff">
<path fill="#c4dce8" opacity="1.00" d=" M 339.42 509.57 C 340.78 509.83 341.24 510.61 340.80 511.92 L 340.03 511.92 C 339.88 511.33 339.57 510.16 339.42 509.57 Z" />
</g>
<g id="#77aecbff">
<path fill="#77aecb" opacity="1.00" d=" M 81.95 511.55 C 82.71 511.44 84.23 511.23 84.99 511.13 L 85.15 511.90 C 84.03 512.51 82.96 512.39 81.95 511.55 Z" />
</g>
<g id="#b3d2e3ff">
<path fill="#b3d2e3" opacity="1.00" d=" M 148.89 511.83 C 150.44 510.65 152.46 510.52 154.20 511.37 C 152.61 512.43 150.64 512.57 148.89 511.83 Z" />
</g>
<g id="#257ca9ff">
<path fill="#257ca9" opacity="1.00" d=" M 219.08 512.58 C 225.26 511.92 231.47 511.70 237.69 511.58 C 238.06 511.58 238.82 511.59 239.19 511.59 C 244.09 511.68 248.98 511.56 253.88 511.49 C 254.22 511.48 254.90 511.46 255.24 511.45 C 283.50 510.73 311.79 510.46 340.03 511.92 L 340.80 511.92 C 345.15 511.85 349.49 511.66 353.85 511.51 C 354.20 511.50 354.91 511.46 355.26 511.45 C 376.41 510.69 397.59 510.68 418.73 511.57 C 419.09 511.58 419.79 511.62 420.15 511.63 C 446.44 512.41 472.76 511.89 499.07 511.93 C 500.43 512.28 501.75 512.18 503.04 511.64 C 503.72 511.75 505.09 511.98 505.77 512.09 C 508.10 511.67 510.44 511.27 512.78 510.89 C 536.88 510.89 561.00 510.69 585.09 511.70 C 611.08 512.19 637.09 512.37 663.08 511.45 C 673.37 511.07 683.67 511.36 693.96 511.71 C 699.66 511.78 705.37 511.75 711.10 511.71 C 715.37 511.69 719.67 511.73 723.97 511.81 C 725.99 514.95 728.03 518.07 730.08 521.20 C 558.08 520.87 386.08 520.86 214.09 521.20 C 215.68 518.28 217.33 515.40 219.08 512.58 Z" />
</g>
<g id="#9cc4d9ff">
<path fill="#9cc4d9" opacity="1.00" d=" M 503.08 510.89 C 504.42 510.48 505.32 510.88 505.77 512.09 C 505.09 511.98 503.72 511.75 503.04 511.64 L 503.08 510.89 Z" />
</g>
<g id="#247ba8ff">
<path fill="#247ba8" opacity="1.00" d=" M 1.02 513.04 C 28.91 513.52 56.93 511.46 84.73 514.51 C 83.02 517.24 81.30 519.98 79.57 522.72 C 77.37 526.04 75.03 529.27 72.81 532.59 C 49.02 529.61 24.99 531.34 1.09 531.06 C 0.71 536.19 0.34 541.34 -0.00 546.50 L 0.00 521.62 C 0.28 518.79 0.69 515.81 1.02 513.04 Z" />
</g>
<g id="#3e8bb3ff">
<path fill="#3e8bb3" opacity="1.00" d=" M 171.00 523.08 C 185.36 523.11 199.86 523.58 214.09 521.20 L 214.03 521.83 C 212.68 522.09 211.97 522.93 211.90 524.33 C 209.58 527.87 207.32 531.45 204.97 534.98 C 202.44 538.63 200.13 542.43 197.75 546.18 C 153.36 547.93 108.92 546.68 64.51 546.90 C 64.97 545.83 65.44 544.77 65.93 543.73 C 68.17 539.97 70.41 536.23 72.81 532.59 C 75.03 529.27 77.37 526.04 79.57 522.72 C 110.04 523.32 140.52 522.79 171.00 523.08 Z" />
</g>
<g id="#247ba7ff">
<path fill="#247ba7" opacity="1.00" d=" M 214.09 521.20 C 386.08 520.86 558.08 520.87 730.08 521.20 C 730.54 521.91 731.01 522.62 731.49 523.35 C 733.30 526.17 735.08 529.01 736.91 531.82 C 727.95 531.27 718.97 531.01 710.00 530.96 C 546.65 531.02 383.30 531.03 219.95 530.95 C 214.67 530.90 208.80 530.81 204.97 534.98 C 207.32 531.45 209.58 527.87 211.90 524.33 C 213.34 524.10 214.05 523.26 214.03 521.83 L 214.09 521.20 Z" />
</g>
<g id="#277ca9ff">
<path fill="#277ca9" opacity="1.00" d=" M 211.90 524.33 C 211.97 522.93 212.68 522.09 214.03 521.83 C 214.05 523.26 213.34 524.10 211.90 524.33 Z" />
</g>
<g id="#3e8bb4ff">
<path fill="#3e8bb4" opacity="1.00" d=" M 731.49 523.35 C 745.64 522.99 759.80 522.96 773.97 522.98 C 774.01 531.02 774.00 539.06 773.98 547.11 C 764.68 546.94 755.39 546.70 746.11 546.18 C 742.99 541.42 740.01 536.59 736.91 531.82 C 735.08 529.01 733.30 526.17 731.49 523.35 Z" />
</g>
<g id="#2278a4ff">
<path fill="#2278a4" opacity="1.00" d=" M 1.09 531.06 C 24.99 531.34 49.02 529.61 72.81 532.59 C 70.41 536.23 68.17 539.97 65.93 543.73 C 61.93 549.67 57.66 555.43 53.67 561.39 C 36.19 560.60 18.69 560.97 1.21 561.08 C 0.81 564.22 0.32 567.47 0.00 570.65 L 0.00 546.50 C 0.34 541.34 0.71 536.19 1.09 531.06 Z" />
</g>
<g id="#2379a5ff">
<path fill="#2379a5" opacity="1.00" d=" M 204.97 534.98 C 208.80 530.81 214.67 530.90 219.95 530.95 C 383.30 531.03 546.65 531.02 710.00 530.96 C 718.97 531.01 727.95 531.27 736.91 531.82 C 740.01 536.59 742.99 541.42 746.11 546.18 C 746.65 547.01 747.20 547.84 747.75 548.69 C 725.30 545.52 702.57 547.41 680.00 547.01 C 628.18 547.38 576.35 546.17 524.55 547.69 C 415.43 548.42 306.30 547.80 197.17 548.00 C 197.32 547.54 197.60 546.63 197.75 546.18 C 200.13 542.43 202.44 538.63 204.97 534.98 Z" />
</g>
<g id="#3c88b0ff">
<path fill="#3c88b0" opacity="1.00" d=" M 53.67 561.39 C 57.66 555.43 61.93 549.67 65.93 543.73 C 65.44 544.77 64.97 545.83 64.51 546.90 C 108.92 546.68 153.36 547.93 197.75 546.18 C 197.60 546.63 197.32 547.54 197.17 548.00 C 306.30 547.80 415.43 548.42 524.55 547.69 C 527.31 552.34 530.12 557.01 533.10 561.54 C 534.15 563.20 535.20 564.87 536.27 566.54 C 522.57 568.21 508.76 568.17 495.00 568.09 C 346.51 567.71 198.02 568.39 49.53 567.75 C 50.92 565.63 52.28 563.50 53.67 561.39 Z" />
</g>
<g id="#3b87afff">
<path fill="#3b87af" opacity="1.00" d=" M 746.11 546.18 C 755.39 546.70 764.68 546.94 773.98 547.11 C 773.90 561.18 773.72 575.27 774.75 589.32 C 772.52 586.13 770.24 583.01 767.94 579.90 C 764.00 574.31 760.46 568.44 756.80 562.68 C 753.78 558.00 750.72 553.38 747.75 548.69 C 747.20 547.84 746.65 547.01 746.11 546.18 Z" />
</g>
<g id="#2176a3ff">
<path fill="#2176a3" opacity="1.00" d=" M 524.55 547.69 C 576.35 546.17 628.18 547.38 680.00 547.01 C 702.57 547.41 725.30 545.52 747.75 548.69 C 750.72 553.38 753.78 558.00 756.80 562.68 C 747.60 561.27 738.28 560.93 729.00 560.87 C 669.00 561.10 608.99 561.02 548.98 560.91 C 543.67 561.01 538.37 560.82 533.10 561.54 C 530.12 557.01 527.31 552.34 524.55 547.69 Z" />
</g>
<g id="#2073a0ff">
<path fill="#2073a0" opacity="1.00" d=" M 1.21 561.08 C 18.69 560.97 36.19 560.60 53.67 561.39 C 52.28 563.50 50.92 565.63 49.53 567.75 C 46.29 572.68 43.01 577.60 39.72 582.51 C 37.70 585.58 35.67 588.62 33.59 591.68 C 33.36 592.00 32.91 592.65 32.69 592.98 C 22.17 592.28 11.62 591.98 1.08 591.86 C 0.74 594.67 0.29 597.74 0.00 600.63 L 0.00 570.65 C 0.32 567.47 0.81 564.22 1.21 561.08 Z" />
</g>
<g id="#2074a1ff">
<path fill="#2074a1" opacity="1.00" d=" M 533.10 561.54 C 538.37 560.82 543.67 561.01 548.98 560.91 C 608.99 561.02 669.00 561.10 729.00 560.87 C 738.28 560.93 747.60 561.27 756.80 562.68 C 760.46 568.44 764.00 574.31 767.94 579.90 C 762.47 577.06 756.02 577.18 750.04 576.93 C 680.91 576.67 611.75 577.75 542.63 576.42 C 540.57 573.08 538.39 569.82 536.27 566.54 C 535.20 564.87 534.15 563.20 533.10 561.54 Z" />
</g>
<g id="#3a86aefe">
<path fill="#3a86ae" opacity="1.00" d=" M 495.00 568.09 C 508.76 568.17 522.57 568.21 536.27 566.54 C 538.39 569.82 540.57 573.08 542.63 576.42 C 543.48 577.83 544.32 579.25 545.14 580.70 C 545.63 581.75 546.11 582.82 546.58 583.90 C 394.72 584.16 242.86 583.88 91.00 584.03 C 73.90 584.06 56.73 584.63 39.72 582.51 C 43.01 577.60 46.29 572.68 49.53 567.75 C 198.02 568.39 346.51 567.71 495.00 568.09 Z" />
</g>
<g id="#1f729fff">
<path fill="#1f729f" opacity="1.00" d=" M 542.63 576.42 C 611.75 577.75 680.91 576.67 750.04 576.93 C 756.02 577.18 762.47 577.06 767.94 579.90 C 770.24 583.01 772.52 586.13 774.75 589.32 L 774.83 590.27 C 774.77 590.74 774.63 591.69 774.57 592.16 C 710.71 591.79 646.85 592.16 583.00 591.92 C 573.04 592.00 563.06 591.91 553.15 592.81 C 552.95 592.52 552.57 591.93 552.38 591.63 C 549.96 587.96 547.49 584.39 545.14 580.70 C 544.32 579.25 543.48 577.83 542.63 576.42 Z" />
</g>
<g id="#3984acff">
<path fill="#3984ac" opacity="1.00" d=" M 545.14 580.70 C 547.49 584.39 549.96 587.96 552.38 591.63 C 466.92 592.48 381.46 591.76 296.00 592.00 C 208.53 591.79 121.05 592.42 33.59 591.68 C 35.67 588.62 37.70 585.58 39.72 582.51 C 56.73 584.63 73.90 584.06 91.00 584.03 C 242.86 583.88 394.72 584.16 546.58 583.90 C 546.11 582.82 545.63 581.75 545.14 580.70 Z" />
</g>
<g id="#347fa7ff">
<path fill="#347fa7" opacity="1.00" d=" M 774.83 590.27 L 775.00 589.13 L 775.00 642.00 L 774.00 642.00 C 773.94 638.62 774.02 635.34 774.00 632.00 C 773.97 626.64 773.97 621.33 773.94 616.00 C 773.98 608.04 773.84 600.08 774.57 592.16 C 774.63 591.69 774.77 590.74 774.83 590.27 Z" />
</g>
<g id="#1d6f9cff">
<path fill="#1d6f9c" opacity="1.00" d=" M 1.08 591.86 C 11.62 591.98 22.17 592.28 32.69 592.98 C 31.44 594.80 30.26 596.67 29.07 598.54 C 23.47 606.87 18.09 615.35 12.59 623.75 C 11.07 626.06 9.56 628.37 8.04 630.67 C 5.52 634.37 3.02 638.10 0.46 641.79 L 0.00 642.45 L 0.00 600.63 C 0.29 597.74 0.74 594.67 1.08 591.86 Z" />
</g>
<g id="#3883abff">
<path fill="#3883ab" opacity="1.00" d=" M 32.69 592.98 C 32.91 592.65 33.36 592.00 33.59 591.68 C 121.05 592.42 208.53 591.79 296.00 592.00 C 381.46 591.76 466.92 592.48 552.38 591.63 C 552.57 591.93 552.95 592.52 553.15 592.81 C 554.60 595.09 556.01 597.40 557.45 599.69 C 390.31 600.49 223.15 599.64 56.00 600.12 C 47.00 600.07 38.00 599.70 29.07 598.54 C 30.26 596.67 31.44 594.80 32.69 592.98 Z" />
</g>
<g id="#1d709cff">
<path fill="#1d709c" opacity="1.00" d=" M 553.15 592.81 C 563.06 591.91 573.04 592.00 583.00 591.92 C 646.85 592.16 710.71 591.79 774.57 592.16 C 773.84 600.08 773.98 608.04 773.94 616.00 C 713.63 615.94 653.31 616.13 593.00 615.87 C 584.97 616.03 576.89 616.01 568.97 617.34 C 565.15 611.44 561.25 605.60 557.45 599.69 C 556.01 597.40 554.60 595.09 553.15 592.81 Z" />
</g>
<g id="#3781a9ff">
<path fill="#3781a9" opacity="1.00" d=" M 12.59 623.75 C 18.09 615.35 23.47 606.87 29.07 598.54 C 38.00 599.70 47.00 600.07 56.00 600.12 C 223.15 599.64 390.31 600.49 557.45 599.69 C 561.25 605.60 565.15 611.44 568.97 617.34 C 570.06 619.07 571.15 620.81 572.24 622.56 C 556.90 624.40 541.42 624.13 526.00 624.06 C 354.86 623.75 183.72 624.37 12.59 623.75 Z" />
</g>
<g id="#1c6d99fe">
<path fill="#1c6d99" opacity="1.00" d=" M 568.97 617.34 C 576.89 616.01 584.97 616.03 593.00 615.87 C 653.31 616.13 713.63 615.94 773.94 616.00 C 773.97 621.33 773.97 626.64 774.00 632.00 C 708.85 632.21 643.69 631.58 578.54 632.32 C 578.33 631.99 577.90 631.33 577.69 631.00 C 575.84 628.16 574.03 625.38 572.24 622.56 C 571.15 620.81 570.06 619.07 568.97 617.34 Z" />
</g>
<g id="#357fa8ff">
<path fill="#357fa8" opacity="1.00" d=" M 526.00 624.06 C 541.42 624.13 556.90 624.40 572.24 622.56 C 574.03 625.38 575.84 628.16 577.69 631.00 C 569.13 631.59 560.57 631.94 552.00 632.03 C 377.00 632.00 201.99 631.95 26.99 632.06 C 20.66 631.84 14.29 631.72 8.04 630.67 C 9.56 628.37 11.07 626.06 12.59 623.75 C 183.72 624.37 354.86 623.75 526.00 624.06 Z" />
</g>
<g id="#357ea6ff">
<path fill="#357ea6" opacity="1.00" d=" M 0.46 641.79 C 3.02 638.10 5.52 634.37 8.04 630.67 C 14.29 631.72 20.66 631.84 26.99 632.06 C 201.99 631.95 377.00 632.00 552.00 632.03 C 560.57 631.94 569.13 631.59 577.69 631.00 C 577.90 631.33 578.33 631.99 578.54 632.32 C 580.66 635.74 582.59 639.30 584.44 642.90 C 577.28 642.49 570.14 642.13 563.00 642.03 C 375.49 641.82 187.97 642.30 0.46 641.79 Z" />
</g>
<g id="#1b6b97ff">
<path fill="#1b6b97" opacity="1.00" d=" M 578.54 632.32 C 643.69 631.58 708.85 632.21 774.00 632.00 C 774.02 635.34 773.94 638.62 774.00 642.00 C 720.33 641.96 666.67 642.09 613.00 641.91 C 603.77 641.91 594.57 642.35 585.38 642.94 L 584.44 642.90 C 582.59 639.30 580.66 635.74 578.54 632.32 Z" />
</g>
<g id="#6da4c2ff">
<path fill="#6da4c2" opacity="1.00" d=" M 0.00 642.45 L 0.46 641.79 C 187.97 642.30 375.49 641.82 563.00 642.03 C 570.14 642.13 577.28 642.49 584.44 642.90 L 585.38 642.94 L 584.36 643.00 L 0.00 643.00 L 0.00 642.45 Z" />
</g>
<g id="#619cbcff">
<path fill="#619cbc" opacity="1.00" d=" M 585.38 642.94 C 594.57 642.35 603.77 641.91 613.00 641.91 C 666.67 642.09 720.33 641.96 774.00 642.00 L 775.00 642.00 L 775.00 643.00 L 584.36 643.00 L 585.38 642.94 Z" />
</g>
</svg>
