<?xml version="1.0" encoding="UTF-8"?>
<!DOCTYPE svg PUBLIC "-//W3C//DTD SVG 1.1//EN" "http://www.w3.org/Graphics/SVG/1.1/DTD/svg11.dtd">
<!-- Creator: CorelDRAW X7 -->
<svg xmlns="http://www.w3.org/2000/svg" xml:space="preserve" width="59.6106mm" height="17.5mm" version="1.1" style="shape-rendering:geometricPrecision; text-rendering:geometricPrecision; image-rendering:optimizeQuality; fill-rule:evenodd; clip-rule:evenodd"
viewBox="0 0 3791 1113"
 xmlns:xlink="http://www.w3.org/1999/xlink">
 <defs>
  <style type="text/css">
   <![CDATA[
    .fil2 {fill:black}
    .fil1 {fill:#C0192D}
    .fil0 {fill:#2B2A29;fill-rule:nonzero}
   ]]>
  </style>
 </defs>
 <g id="Слой_x0020_1">
  <metadata id="CorelCorpID_0Corel-Layer"/>
  <g id="_740933616">
   <g>
    <path class="fil0" d="M3718 303l19 0c7,0 11,-4 11,-11 0,-8 -5,-10 -11,-10l-19 0 0 21zm-12 -31l32 0c15,0 22,7 22,19 0,13 -9,16 -11,17l0 0c4,0 10,3 10,14 0,8 1,15 4,18l-13 0c-2,-3 -2,-7 -2,-10 0,-12 -2,-18 -13,-18l-17 0 0 28 -12 0 0 -68z"/>
    <path class="fil0" d="M3732 256c-27,0 -50,23 -50,50 0,28 23,50 50,50 27,0 50,-22 50,-50 0,-27 -23,-50 -50,-50zm0 109c-33,0 -59,-26 -59,-59 0,-33 26,-59 59,-59 33,0 59,26 59,59 0,33 -26,59 -59,59z"/>
   </g>
   <path class="fil1" d="M102 877c40,2 159,-55 201,-79 22,-13 38,-25 57,-37 63,-40 148,-123 195,-181 29,-36 54,-69 78,-109 13,-20 24,-39 35,-59 19,-36 26,-40 21,-65 -24,-111 -33,-220 -38,-339 -32,-2 -60,-8 -95,-8 -191,0 -360,95 -465,251 -92,136 -119,324 -60,491 16,43 44,103 71,135z"/>
   <path class="fil1" d="M119 899c9,19 57,64 73,79 81,73 205,127 324,134 171,10 334,-54 442,-171 -2,-6 -29,-36 -37,-46 -27,-35 -65,-91 -84,-128 -5,-10 -9,-21 -16,-28l-118 12c-40,2 -87,6 -127,4l1 -23c40,-2 206,-3 233,-17l-33 -74c-21,-52 -39,-103 -55,-158 -8,-28 -13,-55 -22,-83 -8,13 -16,28 -23,41 -30,53 -99,153 -143,196 -17,17 -30,34 -50,51 -31,28 -54,50 -92,77 -73,52 -134,89 -222,118 -13,5 -42,11 -51,16z"/>
   <path class="fil1" d="M874 706c38,-2 225,-55 232,-66 7,-20 8,-78 7,-103 -5,-124 -46,-231 -119,-325 -9,-12 -18,-22 -26,-30 -29,-30 -52,-54 -88,-78 -10,-7 -59,-41 -70,-41 -7,54 -24,120 -41,169 -31,93 -32,63 -6,167 19,76 57,198 94,270 5,11 13,26 17,37z"/>
   <path class="fil2" d="M2307 358c59,-8 117,42 120,95 3,65 -40,113 -96,120 -133,18 -177,-193 -24,-215zm-14 -96c-111,14 -203,98 -186,230 14,111 111,194 238,178 63,-7 107,-33 138,-70 69,-82 71,-217 -27,-293 -39,-31 -99,-54 -163,-45z"/>
   <path class="fil2" d="M1724 351c40,-7 80,8 79,48 -1,41 -39,48 -79,47l0 -95zm-101 309l101 -1 0 -147 71 109c4,6 21,36 27,38l122 0c-9,-18 -115,-146 -119,-159 77,-10 111,-116 57,-187 -19,-25 -64,-40 -108,-40 -49,-1 -103,2 -151,-1l0 388z"/>
   <path class="fil2" d="M3530 395c5,5 8,21 11,30l30 90 -82 0 41 -120zm-203 263l106 1 28 -67 137 0 26 67 106 0c-2,-13 -142,-380 -144,-386l-111 0 -148 385z"/>
   <path class="fil2" d="M1391 394c3,3 40,112 41,121l-82 0 41 -121zm-202 265l106 0 27 -67 138 0 25 67 107 0c-2,-14 -62,-164 -72,-193 -18,-52 -59,-150 -73,-193l-110 0 -148 386z"/>
   <path class="fil2" d="M2578 545l-42 80c14,14 59,32 81,37 95,23 207,-8 204,-137 0,-18 -3,-31 -12,-47 -34,-62 -129,-53 -149,-86 -15,-25 16,-56 65,-41 16,4 28,14 40,20l40 -76c-18,-15 -64,-26 -89,-30 -66,-10 -132,12 -156,76 -11,31 -13,71 0,102 26,60 127,51 151,86 10,14 5,32 -5,41 -11,11 -28,15 -47,13 -43,-4 -62,-29 -81,-38z"/>
   <path class="fil2" d="M3081 659l220 0c-1,-20 4,-71 -2,-84 -9,-4 -96,0 -117,-2l0 -65 112 -1 0 -84 -112 -1 0 -63 118 -1 1 -85 -221 0 1 386z"/>
   <path class="fil2" d="M2861 658c13,2 93,2 101,0l0 -300 82 0 1 -85 -183 0 -1 385z"/>
   <polygon class="fil2" points="1971,659 2073,659 2072,273 1971,273 "/>
   <path class="fil1" d="M1001 891c7,-7 28,-40 33,-48 26,-46 61,-120 67,-175 -10,1 -39,13 -52,17 -17,6 -34,11 -52,16l-110 26c13,35 90,144 114,164z"/>
   <path class="fil1" d="M737 259c13,-47 52,-158 51,-209 -9,-5 -61,-26 -75,-27 -2,32 13,218 24,236z"/>
   <path class="fil1" d="M1442 856l13 0c2,-8 1,-18 1,-27 0,-26 -1,-26 11,-27 4,0 10,0 14,0 10,0 19,0 28,0 3,14 0,39 0,55l114 -1 1 -99 26 -1 1 -12c-10,-2 -59,-2 -69,0l1 12 26 1 0 84 -84 1 -1 -98 -14 -1 0 46 -53 0 -1 -46 -14 1 0 112z"/>
   <path class="fil2" d="M3275 860c0,0 1,-1 1,-1l32 -79 31 80c1,-2 1,-2 3,-4 1,-2 1,-2 2,-4l42 -109 -15 0c-4,12 -27,72 -32,79l-32 -80 -31 81 -31 -80 -16 1 46 116z"/>
   <path class="fil2" d="M2016 784c11,15 24,63 34,73l33 -73c4,16 10,62 15,72l14 0 -23 -115 -11 22c-4,7 -6,13 -10,21 -6,13 -12,28 -18,41 -8,-8 -31,-74 -40,-86l-22 117 14 -1 14 -71z"/>
   <path class="fil1" d="M3151 831c-33,40 -69,-14 -24,-29 4,4 21,24 24,29zm-22 -49c-3,-4 -9,-12 -9,-19 1,-8 7,-12 15,-10 18,3 9,25 -6,29zm11 11c4,-6 1,-2 6,-7 25,-22 10,-43 -9,-45 -14,-2 -27,6 -30,17 -5,18 6,22 10,34 -46,24 -23,72 15,66 16,-2 19,-10 29,-15 14,14 4,13 27,13 -4,-11 -13,-16 -16,-25 4,-9 7,-8 11,-16 -3,-5 -3,-6 -10,-8l-10 12c-7,-3 -8,-6 -12,-11l-11 -15z"/>
   <path class="fil2" d="M2769 757c59,-19 83,69 28,86 -57,18 -84,-68 -28,-86zm72 54c6,-36 -17,-63 -45,-69 -78,-17 -101,102 -24,116 37,6 65,-19 69,-47z"/>
   <path class="fil2" d="M3432 757c56,-21 85,67 29,86 -53,18 -87,-63 -29,-86zm-44 50c4,31 29,54 65,52 33,-3 56,-31 53,-66 -7,-76 -129,-65 -118,14z"/>
   <path class="fil2" d="M3557 757c27,-9 51,7 57,30 7,29 -10,50 -30,56 -56,17 -83,-68 -27,-86zm-45 52c12,75 128,62 118,-18 -4,-31 -34,-55 -68,-50 -29,4 -55,32 -50,68z"/>
   <path class="fil2" d="M2870 774l84 86 0 -117 -14 1 -1 80c-8,-5 -33,-33 -42,-43l-43 -42 1 117 14 0 1 -82z"/>
   <path class="fil1" d="M1430 799l-40 1c-5,1 -2,0 -5,1l0 11 27 0c5,37 -67,51 -78,-3 -6,-36 26,-62 56,-53 15,5 15,12 25,14l8 -7c-7,-17 -43,-31 -73,-15 -21,10 -39,40 -28,71 21,58 107,55 108,-20z"/>
   <path class="fil2" d="M3656 758c75,-15 83,95 0,85l0 -85zm-13 98c47,3 86,-8 86,-57 0,-46 -40,-61 -87,-55l1 112z"/>
   <path class="fil2" d="M2324 805c18,0 37,1 36,20 0,18 -19,18 -36,18l0 -38zm0 -12c-1,-10 -2,-27 1,-37 15,0 26,2 26,19 0,16 -12,18 -27,18zm31 2c6,-7 9,-9 10,-20 1,-32 -31,-32 -56,-32l1 113c24,0 47,3 60,-13 6,-9 7,-21 3,-30 -4,-10 -9,-11 -18,-18z"/>
   <polygon class="fil1" points="1189,856 1204,856 1204,802 1256,802 1257,856 1271,856 1272,743 1257,743 1257,789 1204,789 1204,743 1189,743 "/>
   <path class="fil1" d="M1853 802l51 0 1 54 15 0c-2,-8 -3,-100 1,-112l-16 -1 0 46 -53 0 0 -46 -15 0 0 113 15 0 1 -54z"/>
   <path class="fil2" d="M2245 797c0,-1 0,-2 0,-2l-1 -4c0,-1 0,-2 -1,-4l1 -30c47,-4 44,43 1,40zm20 10c12,-2 18,-7 23,-16 4,-10 4,-22 -1,-31 -10,-19 -33,-17 -57,-17 -1,8 -4,105 2,113l11 0 0 -37c1,-13 4,-12 9,-6l29 43 17 0c-7,-18 -27,-33 -33,-49z"/>
   <path class="fil2" d="M2167 772l18 43 -39 0 21 -43zm-54 84c27,0 10,-1 28,-28l50 0 13 27 15 2c-2,-9 -48,-109 -53,-116 -8,8 -52,112 -53,115z"/>
   <polygon class="fil1" points="1661,856 1722,856 1722,843 1676,843 1676,801 1721,801 1721,788 1676,788 1676,757 1721,757 1722,743 1661,743 "/>
   <path class="fil2" d="M2448 755l0 102 61 -1 0 -11c-7,-4 -36,-2 -47,-2l0 -43 45 1 1 -13 -46 0 0 -31 47 -1 1 -12 -62 -1 0 12z"/>
   <path class="fil2" d="M2591 825c-12,0 -13,0 -13,8 1,5 5,10 7,14 23,26 71,7 63,-31 -6,-27 -27,-20 -45,-35 -15,-12 3,-42 31,-17l10 -5c-5,-18 -33,-25 -51,-11 -17,12 -14,37 6,47 15,8 43,13 33,38 -4,8 -13,14 -25,12 -11,-3 -12,-11 -16,-20z"/>
   <path class="fil2" d="M2988 758c14,-4 31,0 46,-2l0 -13 -60 1 0 112 60 0 0 -13 -46 0 0 -42 43 -1c2,-5 2,-5 1,-12l-44 -1 0 -29z"/>
   <path class="fil1" d="M1821 835c-17,7 -26,17 -49,6 -33,-17 -31,-64 -2,-81 23,-13 39,-2 52,4l-1 -16c-44,-20 -88,8 -88,53 1,43 46,74 89,50l-1 -16z"/>
   <path class="fil2" d="M2655 745c0,-1 -1,0 -2,0l0 8c5,4 0,2 8,3 0,0 5,1 6,1 4,0 8,-1 13,0l0 100 14 -1 0 -99 27 0 0 -14 -52 0c-2,0 -7,0 -8,0l-6 2z"/>
   <polygon class="fil2" points="2390,856 2439,857 2439,843 2405,843 2405,743 2390,743 2390,823 "/>
   <polygon class="fil1" points="1291,856 1306,856 1305,743 1291,743 "/>
   <path class="fil2" d="M1948 785c-25,13 -7,49 19,37 23,-10 7,-51 -19,-37z"/>
   <path class="fil2" d="M2534 785c-23,13 -7,48 19,37 24,-9 8,-53 -19,-37z"/>
  </g>
 </g>
</svg>
