<?xml version="1.0" encoding="utf-8"?>
<!-- Generator: Adobe Illustrator 22.1.0, SVG Export Plug-In . SVG Version: 6.00 Build 0)  -->
<svg version="1.1" id="Livello_1" xmlns="http://www.w3.org/2000/svg" xmlns:xlink="http://www.w3.org/1999/xlink" x="0px" y="0px"
	 viewBox="0 0 391 130" style="enable-background:new 0 0 391 130;" xml:space="preserve">
<style type="text/css">
	.st0{fill:#C41230;}
	.st1{fill:#FFFFFF;}
</style>
<path class="st0" d="M66,52.5c-1.3-6.2-2.1-12.8-2.3-19.4c-1.6-0.3-3.4-0.4-5.1-0.4c-16.8,0-30.4,13.6-30.4,30.4
	c0,6.6,2.1,12.6,5.6,17.6C46.2,77.9,58.9,67.3,66,52.5 M73.1,73c-4.2,0.6-8.8,0.9-13.5,0.9v-1.3c4.5,0,8.8-0.3,12.9-0.9
	c-2.5-5.2-4.6-11-6-17.3c-7.4,14.2-19.6,24.3-31.9,27.3c5.6,7.1,14.2,11.7,24,11.7c8.7,0,16.5-3.6,22.1-9.4
	c-2.6-2.8-5.1-6.3-7.2-10.4C73.3,73.4,73.2,73.2,73.1,73 M82.9,81.4c2.7-3.5,4.6-7.7,5.5-12.3c-3.6,1.4-7.5,2.5-11.8,3.3
	C78.5,75.8,80.6,78.8,82.9,81.4 M72.5,36c-0.7,4.7-2,9.1-3.6,13.3c1.5,8.2,4,15.7,7.2,21.9c4.6-0.9,8.8-2.1,12.6-3.5
	c0.2-1.5,0.3-3,0.3-4.5C89,51.3,82.3,41.1,72.5,36 M71.3,35.4c-1.3-0.6-2.7-1.1-4.1-1.5c0.2,4.5,0.5,8.8,1.3,13
	C69.7,43.2,70.7,39.4,71.3,35.4"/>
<path class="st1" d="M123.6,48.4h-0.1l-4.2,12.3h8.4L123.6,48.4z M116.5,68.4l-2.7,6.7h-10.7L118,36.4h11l14.6,38.7h-10.7l-2.5-6.7
	H116.5z"/>
<path class="st1" d="M156.9,53.8h1c3.3,0,7-0.6,7-4.8s-3.7-4.8-7-4.8h-1V53.8z M179,75.1h-12.5L157,60.2h-0.1v14.9h-10.1V36.4h15
	c7.7,0,13.5,3.6,13.5,11.9c0,5.3-3,10-8.5,10.9L179,75.1z"/>
<rect x="181.7" y="36.4" class="st1" width="10.1" height="38.7"/>
<path class="st1" d="M205.6,55.1c0,6.7,4.9,11.6,10.9,11.6s10.9-4.9,10.9-11.6c0-5.3-4.9-10.2-10.9-10.2
	C210.5,44.9,205.6,49.8,205.6,55.1 M237.9,55c0,12.5-9,21.4-21.4,21.4s-21.4-8.8-21.4-21.4c0-11.7,10.3-19.9,21.4-19.9
	C227.7,35.1,237.9,43.3,237.9,55"/>
<path class="st1" d="M261.4,46.4c-1.8-1.5-4.2-2.6-6.7-2.6c-1.8,0-4.3,1.1-4.3,3.2c0,2.3,2.7,3.1,4.5,3.7l2.6,0.8
	c5.4,1.6,9.6,4.3,9.6,10.6c0,3.9-0.9,7.8-4,10.4c-3,2.6-7.1,3.6-11,3.6c-4.9,0-9.7-1.6-13.6-4.4l4.3-8.1c2.5,2.2,5.5,4,8.9,4
	c2.4,0,4.9-1.2,4.9-3.9c0-2.8-4-3.8-6.1-4.4c-6.3-1.8-10.5-3.4-10.5-10.9c0-7.9,5.6-13,13.4-13c3.9,0,8.7,1.2,12.1,3.2L261.4,46.4z"
	/>
<polygon class="st1" points="281.1,75.1 271,75.1 271.1,36.4 289.4,36.4 289.4,44.9 281.1,44.9 "/>
<polygon class="st1" points="303.1,44.9 303.1,51.4 314.5,51.4 314.5,59.9 303.1,59.9 303.1,66.6 315.1,66.6 315.1,75.1 293.1,75.1 
	293.1,36.4 315.1,36.4 315.1,44.9 "/>
<path class="st1" d="M338.2,48.4h-0.1l-4.2,12.3h8.4L338.2,48.4z M331.2,68.4l-2.7,6.7h-10.7l14.9-38.7h11l14.6,38.7h-10.7l-2.5-6.7
	H331.2z"/>
<path class="st1" d="M357,37.4v1.7h1c0.9,0,2.2,0.2,2.2-0.8c0-0.9-0.7-0.9-1.5-0.9H357z M361.1,43.1H360l-1.7-3.1h-1.2v3.1h-1v-6.7
	h2.8c1.2,0,2.3,0.4,2.3,1.8c0,1.3-0.9,1.8-1.8,1.8L361.1,43.1z M353.3,39.7c0,2.8,2.3,5,5,5s5-2.2,5-5s-2.3-5-5-5
	S353.3,36.9,353.3,39.7 M352.4,39.7c0-3.3,2.6-6,6-6s6,2.6,6,6c0,3.3-2.6,6-6,6S352.4,43,352.4,39.7"/>
<rect x="135.4" y="93.5" class="st0" width="10.4" height="1.4"/>
<path class="st1" d="M350.8,84.9h0.5c2.9,0,5.4,1.1,5.4,4.4s-2.5,4.4-5.4,4.4h-0.5V84.9z M349.4,94.9h2.3c3.6,0,6.4-1.9,6.4-5.7
	c0-3.8-2.9-5.6-6.4-5.6h-2.3V94.9z M342.2,93.9c-2.4,0-4.5-2-4.5-4.6c0-2.5,1.9-4.6,4.5-4.6c2.7,0,4.5,2.1,4.5,4.6
	C346.8,91.9,344.7,93.9,342.2,93.9 M342.2,83.4c-3.2,0-5.9,2.7-5.9,5.9c0,3.4,2.7,5.9,5.9,5.9c3.3,0,5.9-2.5,5.9-5.9
	C348.2,86,345.5,83.4,342.2,83.4 M329.8,93.9c-2.5,0-4.5-2-4.5-4.6c0-2.5,1.9-4.6,4.5-4.6c2.7,0,4.5,2.1,4.5,4.6
	C334.3,91.9,332.2,93.9,329.8,93.9 M329.8,83.4c-3.2,0-5.9,2.7-5.9,5.9c0,3.4,2.7,5.9,5.9,5.9c3.3,0,5.9-2.5,5.9-5.9
	C335.7,86,333,83.4,329.8,83.4 M309.5,83.6H308l4.7,11.8l3.2-8.3l3.2,8.3l4.7-11.8h-1.5l-3.2,8.1l-3.2-8.4l-3.2,8.4L309.5,83.6z"/>
<path class="st0" d="M302.3,94.9h1.7l-2-2.5l1.4-1.6l-0.9-0.9l-1.3,1.5l-2.4-2.9c0.9-0.7,2.1-1.5,2.1-2.8c0-1.5-1.2-2.4-2.6-2.4
	c-1.5,0-2.6,0.9-2.6,2.5c0,1,0.6,1.8,1.2,2.5l-0.7,0.5c-1.1,0.8-2,1.6-2,3c0,2,1.6,3.3,3.5,3.3c1.3,0,2.5-0.8,3.4-1.8L302.3,94.9z
	 M298,87.6l-0.4-0.5c-0.3-0.4-0.7-0.8-0.7-1.4c0-0.7,0.6-1.2,1.3-1.2c0.8,0,1.3,0.4,1.3,1.2c0,0.8-0.8,1.3-1.4,1.7L298,87.6z
	 M297.7,89.4l2.5,3.1c-0.7,0.7-1.5,1.5-2.6,1.5s-2.1-1-2.1-2.1s1.3-1.8,2.1-2.4L297.7,89.4z"/>
<path class="st1" d="M282.3,94.9h6.1v-1.3h-4.7v-4.2h4.5v-1.3h-4.5v-3.2h4.7v-1.3h-6.1V94.9z M270.4,94.9h1.4v-8.4l8.5,8.9V83.6
	h-1.4V92l-8.5-8.9V94.9z M263.2,93.9c-2.5,0-4.5-2-4.5-4.6c0-2.5,1.9-4.6,4.5-4.6c2.7,0,4.5,2.1,4.5,4.6
	C267.7,91.9,265.6,93.9,263.2,93.9 M263.2,83.4c-3.2,0-5.9,2.7-5.9,5.9c0,3.4,2.7,5.9,5.9,5.9c3.3,0,5.9-2.5,5.9-5.9
	C269.1,86,266.4,83.4,263.2,83.4 M254.2,84.9h2.7v-1.3h-6.8v1.3h2.7v10h1.4L254.2,84.9L254.2,84.9z M249.3,85.1
	c-0.6-1.1-1.7-1.7-2.9-1.7c-1.7,0-3.3,1.1-3.3,2.9c0,1.6,1.2,2.3,2.5,2.9l0.8,0.3c1,0.4,2,0.9,2,2.2c0,1.2-0.9,2.2-2.1,2.2
	s-2.2-0.9-2.2-2.1l-1.4,0.3c0.2,1.8,1.7,3.2,3.5,3.2c2,0,3.6-1.5,3.6-3.5c0-1.9-1.2-2.8-2.8-3.4l-0.8-0.3c-0.7-0.3-1.6-0.7-1.6-1.6
	c0-1,1-1.6,1.9-1.6s1.4,0.4,1.8,1.1L249.3,85.1z M240.7,88.1c-0.4-0.4-0.9-0.6-1.5-0.6s-1.1,0.2-1.5,0.6s-0.6,0.9-0.6,1.5
	s0.2,1.1,0.6,1.5s0.9,0.6,1.5,0.6s1.1-0.2,1.5-0.6s0.6-0.9,0.6-1.5C241.3,89,241.1,88.6,240.7,88.1 M229.6,94.9h6.1v-1.3H231v-4.2
	h4.5v-1.3H231v-3.2h4.7v-1.3h-6.1V94.9z M225.2,83.6h-1.4v11.3h4.9v-1.3h-3.4v-10H225.2z M215.6,94.9h2.6c2,0,3.9-0.9,3.9-3.2
	c0-1.3-0.9-2.6-2.3-2.9l0,0c0.8-0.4,1.2-1.3,1.2-2.2c0-2.6-2-3.1-4.1-3.1h-1.4v11.4H215.6z M217,89.8h0.9c1.3,0,2.9,0.3,2.9,1.9
	s-1.4,2-2.7,2H217L217,89.8L217,89.8z M217,84.9h0.4c1.3,0,2.4,0.3,2.4,1.9s-1.1,1.9-2.4,1.9H217V84.9z M209,84.9h0.4
	c1.4,0,3.1,0.3,3.1,2c0,1.8-1.6,2.1-3,2.1H209V84.9z M211.1,90c1.6-0.2,2.7-1.5,2.7-3.2c0-1.1-0.5-2.2-1.5-2.7c-0.9-0.5-2-0.5-3-0.5
	h-1.7v11.3h1.4v-4.8h0.6l3.3,4.8h1.7L211.1,90z M203.2,90.8h-4l2-4.6L203.2,90.8z M203.8,92.1l1.3,2.8h1.5l-5.4-11.8l-5.4,11.8h1.5
	l1.3-2.8H203.8z M189.5,95.2l3.4-7.7l0,0l1.3,7.5h1.5l-2.3-11.8l-3.9,8.9l-3.9-8.9L183.3,95h1.5l1.3-7.5l0,0L189.5,95.2z
	 M181.8,88.1c-0.4-0.4-0.9-0.6-1.5-0.6s-1.1,0.2-1.5,0.6s-0.6,0.9-0.6,1.5s0.2,1.1,0.6,1.5c0.4,0.4,0.9,0.6,1.5,0.6s1.1-0.2,1.5-0.6
	s0.6-0.9,0.6-1.5C182.4,89,182.2,88.6,181.8,88.1"/>
<polygon class="st0" points="104.6,88.2 104.6,83.6 103.2,83.6 103.2,94.9 104.6,94.9 104.6,89.5 110,89.5 110,94.9 111.5,94.9 
	111.5,83.6 110,83.6 110,88.2 "/>
<rect x="113.5" y="83.6" class="st0" width="1.4" height="11.3"/>
<path class="st0" d="M122.8,89.2v1.3h2.9c-0.1,1.8-2,3.4-3.7,3.4c-2.5,0-4.4-2.3-4.4-4.6c0-2.5,2-4.6,4.5-4.6c1.4,0,2.8,0.7,3.6,1.8
	l1-0.9c-1.1-1.4-2.9-2.2-4.6-2.2c-3.3,0-5.9,2.7-5.9,5.9c0,3.1,2.6,5.9,5.7,5.9s5.4-2.4,5.4-5.5v-0.5L122.8,89.2L122.8,89.2z"/>
<polygon class="st0" points="130,88.2 130,83.6 128.6,83.6 128.6,94.9 130,94.9 130,89.5 135.4,89.5 135.4,94.9 136.8,94.9 
	136.8,83.6 135.4,83.6 135.4,88.2 "/>
<polygon class="st0" points="146.8,84.9 149.5,84.9 149.5,83.6 142.7,83.6 142.7,84.9 145.4,84.9 145.4,94.9 146.8,94.9 "/>
<polygon class="st0" points="150.6,94.9 156.7,94.9 156.7,93.7 152,93.7 152,89.4 156.5,89.4 156.5,88.1 152,88.1 152,84.9 
	156.7,84.9 156.7,83.6 150.6,83.6 "/>
<path class="st0" d="M166.7,84.1c-0.9-0.5-1.9-0.8-2.9-0.8c-3.3,0-6,2.6-6,6c0,3.3,2.7,5.8,5.9,5.8c1,0,2.1-0.3,3-0.8v-1.7
	c-0.8,0.8-1.9,1.2-3,1.2c-2.5,0-4.4-2.1-4.4-4.6s1.9-4.6,4.5-4.6c1.1,0,2.2,0.4,3,1.1v-1.6H166.7z"/>
<polygon class="st0" points="169.7,88.2 169.7,83.6 168.2,83.6 168.2,94.9 169.7,94.9 169.7,89.5 175.1,89.5 175.1,94.9 176.5,94.9 
	176.5,83.6 175.1,83.6 175.1,88.2 "/>
</svg>
