<?xml version="1.0" encoding="UTF-8"?>
<!DOCTYPE svg PUBLIC "-//W3C//DTD SVG 1.1//EN" "http://www.w3.org/Graphics/SVG/1.1/DTD/svg11.dtd">
<!-- Creator: CorelDRAW X7 -->
<svg xmlns="http://www.w3.org/2000/svg" xml:space="preserve" width="71.4mm" height="11.2346mm" version="1.1" style="shape-rendering:geometricPrecision; text-rendering:geometricPrecision; image-rendering:optimizeQuality; fill-rule:evenodd; clip-rule:evenodd"
viewBox="0 0 3298 519"
 xmlns:xlink="http://www.w3.org/1999/xlink">
 <defs>
  <style type="text/css">
   <![CDATA[
    .fil2 {fill:#FEFEFE}
    .fil0 {fill:#EF7D38}
    .fil1 {fill:#1D1F20}
    .fil3 {fill:#2B2A29;fill-rule:nonzero}
   ]]>
  </style>
 </defs>
 <g id="Слой_x0020_1">
  <metadata id="CorelCorpID_0Corel-Layer"/>
  <g id="_1905087344">
   <path class="fil0" d="M0 247l0 50 15 60c7,16 16,35 26,48 43,61 115,102 192,111 42,5 101,3 134,-10 -64,-2 -103,-7 -153,-27 -43,-17 -77,-43 -103,-76 -61,-76 -58,-194 -1,-270 26,-34 57,-58 102,-77 53,-21 91,-21 158,-21 70,0 192,5 257,-9 21,-4 54,-14 64,-26l-395 0 -16 3c-125,11 -249,87 -274,217l-5 26c0,-1 -1,1 -1,1z"/>
   <path class="fil1" d="M2246 102l0 35 -165 0c-37,0 -70,29 -70,63 0,39 1,57 52,82 27,14 64,27 64,55 0,46 -60,43 -100,26 -6,-3 -8,-5 -14,-7l-2 44c59,32 170,18 170,-63 0,-28 -4,-46 -27,-63 -8,-6 -16,-11 -25,-16 -21,-11 -64,-22 -66,-52 -1,-24 22,-29 48,-29l135 0 0 151c0,40 9,63 35,77 23,13 68,14 93,2l0 -40c-13,3 -15,8 -35,8 -25,0 -42,-20 -42,-45l0 -153 72 0 0 -40 -72 0 0 -43c-15,0 -35,8 -51,8z"/>
   <path class="fil1" d="M1627 330c0,-26 19,-36 37,-43 30,-12 60,-8 91,-8 0,33 -1,51 -19,73 -28,36 -109,29 -109,-22zm-24 -174c6,11 1,23 3,35 2,13 0,5 19,-4 41,-21 104,-28 122,14 2,5 9,34 6,38 -3,6 -29,1 -40,1 -153,0 -159,103 -121,148 29,33 117,42 157,-3 5,-6 3,-6 10,-10l0 35 47 0c0,-16 -2,-26 -2,-45 0,-32 1,-122 -1,-144 -7,-74 -49,-91 -116,-91 -17,0 -32,4 -46,8 -15,5 -25,11 -38,18z"/>
   <path class="fil1" d="M903 326c0,-9 8,-22 13,-26 20,-19 52,-20 79,-22l34 1 0 31c0,75 -126,91 -126,16zm-23 -170c0,11 2,15 2,42 21,-11 41,-28 79,-28 54,0 68,29 68,72 -42,0 -84,-9 -133,16 -75,39 -58,148 30,156 78,7 83,-21 110,-39l0 35 46 0 -2 -45c0,-31 2,-123 -1,-143 -10,-71 -40,-92 -116,-92 -31,0 -64,13 -83,26z"/>
   <path class="fil1" d="M3009 247c-8,0 -6,-4 -5,-12 20,-95 141,-81 140,12l-135 0zm-60 21c0,54 18,106 65,132 46,24 119,19 163,-2l0 -49c-12,3 -38,26 -89,26 -67,0 -100,-91 -79,-91l189 0c0,-84 -29,-154 -114,-154 -43,0 -78,12 -102,41 -19,22 -33,57 -33,97z"/>
   <path class="fil1" d="M1164 247c0,-98 139,-106 139,0l-139 0zm172 151l0 -49c-11,3 -37,26 -89,26 -41,0 -78,-35 -84,-77 -1,-8 -4,-14 5,-14l188 0c5,-82 -31,-154 -113,-154 -55,0 -93,19 -116,62 -13,24 -13,31 -18,63 -6,39 8,93 36,124 7,6 15,12 23,17 10,6 16,9 29,13 46,13 103,6 139,-11z"/>
   <path class="fil1" d="M2427 270c0,-67 60,-122 121,-91 10,5 16,13 24,21 21,21 25,49 25,79 0,123 -170,135 -170,-9zm-53 -2c0,50 13,77 39,107 3,4 12,11 18,15 7,6 14,9 22,13 25,12 54,15 85,11 23,-4 54,-19 70,-35 56,-55 59,-154 1,-212 -73,-74 -235,-37 -235,101z"/>
   <path class="fil1" d="M2727 177l0 -40 -48 0 0 273 48 0 0 -100c0,-63 8,-115 53,-134 25,-10 55,-5 70,11 14,15 19,47 19,76l0 147 52 0 0 -138c0,-67 -9,-112 -57,-134 -22,-10 -58,-10 -83,-3 -37,12 -47,37 -54,42z"/>
   <path class="fil1" d="M1378 212c0,81 118,68 118,128 0,23 -27,35 -53,35 -21,0 -47,-12 -61,-19 0,18 -2,27 -2,44 60,32 170,18 170,-63 0,-84 -69,-73 -104,-107 -7,-7 -14,-14 -14,-25 -1,-25 28,-35 46,-35 21,0 44,11 56,14 0,-12 2,-34 4,-44 -25,-2 -87,-28 -134,12 -16,13 -26,40 -26,60z"/>
   <path class="fil0" d="M272 435c13,10 53,18 72,18 91,0 175,-71 175,-155l0 -21c0,-62 -40,-115 -74,-140 -45,-34 -98,-45 -172,-43 19,8 71,7 125,51 32,26 58,62 59,120 0,79 -47,133 -111,158 -25,10 -43,12 -74,12z"/>
   <path class="fil1" d="M624 261c0,38 -1,54 20,89 32,54 84,70 147,64 14,-1 23,-6 35,-9 -2,-8 -4,-35 -4,-44 -16,3 -24,14 -56,14 -53,0 -89,-44 -89,-96 0,-31 5,-59 26,-81 11,-10 12,-12 25,-19 43,-21 75,1 91,3 0,-11 3,-33 5,-42 -19,-2 -16,-10 -72,-10 -69,0 -128,63 -128,131z"/>
   <path class="fil1" d="M1892 177l0 -40 -47 0 0 273 52 0 0 -140c0,-24 10,-53 21,-68 18,-25 35,-27 62,-27 3,-11 18,-29 24,-40 -41,-9 -70,-8 -99,25 -5,6 -7,12 -13,17z"/>
   <path class="fil0" d="M154 270c0,68 54,114 116,114 16,0 35,-6 48,-11 -27,-4 -55,-2 -82,-31 -45,-49 -52,-170 89,-187 -60,-23 -171,20 -171,115z"/>
   <path class="fil2" d="M3256 163c9,0 9,-1 16,-2 -1,-7 -2,-12 -9,-12l-7 0 0 14z"/>
   <g>
    <path class="fil3" d="M3254 163l12 0c4,0 6,-2 6,-6 0,-5 -3,-6 -7,-6l-11 0 0 12zm-7 -18l19 0c9,0 13,4 13,11 0,8 -5,10 -6,10l0 0c2,1 6,2 6,9 0,4 0,9 2,10l-8 0c-1,-2 -1,-4 -1,-6 0,-7 -1,-10 -8,-10l-10 0 0 16 -7 0 0 -40z"/>
    <path class="fil3" d="M3263 136c-17,0 -30,13 -30,29 0,16 13,30 30,30 16,0 29,-14 29,-30 0,-16 -13,-29 -29,-29zm0 64c-20,0 -35,-15 -35,-35 0,-19 15,-35 35,-35 19,0 35,16 35,35 0,20 -16,35 -35,35z"/>
   </g>
  </g>
 </g>
</svg>
