<?xml version="1.0" encoding="UTF-8"?>
<!DOCTYPE svg PUBLIC "-//W3C//DTD SVG 1.1//EN" "http://www.w3.org/Graphics/SVG/1.1/DTD/svg11.dtd">
<!-- Creator: CorelDRAW X7 -->
<svg xmlns="http://www.w3.org/2000/svg" xml:space="preserve" width="33.194mm" height="17.5mm" version="1.1" style="shape-rendering:geometricPrecision; text-rendering:geometricPrecision; image-rendering:optimizeQuality; fill-rule:evenodd; clip-rule:evenodd"
viewBox="0 0 988 521"
 xmlns:xlink="http://www.w3.org/1999/xlink">
 <defs>
  <style type="text/css">
   <![CDATA[
    .fil1 {fill:#2B2A29;fill-rule:nonzero}
    .fil0 {fill:url(#id0)}
   ]]>
  </style>
  <linearGradient id="id0" gradientUnits="userSpaceOnUse" x1="268.492" y1="161.649" x2="719.37" y2="161.649">
   <stop offset="0" style="stop-opacity:1; stop-color:#C1A754"/>
   <stop offset="1" style="stop-opacity:1; stop-color:#8D7635"/>
  </linearGradient>
 </defs>
 <g id="Слой_x0020_1">
  <metadata id="CorelCorpID_0Corel-Layer"/>
  <g id="_2028662416">
   <path class="fil0" d="M301 323l0 0c0,0 1,0 2,0l0 0c6,-2 30,-8 61,-7l0 0c18,0 37,5 38,5l0 0 0 0 -1 0 1 0 -1 -1c-2,-3 -6,-9 -11,-11l0 0c-5,-3 -23,-5 -25,-5l0 0c1,0 1,-1 2,-1l0 0c5,-3 19,-13 26,-24l0 0c8,-10 8,-24 8,-25l0 0 0 0c0,1 3,1 7,8l0 0c4,7 4,12 4,12l0 0 0 0 0 0c2,-2 4,-5 5,-8l0 0c5,-10 5,-17 5,-18l0 0 0 0c1,1 13,3 26,1l0 0c13,-2 23,-7 24,-7l0 0c-1,0 -14,-47 -40,-61l0 0c-19,-11 -47,-1 -48,-1l0 0 1 0c1,-4 4,-16 13,-27l0 0c11,-12 28,-20 28,-21l0 0 0 0 0 0 0 0c-1,-1 -5,-4 -2,-13l0 0c5,-13 22,-16 22,-16l0 0 0 0 0 0 -1 0c-1,-2 -7,-6 -5,-15l0 0c2,-6 7,-10 15,-13l0 0 0 0c-3,-3 -9,-9 -6,-16l0 0c4,-6 13,-7 16,-8l0 0c1,0 1,0 1,0l0 0c-3,-4 -8,-7 -13,-9l0 0 -2 -2c-3,-2 -6,-6 -6,-9l0 0c0,-2 1,-4 3,-5l0 0c10,-7 14,-15 14,-16l0 0 0 1 0 -1 -2 1c-5,0 -11,-1 -12,-1l0 0 1 -1c1,-2 4,-8 3,-9l0 0 0 0 -1 0c-2,2 -8,3 -16,4l0 0 -8 2c-11,2 -16,8 -16,8l0 0c0,0 -25,-7 -33,-6l0 0c-8,1 -14,11 -14,11l0 0c0,0 -13,-2 -23,0l0 0c-10,2 -17,7 -17,8l0 0 1 0c5,-2 19,2 19,2l0 0 0 0c0,0 -1,1 -1,3l0 0c0,2 1,4 2,6l0 0c2,3 8,4 13,2l0 0c3,-1 4,-2 6,-4l0 0c2,-2 3,-4 8,-3l0 0c7,1 8,7 8,7l0 0c0,0 -6,1 -14,3l0 0c-10,2 -23,3 -32,3l0 0c-9,-2 -17,-3 -17,-3l0 0 0 0 2 -5 0 0 0 0 0 0c-1,0 -4,1 -13,0l0 0c-12,-1 -18,-5 -18,-5l0 0 0 0 0 0 0 1c1,2 3,8 11,15l0 0c9,9 22,12 22,13l0 0 0 0 0 -1 0 0 0 0c-1,-2 -4,-8 -4,-8l0 0 0 0c2,0 7,2 14,2l0 0c13,1 20,-1 21,-2l0 0 0 1c-1,0 -2,3 -3,7l0 0 0 0c0,3 2,5 3,7l0 0c1,1 2,3 2,4l0 0 0 2c0,0 -1,1 -1,3l0 0c0,5 4,12 4,12l0 0 0 0 0 0 0 0c1,-2 3,-7 3,-7l0 0c3,-8 6,-12 7,-13l0 0 0 1c0,1 2,7 2,7l0 0 0 -1 1 0 0 0c0,-1 0,-4 5,-7l0 0c8,-4 17,-5 18,-5l0 0c-1,1 -2,2 -3,3l0 0c-8,11 -35,45 -44,62l0 0c-5,9 -6,20 -6,29l0 0c0,11 2,18 2,19l0 0 -1 0c-2,-1 -11,-4 -16,-9l0 0c-4,-5 -5,-18 -6,-29l0 0 -1 -12c-1,-11 -11,-18 -12,-18l0 0c1,0 3,-6 5,-12l0 0c0,-2 1,-3 1,-5l0 0c0,-5 -2,-9 -2,-10l0 0 0 1 0 -1 0 0 0 0 0 0 0 0 -1 2c0,3 -3,4 -4,4l0 0c-2,0 -3,0 -3,0l0 0c0,-7 -6,-16 -13,-16l0 0c-4,0 -10,4 -10,4l0 0 0 0 0 0 0 0c2,1 8,3 11,6l0 0c3,5 3,19 3,21l0 0 0 1 0 -1c-2,-1 -7,-5 -11,-11l0 0c-3,-4 -6,-3 -9,-2l0 0c-2,2 -5,4 -5,4l0 0c6,-1 8,2 8,2l0 0c0,0 3,9 9,14l0 0c7,6 10,12 7,25l0 0c-3,12 -19,15 -19,15l0 0 0 0 0 0 0 1c2,1 8,6 14,5l0 0c7,-3 15,-13 16,-14l0 0c0,0 0,1 0,2l0 0c0,8 2,35 2,35l0 0c0,12 6,20 14,31l0 0 7 11c2,4 3,8 3,12l0 0c0,10 -7,18 -7,18l0 0 0 0 0 1c1,0 4,0 9,-3l0 0c4,-1 7,-4 10,-6l0 0c4,-3 8,-6 15,-9l0 0c13,-3 20,5 20,5l0 0c0,0 4,6 -4,25l0 0c-9,19 -21,32 -31,33l0 0c-6,0 -15,-10 -20,-16l0 0c-3,-3 -5,-5 -6,-6l0 0c-7,-5 -14,2 -14,2l0 0 0 0 0 0 0 0c1,1 4,2 7,4l0 0c5,4 4,9 3,9l0 0 0 0c0,-1 -3,-3 -11,-1l0 0c-9,2 -9,18 -9,18l0 0 0 0 0 -1c1,-1 4,-3 7,-6l0 0c8,-5 20,7 21,8l0 0c-2,0 -3,1 -4,1l0 0c-10,4 -14,14 -14,14l0 0 0 0 0 0zm140 0l0 0 1 0 0 0c7,-2 30,-8 62,-7l0 0c18,0 37,5 37,5l0 0 0 0 0 0 0 0 0 -1c-2,-3 -7,-9 -11,-11l0 0c-5,-3 -23,-5 -25,-5l0 0c0,0 1,-1 2,-1l0 0c5,-2 19,-10 24,-13l0 0c6,-3 9,-6 12,-10l0 0c4,-5 5,-12 5,-12l0 0c0,0 3,1 5,3l0 0c3,3 3,7 3,8l0 0 0 0 0 0 0 0c0,0 0,-1 1,-2l0 0c1,-3 2,-12 -3,-20l0 0c-3,-6 -8,-9 -12,-11l0 0c-3,-2 -5,-4 -7,-6l0 0c-4,-7 -1,-15 6,-19l0 0c4,-3 11,-6 11,-6l0 0c0,0 10,17 30,28l0 0c20,11 47,11 47,11l0 0c0,0 8,6 9,16l0 0c0,7 -2,15 -7,21l0 0c-3,3 -7,5 -10,6l0 0c-7,0 -15,-10 -21,-16l0 0c-2,-3 -4,-5 -5,-6l0 0c-7,-5 -14,2 -14,2l0 0 0 0 0 0 0 0c1,1 4,2 7,4l0 0c5,4 3,9 3,9l0 0 0 0c-1,-1 -3,-3 -11,-1l0 0c-9,2 -10,18 -10,18l0 0 0 0 0 0 1 -1c1,-1 3,-3 6,-6l0 0c8,-5 21,7 21,8l0 0c-1,0 -2,1 -3,1l0 0c-11,4 -14,14 -14,14l0 0 0 0 0 0 0 0 1 0 0 0c6,-2 30,-8 62,-7l0 0c18,0 37,5 37,5l0 0 0 0 0 0 0 0 -1 -1c-1,-3 -6,-9 -10,-11l0 0c-5,-3 -24,-5 -25,-5l0 0 1 -1c4,-4 16,-15 18,-29l0 0c0,-1 0,-2 0,-3l0 0c0,-8 -5,-16 -6,-17l0 0 1 0c2,1 10,3 15,6l0 0c4,3 7,6 7,6l0 0 0 0 0 0c0,0 0,-1 0,-1l0 0c0,-4 -3,-12 -16,-19l0 0c-5,-2 -27,-13 -40,-25l0 0c0,0 1,1 2,2l0 0c-3,-3 -6,-6 -8,-8l0 0 0 0c0,0 0,0 0,0l0 0c1,0 1,0 2,0l0 0c4,1 19,3 30,2l0 0c17,-1 28,-4 38,-10l0 0c11,-7 19,-16 23,-28l0 0c4,-9 6,-17 6,-26l0 0c0,-6 -1,-13 -3,-20l0 0c-5,-16 -20,-29 -20,-29l0 0 7 -18 0 0 2 3 1 1c0,1 1,2 2,3l0 0 1 1c3,4 7,5 11,7l0 0 0 0 0 0 0 -1c-1,-3 -3,-15 -4,-27l0 0c-1,-12 -1,-14 0,-25l0 0 0 -3 0 1 0 -1 -1 1c-3,3 -11,11 -21,19l0 0c-16,12 -22,14 -22,14l0 0 1 0 -1 0 1 0c2,1 8,4 14,4l0 0c4,1 5,0 6,0l0 0 3 -1 -1 1c-2,4 -8,16 -8,16l0 0c-1,0 -36,-16 -62,10l0 0c-9,9 -12,20 -8,31l0 0c3,8 14,19 32,17l0 0c23,-1 32,-21 32,-22l0 0 1 0c0,2 2,6 0,12l0 0c-1,6 -8,15 -18,19l0 0c-11,4 -27,8 -58,-4l0 0 -6 -3c-8,-3 -15,-6 -23,-8l0 0 -3 -1c-8,-2 -17,-5 -29,-5l0 0c-7,0 -14,1 -18,9l0 0c-2,3 -2,6 -2,8l0 0c0,6 2,11 6,17l0 0c4,9 13,21 14,22l0 0 -2 0c-3,-2 -15,-6 -26,-7l0 0c-15,-2 -22,0 -28,9l0 0c-4,4 -7,17 -4,29l0 0c3,13 10,24 19,29l0 0 9 4 -1 0c-8,19 -20,31 -30,32l0 0c-7,0 -15,-10 -21,-16l0 0c-2,-3 -4,-5 -5,-6l0 0c-7,-5 -14,2 -14,2l0 0 0 0 0 0 0 0c1,1 4,2 7,4l0 0c5,4 3,9 3,9l0 0 0 0c0,-1 -3,-3 -11,-1l0 0c-9,2 -10,18 -10,18l0 0 1 0 0 0 0 -1c1,-1 3,-3 6,-6l0 0c9,-5 21,7 21,8l0 0c-1,0 -2,1 -3,1l0 0c-10,4 -14,14 -14,14l0 0 0 0 0 0zm-58 -295c-4,-1 -5,-5 -5,-5l0 0 -3 -2 0 0c3,0 10,-1 10,-1l0 0 5 1c3,1 6,1 10,1l0 0c-4,1 -9,2 -9,2l0 0 -1 0c0,0 -2,4 -6,4l0 0 -1 0zm184 -13c-24,13 -90,51 -100,64l0 0c-8,9 -11,20 -11,20l0 0 0 1 1 0c0,-1 16,-12 36,-18l0 0c13,-4 32,-10 64,-14l0 0c42,-5 82,-2 82,-1l0 0 0 -1 0 0 0 0c-3,-1 -9,-4 -10,-15l0 0c-1,-15 25,-40 25,-40l0 0 0 0 0 0c0,0 -1,1 -4,2l0 0c-11,6 -39,21 -55,24l0 0c-10,2 -20,1 -22,-5l0 0c-3,-8 3,-22 3,-22l0 0 -1 0 1 0c0,0 -4,2 -9,5zm78 123c-3,-1 -4,-3 -5,-5l0 0c-1,-2 -1,-5 1,-8l0 0c2,-3 6,-6 10,-7l0 0c12,-3 21,7 21,7l0 0c0,0 -6,11 -14,13l0 0c-2,1 -4,1 -6,1l0 0c-3,0 -5,0 -7,-1zm-93 -62c-46,6 -59,12 -74,19l0 0c-13,6 -23,12 -31,21l0 0c-6,6 -7,11 -7,11l0 0 0 0 0 0c1,0 35,-13 79,-8l0 0c38,4 84,26 84,26l0 0 0 0 0 0c0,0 0,0 -1,-1l0 0c-3,-6 -10,-25 6,-44l0 0c13,-15 33,-24 33,-24l0 0 0 0 0 0c0,0 -3,0 -6,-1l0 0c-9,0 -26,-2 -44,-2l0 0c-13,0 -26,1 -39,3zm-115 60c-12,4 -25,13 -33,20l0 0c-6,7 -8,15 -8,15l0 0 0 0 0 0 0 0c5,-1 20,-5 32,0l0 0c10,4 23,10 33,29l0 0c7,12 15,31 15,31l0 0 0 0 0 0c0,0 0,-1 0,-2l0 0c-1,-6 -3,-23 10,-35l0 0c13,-12 41,-5 41,-5l0 0 0 0 0 0c0,0 -1,-1 -1,-2l0 0c-4,-4 -13,-19 -10,-30l0 0c2,-8 6,-14 14,-17l0 0c11,-4 25,-1 32,1l0 0 2 0c11,3 37,11 37,11l0 0 0 0 0 0c0,0 -3,-2 -8,-4l0 0c-16,-8 -52,-23 -93,-24l0 0 -2 0c-28,0 -47,6 -61,12zm-146 171l0 0 0 0z"/>
   <path class="fil1" d="M17 506c-14,-12 -17,-28 -17,-41 0,-9 3,-25 16,-37 8,-8 21,-15 43,-15 6,0 14,1 21,2 5,1 10,2 14,2 2,0 2,0 2,1 0,1 0,3 0,8 -1,5 -1,12 -1,14 0,2 0,3 -1,3 -1,0 -1,-1 -1,-3 0,-5 -3,-11 -6,-14 -5,-4 -16,-8 -29,-8 -19,0 -27,6 -32,10 -11,10 -13,22 -13,36 0,26 21,50 51,50 11,0 19,-1 25,-6 3,-3 5,-9 5,-12 0,-1 1,-2 2,-2 0,0 1,1 1,2 0,1 -2,13 -4,18 0,2 -1,2 -3,4 -6,2 -16,3 -25,3l-2 0c-21,0 -35,-5 -46,-15z"/>
   <path class="fil1" d="M416 505c1,4 2,10 6,11 3,1 6,1 7,1 1,0 1,0 1,1 0,0 -1,1 -2,1 -3,0 -14,-1 -18,-1 -3,0 -3,0 -3,-1 0,0 0,-1 1,-1 0,0 0,-2 0,-3l-5 -54 0 0 -27 54c-2,5 -2,5 -3,5 -1,0 -1,0 -3,-4 -3,-5 -12,-23 -13,-24 -1,-2 -13,-27 -14,-29l0 0 -5 47c0,2 0,4 0,6 0,1 1,2 3,3 2,0 3,0 4,0 0,0 1,1 1,1 0,0 -1,1 -2,1 -4,0 -9,-1 -10,-1 -1,0 -6,1 -9,1 -1,0 -2,-1 -2,-1 0,0 1,-1 1,-1 1,0 2,0 4,0 3,-1 3,-5 4,-9l8 -67c0,-1 0,-2 1,-2 0,0 1,1 1,2l33 65 31 -65c1,-1 1,-2 2,-2 1,0 1,1 1,3l7 63z"/>
   <path class="fil1" d="M522 478c0,0 0,-1 0,-1 2,0 7,0 8,1 3,0 6,0 9,3 9,5 11,14 11,20 0,12 -10,15 -15,15 -2,0 -7,0 -10,-2 -3,-1 -3,-3 -3,-8 0,-1 0,-14 0,-22l0 -6zm-9 11c0,10 0,18 -1,22 0,3 0,5 -3,6 -1,0 -2,0 -3,0 0,0 -1,1 -1,1 0,0 1,1 2,1 3,0 10,-1 11,-1 0,0 11,1 14,1 18,0 27,-11 27,-22 0,-12 -11,-20 -19,-22 5,-5 10,-10 10,-19 0,-5 -3,-15 -21,-15 -5,0 -9,0 -11,0 -1,0 -8,0 -13,0 -1,0 -1,0 -1,1 0,0 0,0 1,0 1,0 2,0 3,1 4,0 5,2 5,6 0,3 0,6 0,22l0 18zm9 -44c0,0 0,-1 1,-1 1,0 4,0 5,0 10,0 14,9 14,17 0,5 -1,8 -4,11 -2,2 -3,3 -9,3 -4,0 -6,-1 -7,-1 0,0 0,0 0,-1l0 -28z"/>
   <path class="fil1" d="M650 489c0,10 0,18 0,22 -1,3 -1,5 -3,6 -1,0 -3,0 -3,0 -1,0 -1,1 -1,1 0,0 0,1 1,1 4,0 10,-1 10,-1 1,0 8,1 14,1 1,0 1,-1 1,-1 0,0 0,-1 -1,-1 -1,0 -3,0 -4,0 -4,-1 -4,-3 -5,-6 0,-4 0,-12 0,-22l0 -3c0,0 0,0 1,0l13 0c0,0 1,0 1,0 2,3 7,10 12,16 6,7 10,12 14,15 3,1 6,2 12,2l7 0c2,0 3,-1 3,-1 0,0 -1,-1 -1,-1 -1,0 -2,0 -4,0 -3,0 -8,-2 -13,-7 -7,-7 -14,-16 -23,-27 10,-8 13,-16 13,-24 0,-7 -4,-12 -7,-14 -6,-4 -13,-4 -20,-4 -3,0 -11,0 -12,0 -1,0 -7,0 -12,0 -1,0 -2,0 -2,1 0,0 1,0 1,0 1,0 3,0 4,1 3,0 4,2 4,6 0,3 0,6 0,22l0 18zm9 -43c0,-1 0,-1 1,-1 1,0 4,-1 7,-1 11,0 18,8 18,21 0,8 -2,13 -6,16 -3,1 -6,2 -8,2 -5,0 -10,-1 -11,-2 -1,0 -1,-1 -1,-1l0 -34z"/>
   <path class="fil1" d="M804 489c0,10 0,18 0,22 1,3 1,5 5,6 1,0 3,0 4,0 1,0 1,1 1,1 0,0 0,1 -1,1 -6,0 -13,-1 -14,-1 0,0 -7,1 -10,1 -1,0 -2,-1 -2,-1 0,0 0,-1 1,-1 1,0 2,0 3,0 2,-1 3,-3 3,-6 1,-4 1,-12 1,-22l0 -18c0,-16 0,-19 0,-22 -1,-4 -2,-6 -4,-6 -1,-1 -3,-1 -3,-1 -1,0 -1,0 -1,0 0,-1 0,-1 2,-1 3,0 10,0 10,0 1,0 8,0 11,0 1,0 2,0 2,1 0,0 -1,0 -1,0 -1,0 -2,0 -3,1 -3,0 -4,2 -4,6 0,3 0,6 0,22l0 18z"/>
   <path class="fil1" d="M936 492c0,0 -1,0 -1,0l-26 0c0,0 0,0 0,0 0,0 0,0 0,0l1 -3c0,0 0,-1 1,-1l23 0c0,0 0,1 1,1l1 3c0,0 0,0 0,0zm-24 -8l9 -28c1,-1 1,-1 2,0l10 28c0,0 0,1 -1,1l-20 0c0,0 -1,-1 0,-1zm52 33c-1,0 -2,0 -4,0 -2,-1 -5,-3 -9,-12 -7,-15 -23,-58 -25,-62 -1,-3 -2,-4 -2,-4 -1,0 -1,1 -3,4l-24 64c-2,6 -4,9 -9,10 -1,0 -2,0 -3,0 -1,0 -1,1 -1,1 0,0 1,1 2,1 5,0 11,-1 12,-1 1,0 6,1 8,1 1,0 2,-1 2,-1 0,0 0,-1 -1,-1l-1 0c-2,0 -4,-1 -4,-3 0,-2 0,-4 1,-7l4 -11c0,0 0,0 0,0 1,0 1,0 1,0l29 0c0,0 0,0 0,0 0,0 1,1 1,1l0 0 7 17c0,2 0,3 -1,3 0,0 -1,0 -1,1 0,0 1,0 3,0 8,1 16,1 17,1 1,0 2,-1 2,-1 0,-1 0,-1 -1,-1z"/>
   <path class="fil1" d="M225 492c0,0 0,0 0,0l-26 0c0,0 0,0 0,0 0,0 0,0 0,0l0 -3c1,0 1,-1 1,-1l23 0c1,0 1,1 1,1l1 3c0,0 0,0 0,0zm-24 -8l10 -28c0,-1 1,-1 1,0l10 28c1,0 1,1 0,1l-20 0c-1,0 -1,-1 -1,-1zm53 33c-1,0 -3,0 -4,0 -3,-1 -6,-3 -10,-12 -6,-15 -23,-58 -24,-62 -2,-3 -2,-4 -3,-4 0,0 -1,1 -2,4l-24 64c-2,6 -4,9 -9,10 -1,0 -3,0 -3,0 -1,0 -1,1 -1,1 0,0 0,1 2,1 5,0 11,-1 12,-1 1,0 6,1 8,1 1,0 2,-1 2,-1 0,0 -1,-1 -1,-1l-1 0c-2,0 -4,-1 -4,-3 0,-2 0,-4 1,-7l4 -11c0,0 0,0 0,0 0,0 1,0 1,0l28 0c0,0 1,0 1,0 0,0 0,0 0,0l7 18c1,2 0,3 0,3 -1,0 -1,0 -1,1 0,0 1,0 3,0 7,1 15,1 17,1 1,0 2,-1 2,-1 0,-1 0,-1 -1,-1z"/>
   <path class="fil1" d="M976 430c0,0 0,0 1,0 1,0 2,1 2,2 0,1 0,2 -1,3 0,0 0,0 -1,0 0,0 -1,0 -1,0l0 -5zm-2 6c0,2 0,2 0,3 0,1 0,1 -1,1 0,0 0,0 0,0 0,0 0,0 0,0l0 0c1,0 2,0 2,0 0,0 1,0 1,0l1 0c0,0 0,0 0,0 0,0 0,0 0,0 0,0 -1,0 -1,-1 0,0 0,0 0,-2l0 -2 2 0c0,1 1,2 1,3 1,1 2,1 2,2 1,0 2,0 2,0l1 0c0,0 0,0 0,0 0,0 0,0 0,0 -1,0 -1,-1 -2,-1 -1,-1 -2,-3 -3,-4 2,-2 2,-2 2,-3 0,-2 -1,-2 -1,-2 -1,-1 -1,-1 -3,-1 -1,0 -2,0 -2,0 0,0 -1,0 -2,0l0 0c0,0 0,0 0,0 0,0 0,0 0,0 1,0 1,0 1,1 0,1 0,1 0,3l0 3zm3 9c6,0 11,-5 11,-10 0,-6 -5,-11 -11,-11 -5,0 -10,5 -10,11 0,5 5,10 10,10zm0 -1c-5,0 -9,-5 -9,-9 0,-5 4,-9 9,-9 5,0 9,4 9,9 0,4 -4,9 -9,9z"/>
  </g>
 </g>
</svg>
