<?xml version="1.0" encoding="UTF-8"?>
<!DOCTYPE svg PUBLIC "-//W3C//DTD SVG 1.1//EN" "http://www.w3.org/Graphics/SVG/1.1/DTD/svg11.dtd">
<!-- Creator: CorelDRAW X7 -->
<svg xmlns="http://www.w3.org/2000/svg" xml:space="preserve" width="71.3871mm" height="10.9819mm" version="1.1" style="shape-rendering:geometricPrecision; text-rendering:geometricPrecision; image-rendering:optimizeQuality; fill-rule:evenodd; clip-rule:evenodd"
viewBox="0 0 3396 522"
 xmlns:xlink="http://www.w3.org/1999/xlink">
 <defs>
  <style type="text/css">
   <![CDATA[
    .fil0 {fill:#467492}
    .fil1 {fill:white}
    .fil2 {fill:#467492;fill-rule:nonzero}
   ]]>
  </style>
 </defs>
 <g id="Слой_x0020_1">
  <metadata id="CorelCorpID_0Corel-Layer"/>
  <g id="_2028677968">
   <path class="fil0" d="M2988 187l159 206c9,11 23,33 33,41 16,13 41,11 52,-5 8,-13 5,-52 5,-69l0 -221c0,-26 2,-47 -19,-56 -21,-9 -42,6 -43,25 -2,21 0,52 0,74 0,45 3,102 -1,147 -6,-6 -55,-70 -64,-82l-96 -125c-9,-12 -22,-32 -35,-38 -21,-10 -45,0 -51,16 -5,12 -3,55 -3,71l0 221c0,25 0,45 24,50 24,5 38,-13 38,-34l0 -148c0,-22 -1,-51 1,-73z"/>
   <path class="fil0" d="M2602 136c73,-9 127,47 133,113 7,73 -40,131 -105,138 -74,8 -128,-46 -134,-111 -8,-76 40,-133 106,-140zm18 310c102,0 182,-83 182,-184 0,-103 -79,-185 -180,-185l-11 0c-97,0 -182,80 -182,178l0 14c0,97 83,177 180,177l11 0z"/>
   <path class="fil0" d="M909 141c51,0 101,-6 140,18 72,44 73,160 0,206 -38,24 -91,18 -140,18l0 -242zm259 143c13,-106 -56,-178 -142,-196 -22,-5 -146,-10 -163,-1 -22,11 -17,38 -17,67 0,82 -2,177 0,255 1,32 26,31 54,31 28,0 56,0 84,0 99,-1 173,-66 184,-156z"/>
   <path class="fil0" d="M1857 239c15,-11 29,-29 44,-42 15,-13 29,-28 44,-42 8,-7 14,-13 22,-21 7,-8 15,-15 11,-31 -5,-24 -36,-30 -53,-12l-171 170c0,-36 0,-73 0,-110 0,-14 2,-43 -3,-53 -5,-11 -20,-21 -37,-16 -31,9 -23,53 -23,88l0 222c0,19 0,34 12,44 11,9 30,9 41,-1 22,-19 2,-86 12,-99 3,-4 50,-46 56,-54 5,4 98,124 110,140 5,7 12,16 22,19 12,4 25,0 32,-7 22,-20 3,-42 -9,-56 -13,-16 -107,-131 -110,-139z"/>
   <path class="fil1" d="M2602 136c-66,7 -114,64 -106,140 6,65 60,119 134,111 65,-7 112,-65 105,-138 -6,-66 -60,-122 -133,-113z"/>
   <path class="fil0" d="M1360 140c33,-1 157,1 178,-1 27,-2 35,-35 14,-50 -12,-10 -62,-6 -82,-6l-133 0c-18,0 -24,1 -33,11 -12,14 -7,61 -7,82l0 177c0,24 -6,65 9,79 16,14 57,8 81,8 29,0 59,0 88,0 22,0 69,5 82,-7 19,-16 8,-49 -20,-49 -58,-1 -118,0 -177,0l0 -244z"/>
   <path class="fil0" d="M35 221c-47,8 -45,76 0,82 15,1 339,0 377,0 19,0 60,2 76,-1 45,-7 44,-75 -1,-81 -15,-2 -338,-1 -377,-1 -19,0 -59,-2 -75,1z"/>
   <path class="fil1" d="M909 383c49,0 102,6 140,-18 73,-46 72,-162 0,-206 -39,-24 -89,-18 -140,-18l0 242z"/>
   <path class="fil0" d="M32 112c-41,10 -42,65 -5,79 13,4 239,2 272,2 25,0 119,3 137,-1 39,-10 41,-66 4,-79 -13,-5 -239,-2 -272,-2 -26,0 -117,-4 -136,1z"/>
   <path class="fil0" d="M1 379c7,44 61,34 104,34l274 0c17,0 51,2 64,-4 14,-7 27,-23 23,-45 -7,-44 -61,-34 -104,-34l-274 0c-17,0 -50,-3 -64,4 -14,7 -27,22 -23,45z"/>
   <path class="fil0" d="M2241 142c27,0 54,-1 81,0 33,0 39,-26 32,-42 -10,-22 -37,-17 -66,-17 -53,0 -107,0 -161,0 -28,0 -53,-5 -63,17 -5,11 -2,23 4,31 7,8 14,11 29,11 24,-1 58,-2 80,0l0 250c0,13 -1,27 5,37 14,20 44,18 55,-2 6,-10 4,-25 4,-38l0 -247z"/>
   <path class="fil0" d="M34 1c-26,6 -44,35 -27,63 15,26 49,19 84,19 29,0 191,2 206,0 25,-5 43,-36 26,-63 -16,-26 -48,-19 -84,-19 -27,0 -194,-2 -205,0z"/>
   <path class="fil0" d="M298 522c8,-5 15,-6 21,-14 20,-21 11,-57 -17,-66 -15,-5 -115,-2 -138,-2 -23,0 -123,-3 -137,2 -29,11 -35,46 -16,67 7,7 13,8 21,13l266 0z"/>
   <path class="fil0" d="M1406 234c-30,7 -28,48 -1,55 6,1 88,1 95,0 28,-7 28,-48 1,-55 -6,-1 -89,-2 -95,0z"/>
   <path class="fil1" d="M3338 101c0,8 1,16 -5,18 -9,2 -9,-5 -9,-12 0,-8 -2,-39 3,-42 5,-3 51,-7 44,22 -2,8 -5,7 -9,12 5,5 11,11 7,19 -16,6 -11,-17 -31,-17zm-1 -54c-60,14 -40,103 18,91 22,-5 41,-27 36,-56 -4,-22 -27,-42 -54,-35z"/>
   <path class="fil1" d="M3338 90c7,0 21,2 20,-8 -1,-9 -13,-7 -20,-7l0 15z"/>
   <g>
    <path class="fil2" d="M3334 90l16 0c7,0 10,-3 10,-10 0,-7 -5,-8 -10,-8l-16 0 0 18zm-10 -26l27 0c13,0 19,5 19,15 0,11 -8,14 -10,14l0 1c4,0 9,3 9,12 0,6 1,12 3,15l-11 0c-1,-3 -1,-6 -1,-9 0,-10 -2,-15 -11,-15l-15 0 0 24 -10 0 0 -57z"/>
    <path class="fil2" d="M3346 50c-23,0 -42,19 -42,42 0,23 19,42 42,42 23,0 42,-19 42,-42 0,-23 -19,-42 -42,-42zm0 92c-27,0 -50,-22 -50,-50 0,-27 23,-50 50,-50 28,0 50,23 50,50 0,28 -22,50 -50,50z"/>
   </g>
  </g>
 </g>
</svg>
