<svg width="159" height="11" viewBox="0 0 159 11" version="1.1" xmlns="http://www.w3.org/2000/svg" xmlns:xlink="http://www.w3.org/1999/xlink">
<g id="Canvas" fill="none">
<g id="Logo">
<g id="Fill 2">
<path fill-rule="evenodd" clip-rule="evenodd" d="M 1.26221 3.16961L 1.57994 3.16961L 1.57994 2.17322L 1.9945 2.17322L 2.61777 3.16961L 2.96778 3.16961L 2.30578 2.15228C 2.65005 2.10679 2.91256 1.9364 2.91256 1.51907C 2.91256 1.06131 2.65579 0.859863 2.10424 0.859863L 1.26221 0.859863L 1.26221 3.16961ZM 1.58008 1.14429L 2.0764 1.14429C 2.32815 1.14429 2.59496 1.18328 2.59496 1.50169C 2.59496 1.87064 2.29516 1.88653 1.97312 1.88653L 1.58008 1.88653L 1.58008 1.14429ZM 0 2.00866C 0 3.13574 0.912318 4 2.00538 4C 3.0927 4 4 3.13574 4 1.987C 4 0.86426 3.0927 0 2.00538 0C 0.912318 0 0 0.86426 0 2.00866ZM 0.316895 2.00864C 0.316895 1.02886 1.06568 0.286621 2.00526 0.286621C 2.93479 0.286621 3.68286 1.02886 3.68286 1.98698C 3.68286 2.96604 2.93479 3.70251 2.00526 3.70251C 1.06568 3.70251 0.316895 2.96604 0.316895 2.00864Z" transform="translate(155 0)" fill="#EF7B0F"/>
</g>
<g id="Fill 4">
<path fill-rule="evenodd" clip-rule="evenodd" d="M 16.4842 0L 8.5214 0.00640114L 0 11L 7.57074 11L 8.67796 9.34708L 16.3072 9.34708L 17.4088 10.995L 25 10.995L 16.4842 0ZM 10.123 6.40543L 12.5194 2.77954L 14.9208 6.40543L 10.123 6.40543Z" transform="translate(17 0)" fill="white"/>
</g>
<g id="Fill 5">
<path fill-rule="evenodd" clip-rule="evenodd" d="M 18 7.59695L 6.74811 7.59695L 6.74811 0L 0 0L 0 11L 17.9849 11L 18 7.59695Z" fill="white"/>
</g>
<g id="Fill 6">
<path fill-rule="evenodd" clip-rule="evenodd" d="M 6.53437 10.9943L 6.53437 4.28717L 10.7771 11L 16.2132 11L 20.4656 4.26017L 20.4656 11L 27 11L 27 0L 17.4492 0L 13.4899 6.3931L 9.53468 0L 0 0L 0 11L 6.53437 10.9943Z" transform="translate(42 0)" fill="white"/>
</g>
<g id="Fill 7">
<path fill-rule="evenodd" clip-rule="evenodd" d="M 6.53013 10.9943L 6.53013 4.28717L 10.7786 11L 16.2158 11L 20.4804 4.26017L 20.4804 11L 27 11L 27 0L 17.4473 0L 13.4969 6.3931L 9.53106 0L 0 0L 0 11L 6.53013 10.9943Z" transform="translate(128 0)" fill="#EF7B0F"/>
</g>
<g id="Fill 8">
<path fill-rule="evenodd" clip-rule="evenodd" d="M 0 11L 6 11L 6 0L 0 0L 0 11Z" transform="translate(72 0)" fill="white"/>
</g>
<g id="Fill 9">
<path fill-rule="evenodd" clip-rule="evenodd" d="M 22 10.9943L 22 0.015624L 15.3752 0.015624L 15.3752 6.01098L 7.43195 0L 0.00484978 0L 0 11L 6.61303 11L 6.61303 4.91303L 14.8057 10.9943L 22 10.9943Z" transform="translate(81 0)" fill="white"/>
</g>
<g id="Fill 10">
<path fill-rule="evenodd" clip-rule="evenodd" d="M 16.4845 0L 8.51622 0.00640114L 0 11L 7.56559 11L 8.67772 9.34708L 16.3068 9.34708L 17.4083 10.995L 25 10.995L 16.4845 0ZM 10.1177 6.40543L 12.5189 2.77954L 14.9153 6.40543L 10.1177 6.40543Z" transform="translate(103 0)" fill="white"/>
</g>
</g>
</g>
</svg>
