<?xml version="1.0" encoding="UTF-8"?>
<!DOCTYPE svg PUBLIC "-//W3C//DTD SVG 1.1//EN" "http://www.w3.org/Graphics/SVG/1.1/DTD/svg11.dtd">
<!-- Creator: CorelDRAW X7 -->
<svg xmlns="http://www.w3.org/2000/svg" xml:space="preserve" width="16.2592mm" height="17.5mm" version="1.1" style="shape-rendering:geometricPrecision; text-rendering:geometricPrecision; image-rendering:optimizeQuality; fill-rule:evenodd; clip-rule:evenodd"
viewBox="0 0 250 269"
 xmlns:xlink="http://www.w3.org/1999/xlink">
 <defs>
  <style type="text/css">
   <![CDATA[
    .fil1 {fill:#A7A8AC}
    .fil0 {fill:#F58120}
   ]]>
  </style>
 </defs>
 <g id="Слой_x0020_1">
  <metadata id="CorelCorpID_0Corel-Layer"/>
  <g id="_1905038288">
   <path class="fil0" d="M127 164l69 0 0 -69c-2,0 -48,0 -52,0 -6,0 -10,-1 -14,3 -4,3 -3,8 -3,14l0 35c0,5 0,12 0,17z"/>
   <path class="fil0" d="M196 89c0,-5 0,-11 0,-17l0 -34c0,-6 1,-11 -3,-15 -1,-1 -3,-2 -6,-2 -2,-1 -38,-1 -43,-1 -6,0 -10,0 -14,3 -4,4 -3,9 -3,15l0 34c0,6 -1,11 3,14 3,4 8,3 14,3 4,0 50,0 52,0z"/>
   <path class="fil0" d="M121 164c0,-6 0,-12 0,-17l0 -34c0,-6 1,-11 -3,-15 -3,-4 -8,-3 -14,-3l-34 0c-7,0 -11,-1 -15,3 -4,4 -3,8 -3,14l0 35c0,6 -1,11 3,14 4,4 8,3 14,3 4,0 50,0 52,0z"/>
   <path class="fil0" d="M75 0c-3,1 -5,2 -7,4 -2,2 -3,4 -5,6l-28 28c-2,1 -4,4 -3,8 0,3 2,5 4,7l28 28c4,4 7,9 14,8 3,0 5,-2 7,-4 2,-2 3,-4 5,-6 4,-3 8,-7 11,-11 4,-3 8,-7 11,-11 2,-2 4,-4 6,-5 2,-2 3,-5 3,-9 -1,-3 -3,-5 -4,-7 -2,-2 -4,-3 -6,-5l-22 -23c-4,-4 -8,-9 -14,-8z"/>
   <path class="fil1" d="M220 199c0,0 -1,0 0,0l10 17 -20 0 10 -17zm-104 8c1,-1 2,-2 3,-4l2 -4c0,0 0,0 1,0 0,1 6,11 7,13 0,1 2,3 2,4l-19 0 4 -9zm48 18c1,-1 3,-3 5,-4 1,-2 2,-3 4,-4l17 -17c0,-1 6,-6 6,-7 0,0 0,-3 0,-3l-45 0 0 7 28 0c0,1 -6,7 -7,8l-23 23c-1,-1 -3,-3 -3,-5l-14 -24c-1,-1 -2,-3 -3,-5 -1,-1 -2,-3 -3,-4l-10 0c0,0 -17,29 -19,33 0,1 -1,2 -1,2l-34 0 0 -35 -10 0 0 44 49 0c1,-1 1,-1 1,-2l5 -8 28 0 5 9c1,0 1,0 1,1l59 0c0,-1 3,-5 3,-5 1,-2 2,-4 3,-5l28 0c1,1 2,3 3,5 0,0 2,4 3,5l10 0 -25 -44 -10 0c-1,0 -10,17 -11,17 -2,4 -8,15 -10,18l-30 0z"/>
   <path class="fil1" d="M10 197c6,0 11,0 17,0 10,0 11,-1 11,6 0,3 0,5 -3,6 -1,0 -23,0 -25,0l0 -12zm-10 37l10 0 0 -18c7,0 15,0 22,0 3,0 9,0 11,0 3,-1 5,-3 5,-7l0 -13c0,-4 -3,-6 -7,-6 -4,-1 -9,0 -14,0 -9,0 -18,-1 -27,0l0 44z"/>
   <path class="fil1" d="M116 252c0,-1 15,-1 15,0 2,0 1,4 1,6 0,2 1,6 -1,7 0,0 -14,0 -15,0 -2,-1 -1,-4 -1,-7 0,-3 -1,-6 1,-6zm21 14c0,-1 0,-9 0,-12 0,-5 0,-6 -5,-6 -4,0 -8,0 -12,0 -4,0 -9,-1 -10,2 0,2 0,10 0,12 0,6 0,7 5,7 5,0 9,0 13,0 3,0 8,1 9,-3z"/>
   <path class="fil1" d="M51 264c0,2 1,4 4,5 1,0 14,0 16,0 3,0 5,-1 5,-4 1,-9 -2,-9 -7,-9 -3,0 -6,0 -9,0 -3,0 -4,1 -3,-5 2,0 5,0 8,0 7,0 7,0 7,3l4 -1c0,-5 -2,-5 -6,-5 -19,0 -18,-1 -18,7 0,2 1,3 2,4 1,1 11,1 14,1 2,0 4,0 4,1 0,2 0,4 -1,4 -2,0 -4,0 -5,0 -12,0 -10,1 -10,-3l-5 2z"/>
   <path class="fil1" d="M149 255c1,0 4,3 5,4 2,1 3,2 5,3l8 6c1,1 1,1 3,1l0 -21 -4 0 0 14 -15 -12c-3,-2 -3,-2 -7,-2l0 21 5 0 0 -14z"/>
   <path class="fil1" d="M183 251c3,0 12,0 16,0 2,0 2,1 2,-3 -6,0 -17,0 -23,0l0 21 23 0c0,-1 0,-2 0,-3 0,-1 0,-1 -2,-1 -3,0 -14,0 -16,0l0 -6 10 0 0 -3 -10 0 0 -5z"/>
   <path class="fil1" d="M79 252l11 0c0,3 -1,15 0,17l5 0 0 -17 10 0 0 -4 -26 0 0 3 0 1z"/>
  </g>
 </g>
</svg>
