<?xml version="1.0" encoding="UTF-8"?>
<!DOCTYPE svg PUBLIC "-//W3C//DTD SVG 1.1//EN" "http://www.w3.org/Graphics/SVG/1.1/DTD/svg11.dtd">
<!-- Creator: CorelDRAW X7 -->
<svg xmlns="http://www.w3.org/2000/svg" xml:space="preserve" width="41.5498mm" height="17.7mm" version="1.1" style="shape-rendering:geometricPrecision; text-rendering:geometricPrecision; image-rendering:optimizeQuality; fill-rule:evenodd; clip-rule:evenodd"
viewBox="0 0 1363 581"
 xmlns:xlink="http://www.w3.org/1999/xlink">
 <defs>
  <style type="text/css">
   <![CDATA[
    .str0 {stroke:#2B2A29;stroke-width:6.5624}
    .fil0 {fill:#2B2A29}
    .fil1 {fill:#FCFCFC}
   ]]>
  </style>
 </defs>
 <g id="Слой_x0020_1">
  <metadata id="CorelCorpID_0Corel-Layer"/>
  <g id="_1905059024">
   <rect class="fil0 str0" x="3" y="3" width="1357" height="574"/>
   <g>
    <path class="fil1" d="M1076 245l0 91c5,2 3,3 10,3 9,0 7,-17 7,-22 0,-10 0,-20 0,-30 4,0 3,-1 7,9 2,4 4,8 6,12 4,8 6,19 16,19 6,0 8,-3 10,-7l11 -23c1,-2 2,-4 3,-6 2,-3 1,-4 4,-4 2,4 1,27 1,31 0,13 -3,21 10,21 3,0 6,-4 6,-7l0 -83c0,-6 -2,-3 -4,-8 -14,0 -12,3 -24,27 -2,6 -13,31 -17,34 -2,-1 -1,0 -3,-4l-25 -51c-6,-13 -17,-2 -18,-2z"/>
    <path class="fil1" d="M133 324c-16,4 -27,-4 -28,-20 -1,-11 -3,-36 5,-44 11,-10 29,-7 35,4 3,6 4,39 1,45 -3,1 -7,-2 -8,-5l-9 0c-1,3 -5,5 -2,11 2,4 6,2 6,9zm34 8c-2,-4 -4,-4 -6,-6 -3,-3 -1,-4 0,-8 2,-6 3,-13 3,-20 0,-13 1,-31 -5,-42 -10,-16 -32,-21 -50,-13 -22,10 -21,26 -21,49 0,17 0,28 10,37 9,7 21,12 37,9 9,-1 10,-6 16,-1 2,2 3,4 8,4 5,1 5,-1 8,-3l0 -6z"/>
    <path class="fil1" d="M454 284c-6,0 -5,-4 -4,-10 0,-17 -2,-18 4,-18 18,-1 39,-3 36,17 -2,14 -20,11 -36,11zm34 12c9,-4 16,-9 18,-19 3,-13 -2,-24 -9,-29 -12,-9 -31,-7 -50,-7 -12,0 -7,0 -14,5 -1,18 0,39 0,57 0,15 -4,35 7,37 6,0 6,-3 9,-5l1 -36c3,-2 15,-2 19,0 2,1 0,0 2,3l17 30c7,13 18,5 18,-2 -1,-4 -18,-27 -18,-34z"/>
    <path class="fil1" d="M984 284c-7,0 -5,-4 -5,-10 0,-4 -1,-13 0,-16 0,-3 1,-2 4,-2l23 0c10,1 15,6 14,17 -2,14 -20,11 -36,11zm33 12c10,-4 16,-8 19,-19 3,-13 -3,-24 -9,-29 -10,-6 -18,-7 -32,-7 -6,0 -12,0 -18,0 -12,0 -7,0 -14,5l-1 86c1,4 4,7 7,8 6,0 6,-3 10,-5l0 -36c4,-2 15,-2 19,0 2,0 17,28 20,33 7,13 18,5 17,-2 0,-2 -5,-8 -6,-11 -3,-5 -11,-18 -12,-23z"/>
    <path class="fil1" d="M879 255c8,-1 16,2 21,7 5,5 5,14 5,23 0,20 2,37 -17,40 -9,2 -16,-1 -21,-6 -5,-5 -5,-15 -5,-23 0,-20 -2,-37 17,-41zm-3 -14c-12,2 -21,9 -26,17 -6,10 -5,27 -5,40 1,18 2,24 12,33 15,14 48,12 60,-8 6,-11 5,-27 4,-40 0,-16 -2,-27 -11,-33 -8,-7 -19,-11 -34,-9z"/>
    <path class="fil1" d="M281 245c-3,-2 -6,-6 -12,-4 0,1 -4,4 -4,4 -1,2 -1,5 -1,7 0,11 0,22 0,33 0,15 5,43 -24,40 -24,-2 -19,-25 -19,-46 0,-6 1,-28 0,-32 -1,-4 -8,-10 -15,-3 -2,2 -1,2 -1,6 -1,13 -2,53 1,64 8,36 70,34 74,-4l1 -65z"/>
    <path class="fil1" d="M355 271c3,1 1,-1 3,2l5 13c7,20 9,17 -12,17 -9,0 -10,1 -7,-7 2,-5 8,-23 11,-25zm-15 47l31 0c6,0 5,3 9,13 2,5 1,5 6,7 2,1 5,2 8,0 6,-4 2,-11 0,-17 -2,-6 -5,-11 -7,-17l-20 -50c-6,-16 -16,-18 -23,-1l-27 67c-2,6 -6,13 0,17 2,2 5,2 8,1 5,-2 5,-4 9,-15 1,-4 1,-5 6,-5z"/>
    <path class="fil1" d="M1202 322c0,8 2,8 8,11 4,3 7,4 13,6 44,11 65,-26 44,-46 -6,-7 -14,-8 -26,-10 -11,-2 -22,-3 -22,-15 1,-15 23,-17 36,-8 6,4 9,1 13,-2l0 -8c-3,-1 -6,-4 -11,-6 -13,-5 -32,-5 -43,3 -16,12 -15,37 4,46 9,4 20,4 30,6 5,1 8,3 10,8 2,5 0,10 -3,13 -6,6 -19,7 -28,4 -8,-2 -19,-15 -25,-2z"/>
    <path class="fil1" d="M698 325c-9,0 -32,1 -37,0 -1,-4 3,-7 5,-10 2,-4 4,-6 6,-10l25 -37c8,-12 10,-13 10,-23 -7,-4 -2,-4 -13,-4l-49 0c-1,2 -4,5 -4,7 -1,3 2,6 4,7 4,2 18,1 23,1 15,0 20,-2 15,5l-28 42c-11,16 -30,37 -2,36l40 0c13,1 14,-2 14,-10 -4,-2 -3,-4 -9,-4z"/>
    <path class="fil1" d="M766 260c0,-6 6,-4 12,-4l30 0c14,0 12,-15 2,-15l-53 0c-4,0 -4,3 -7,4l0 90c3,2 3,4 7,4 6,0 9,-4 9,-5 0,-6 0,-12 0,-18 0,-12 -2,-16 3,-17 1,0 3,0 4,0 2,0 4,0 6,0 20,0 31,3 31,-10 -3,-3 -3,-5 -8,-5 -10,0 -27,1 -36,0l0 -24z"/>
    <path class="fil1" d="M581 334l0 -59c0,-23 -3,-19 16,-19 19,0 12,-11 9,-14 -3,-2 -9,-1 -14,-1l-45 0c-10,0 -6,1 -12,4l0 5c2,3 -1,0 2,3 3,3 4,3 7,3 21,0 20,-3 20,8l0 70c3,7 13,7 17,0z"/>
   </g>
  </g>
 </g>
</svg>
