<?xml version="1.0" encoding="UTF-8"?>
<!DOCTYPE svg PUBLIC "-//W3C//DTD SVG 1.1//EN" "http://www.w3.org/Graphics/SVG/1.1/DTD/svg11.dtd">
<!-- Creator: CorelDRAW X7 -->
<svg xmlns="http://www.w3.org/2000/svg" xml:space="preserve" width="71.4mm" height="10.4497mm" version="1.1" style="shape-rendering:geometricPrecision; text-rendering:geometricPrecision; image-rendering:optimizeQuality; fill-rule:evenodd; clip-rule:evenodd"
viewBox="0 0 3989 584"
 xmlns:xlink="http://www.w3.org/1999/xlink">
 <defs>
  <style type="text/css">
   <![CDATA[
    .fil14 {fill:#FEFEFE}
    .fil2 {fill:#007A2A}
    .fil3 {fill:#0091D1}
    .fil7 {fill:#1794C8}
    .fil0 {fill:#19171C}
    .fil9 {fill:#36A5D3}
    .fil11 {fill:#479BC7}
    .fil5 {fill:#565557}
    .fil10 {fill:#76CAEE}
    .fil4 {fill:#7B7A7C}
    .fil13 {fill:#8FD2F1}
    .fil8 {fill:#9B9A9C}
    .fil12 {fill:#B8EAFD}
    .fil1 {fill:#DD002D}
    .fil6 {fill:white}
    .fil15 {fill:#2B2A29;fill-rule:nonzero}
   ]]>
  </style>
 </defs>
 <g id="Слой_x0020_1">
  <metadata id="CorelCorpID_0Corel-Layer"/>
  <path class="fil0" d="M1333 491l77 0c0,-34 -2,-253 1,-272 4,-25 24,-42 50,-43 27,0 45,15 50,42 3,18 1,240 1,273l77 0c1,-33 -2,-253 1,-272 4,-26 24,-42 49,-43 68,-1 52,86 52,131 0,62 0,123 0,184l77 0c1,-52 0,-104 0,-156 0,-84 22,-209 -86,-226 -22,-4 -45,-3 -67,4 -24,8 -31,19 -48,31 -27,-25 -36,-35 -76,-37 -46,-3 -64,20 -83,29l0 -32 -74 0 -1 387z"/>
  <path class="fil0" d="M2427 176c86,-23 66,23 66,86 0,35 10,109 -35,120 -98,24 -80,-193 -31,-206zm-14 408l40 0c41,-14 66,-13 95,-54 27,-39 22,-82 22,-127 0,-50 0,-100 0,-150 0,-47 3,-102 -1,-148 -36,-3 -162,-4 -193,6 -58,20 -61,91 -61,142 0,55 -11,131 31,173 20,20 46,28 74,27 34,0 48,-8 72,-29 2,33 3,70 -30,87 -16,8 -35,8 -52,5 -21,-5 -24,-11 -39,-21 -8,5 -41,38 -48,47 15,30 84,39 90,42z"/>
  <path class="fil0" d="M2677 0l-76 0 -1 495 77 -1 1 -272c3,-26 21,-44 48,-44 27,-1 46,16 50,42 2,17 1,248 0,274l78 1c-1,-69 4,-243 -1,-293 -4,-39 -24,-74 -61,-87 -65,-24 -100,17 -115,22l0 -137z"/>
  <path class="fil0" d="M3910 300l2 32c0,23 2,85 0,100 -8,3 -62,2 -69,-2 -47,-5 -40,-64 -36,-99 5,-45 70,-28 103,-31zm79 -69l0 31c0,20 -1,42 -1,64 0,55 2,115 -1,169 -94,-11 -242,37 -254,-86 -2,-20 -2,-65 0,-85 11,-92 122,-77 177,-77 3,-32 3,-68 -34,-75 -46,-9 -60,5 -82,23l-48 -47c22,-39 86,-46 125,-43 99,6 116,56 118,126z"/>
  <path class="fil0" d="M459 300c6,10 2,125 2,132 -8,3 -63,2 -69,-2 -46,-4 -40,-64 -36,-99 6,-44 69,-29 103,-31zm-164 -152l47 47c17,-11 32,-34 83,-23 37,8 38,42 34,75 -58,1 -165,-15 -177,77 -2,19 -2,66 0,85 5,51 36,79 86,84 23,3 134,1 169,1 3,-53 0,-114 0,-168 0,-118 23,-212 -117,-221 -24,-2 -53,0 -75,7 -15,5 -45,22 -50,36z"/>
  <path class="fil0" d="M572 495l77 -1c0,-30 -2,-255 1,-275 9,-58 90,-61 100,-3 3,17 2,255 1,279l78 0c-1,-61 3,-262 -2,-300 -11,-94 -116,-117 -179,-60l-1 -30 -74 -1 -1 391z"/>
  <path class="fil0" d="M1155 302c7,-5 61,-4 72,-2 3,10 3,121 0,131 -7,2 -65,1 -67,-2 -54,3 -51,-126 -5,-127zm-19 190l167 2 0 -263c0,-9 -2,-34 -1,-39 1,-22 -15,-47 -31,-60 -20,-16 -43,-23 -68,-26 -26,-3 -60,-3 -85,4 -17,5 -49,23 -56,38 10,10 40,42 50,47 23,-24 46,-31 81,-23 36,8 37,42 34,74 -45,5 -166,-20 -177,79 -3,27 -3,92 8,117 12,29 46,52 78,50z"/>
  <path class="fil0" d="M1903 302c7,-5 61,-4 72,-2 3,10 3,121 0,131l-61 0 -6 -2c-53,3 -52,-125 -5,-127zm-19 190l167 2 0 -263c0,-8 -2,-34 -1,-39 1,-23 -14,-46 -31,-60 -20,-16 -44,-23 -68,-26 -26,-3 -60,-3 -85,4 -17,5 -49,23 -56,38 10,9 41,43 50,47 21,-24 48,-30 81,-23 37,8 37,42 34,74 -46,5 -166,-20 -177,78 -4,28 -3,93 8,118 13,29 46,52 78,50z"/>
  <path class="fil0" d="M2964 245c7,-107 110,-105 116,0l-116 0zm166 206l-49 -47c-12,10 -18,20 -42,23 -17,3 -44,2 -58,-8 -18,-14 -17,-33 -16,-53 0,-17 -2,-54 1,-68l190 0c0,-46 4,-82 -17,-125 -48,-98 -217,-100 -247,41 -8,39 -5,96 -5,137 0,45 -4,80 31,113 28,27 74,31 111,30 43,-1 72,-10 101,-43z"/>
  <path class="fil0" d="M17 430c-2,13 -4,53 1,63 10,4 90,1 107,1 33,0 63,2 92,-18 24,-16 36,-44 37,-73 0,-27 3,-80 -7,-103 -33,-77 -125,-38 -158,-60 -21,-14 -19,-57 19,-67 14,-4 36,-4 50,-1 19,5 21,12 34,23 6,-3 6,-5 12,-10l37 -37c-10,-22 -53,-39 -77,-42 -32,-4 -74,-2 -104,10 -36,14 -58,52 -60,90l0 11c1,21 9,41 24,56 26,26 57,27 92,27 52,0 63,1 63,55 0,41 9,75 -44,76 -37,0 -82,1 -118,-1z"/>
  <path class="fil0" d="M892 105l-30 0 0 69 30 0c4,16 1,192 2,225 1,102 73,95 131,96l-1 -65c-8,0 -28,4 -34,-3 -24,-4 -18,-29 -18,-49 0,-23 0,-46 0,-68 0,-45 0,-91 0,-136 10,-5 40,-2 53,-2l0 -67 -52 0c-5,-3 -3,-2 -3,-11l0 -92 -74 0c-2,23 4,100 -4,103z"/>
  <path class="fil0" d="M3577 106l-31 -1 0 69 32 0c4,11 1,196 1,225 0,89 57,99 131,95l0 -65c-62,-3 -54,9 -54,-101 0,-23 -2,-142 2,-154l53 -1 -1 -67 -52 -1c-7,-2 -3,-92 -3,-103l-73 0 0 92c0,17 -2,10 -5,12z"/>
  <path class="fil0" d="M3268 130c-3,3 3,3 -4,2l-2 -28 -72 0 -1 387 78 0c1,-71 0,-143 0,-215 0,-29 -7,-69 16,-91 33,-33 66,-2 74,3l58 -57c-23,-35 -101,-45 -147,-1z"/>
  <path class="fil0" d="M2171 130c-2,2 2,3 -3,2l0 -27 -74 0 1 385 75 1c2,-70 0,-144 0,-215 0,-29 -5,-70 15,-91 23,-24 54,-16 75,3 9,-7 56,-52 58,-59 -30,-35 -94,-36 -132,-11 -6,4 -11,10 -15,12z"/>
  <path class="fil0" d="M3435 491l75 0 1 -386 -77 -1c-2,21 0,250 0,291 0,21 -3,80 1,96z"/>
  <polygon class="fil1" points="3340,582 3711,582 3711,534 3341,534 "/>
  <polygon class="fil2" points="2600,582 2971,582 2971,534 2601,534 "/>
  <path class="fil3" d="M3437 78l75 -1 -1 -73c-10,-3 -63,-3 -74,0l0 74z"/>
  <path class="fil4" d="M2170 491l-75 -1 -1 -385 74 0 0 27c5,1 1,0 3,-2l-1 -26c-13,-2 -67,-2 -77,0l-1 387c14,3 68,3 78,0z"/>
  <path class="fil5" d="M1136 492c9,5 150,4 168,2 2,-27 3,-296 -2,-302 -1,5 1,30 1,39l0 263 -167 -2z"/>
  <path class="fil5" d="M1884 492c9,5 150,4 168,2 2,-28 3,-296 -2,-302 -1,5 1,31 1,39l0 263 -167 -2z"/>
  <path class="fil6" d="M3948 543c15,-3 33,1 18,16 4,6 5,5 6,12 -12,-2 -3,-7 -16,-12 -6,9 2,9 -7,12l-1 -28zm33 22c12,-26 -28,-44 -40,-19 -13,27 28,46 40,19z"/>
  <path class="fil7" d="M435 540l25 1c9,18 -14,14 -26,14l1 -15zm27 25l-3 -4 4 -3c16,-13 3,-32 -35,-23 -1,11 -3,39 2,47 7,-4 3,2 4,-21l17 0c3,4 4,7 7,12 5,10 2,9 11,9l-7 -17z"/>
  <path class="fil7" d="M1804 540c40,-4 39,19 0,14l0 -14zm-3 42c1,0 1,-2 1,-1 0,0 1,-2 1,-2 0,-3 0,-2 1,-6 0,-3 0,-7 0,-11l16 -1c9,10 6,20 19,21l-10 -19c6,-10 11,-4 9,-22 -9,-11 -26,-8 -41,-7l0 38c0,9 -2,7 4,10z"/>
  <path class="fil7" d="M352 540c22,-9 32,26 13,35 -21,10 -38,-24 -13,-35zm1 44l9 0c12,-7 21,-8 20,-27 -1,-15 -9,-24 -25,-24 -14,0 -23,10 -24,24 0,17 8,20 20,27z"/>
  <path class="fil7" d="M586 584l12 0c15,-9 16,-8 15,-28 -16,-1 -14,-1 -19,3 4,6 6,0 13,6 -5,20 -32,13 -33,-7 0,-7 6,-16 13,-18 14,-5 13,5 24,6 0,-6 2,-5 -5,-9 -10,-7 -27,-5 -34,6 -5,7 -5,17 -2,26 3,9 9,10 16,15z"/>
  <path class="fil7" d="M1637 584l14 0c22,-17 17,-29 -8,-31 -18,-2 -13,-4 -15,-6 6,-17 22,-4 30,-3l3 -1c0,-10 -31,-18 -40,1 3,23 21,8 37,21 -3,24 -28,6 -36,5 -3,12 -2,5 15,14z"/>
  <path class="fil7" d="M190 582c6,0 12,0 18,0 8,0 13,2 19,-2 -5,-8 -9,-3 -31,-4l0 -16c8,-1 13,1 18,-3 -4,-7 -9,-4 -18,-4l0 -13c12,-1 25,2 30,-2 -2,-4 5,-4 -16,-4 -8,0 -13,-1 -21,1 -1,12 -2,36 1,47z"/>
  <path class="fil3" d="M721 582c2,-4 1,4 2,-6l1 -27c13,7 19,28 33,33 -1,-8 -1,-16 0,-25l-1 -19c-1,-3 -1,-2 -2,-4 -4,2 -2,-1 -4,4l0 29c-9,-7 -23,-32 -32,-32 -1,9 -4,43 3,47z"/>
  <path class="fil7" d="M1474 582c2,-5 2,-5 2,-15 0,-6 0,-12 0,-18 10,4 20,27 33,33l0 -38c0,-9 1,-5 -3,-10 -6,7 -2,22 -3,32 -11,-2 -20,-30 -33,-31 0,10 -4,42 4,47z"/>
  <path class="fil7" d="M2138 540c9,0 22,2 30,-2 -4,-7 -22,-5 -36,-4 -1,13 -2,36 1,48 9,1 30,3 37,-2 -5,-8 -11,-3 -32,-4l0 -16c7,-1 13,1 19,-3 -3,-6 4,-4 -19,-4l0 -13z"/>
  <path class="fil3" d="M826 544l7 19 -18 0 11 -19zm-25 38c8,-1 7,-5 11,-13l25 0c5,9 3,12 13,13 -4,-11 -12,-26 -17,-37 -3,-7 -3,-8 -8,-11 -7,4 -24,39 -24,48z"/>
  <path class="fil7" d="M104 582c1,-2 1,0 2,-5l1 -18 26 0c1,24 -3,20 4,23 3,-4 1,2 2,-5l0 -33c0,-10 2,-7 -4,-10 -4,6 -2,10 -2,18l-27 0c0,-10 3,-14 -4,-18 -4,7 -3,28 -3,38 1,9 -1,7 5,10z"/>
  <path class="fil3" d="M1393 563c1,-6 4,-14 9,-18l8 18 -17 0zm27 18l6 1 -1 -6c-8,-9 -13,-33 -23,-42 -8,4 -22,38 -25,48 10,-2 5,-3 12,-12l24 -1 7 12z"/>
  <path class="fil3" d="M1974 545c5,4 8,11 10,18l-19 0 9 -18zm-24 37c10,-2 8,-3 12,-13l26 0c5,10 1,11 11,13 -2,-9 -17,-42 -23,-48 -9,4 -23,37 -26,48z"/>
  <path class="fil3" d="M1178 544c5,5 8,12 10,19l-18 0 8 -19zm-24 38c10,-2 7,-2 12,-12l26 -1c6,11 2,11 12,13 -2,-9 -18,-42 -24,-48 -8,4 -23,37 -26,48z"/>
  <path class="fil7" d="M2057 584l13 0c5,-4 16,-7 14,-15 -8,-4 -3,-2 -10,4 -24,18 -42,-28 -14,-34 15,-3 12,9 23,7 1,-31 -81,-1 -26,38z"/>
  <path class="fil5" d="M3577 106c3,-2 5,5 5,-12l0 -92 73 0c0,11 -4,101 3,103l-2 -105 -77 0c-1,25 3,87 -2,106z"/>
  <path class="fil5" d="M892 105c8,-3 2,-80 4,-103l74 0 0 92c0,9 -2,8 3,11 -5,-22 1,-77 -1,-105l-78 0 -2 105z"/>
  <path class="fil7" d="M1889 582c4,-6 2,-11 2,-22l19 -1c-2,-11 3,-4 -19,-7l0 -11 25 -1c10,-2 3,1 6,-4 -7,-4 -26,-3 -37,-1 0,8 0,16 0,24 0,4 0,9 0,13 0,10 -2,7 4,10z"/>
  <path class="fil3" d="M1724 584l11 0c5,-3 9,-4 12,-10 1,-11 3,-30 -2,-39 -4,12 3,27 -4,37 -5,8 -16,7 -23,1 -6,-8 2,-30 -4,-39 -4,2 -4,-5 -4,14 1,34 -2,27 14,36z"/>
  <path class="fil8" d="M1160 429c2,3 60,4 67,2 3,-10 3,-121 0,-131 -11,-2 -65,-3 -72,2l71 -1 0 129 -66 -1z"/>
  <path class="fil8" d="M1908 429l6 2 61 0c3,-10 3,-121 0,-131 -11,-2 -65,-3 -72,2l71 -1 0 129 -66 -1z"/>
  <path class="fil5" d="M392 430c6,4 61,5 69,2 0,-7 4,-122 -2,-132l0 131 -67 -1z"/>
  <path class="fil7" d="M893 582l32 0c11,-2 4,0 5,-4 -2,-2 6,-1 -5,-2l-26 0c0,-12 3,-33 -2,-42 -9,6 -4,37 -4,48z"/>
  <path class="fil7" d="M17 538c4,3 0,1 8,2 3,0 7,0 10,0 2,17 -3,38 4,42 1,0 1,-2 1,-1l2 -41 19 -1c-1,-6 3,-4 -7,-5l-27 -1c-14,1 -6,0 -10,5z"/>
  <path class="fil7" d="M1248 582c6,0 13,0 19,0 9,0 12,2 17,-2 -5,-10 -13,0 -30,-5l0 -31c0,-10 1,-5 -3,-10 -6,7 -4,38 -3,48z"/>
  <path class="fil5" d="M3843 430c7,4 61,5 69,2 2,-15 0,-77 0,-100l-2 -32 0 131 -67 -1z"/>
  <path class="fil7" d="M1101 541l0 30c0,8 -1,6 2,11 5,-2 5,6 4,-19 0,-7 0,-15 1,-22 9,-7 10,1 17,-5 -9,-2 -33,-2 -41,0l17 5z"/>
  <path class="fil9" d="M3437 78l0 -74c11,-3 64,-3 74,0l0 -4 -77 0c-1,13 0,27 0,39l0 30c0,8 1,6 3,9z"/>
  <path class="fil7" d="M519 582c4,-4 2,2 3,-4 0,-1 0,-6 0,-7l0 -25c0,0 0,-6 0,-6 -1,-6 0,-4 -3,-7 -5,4 -4,-5 -4,24 0,24 -2,22 4,25z"/>
  <path class="fil7" d="M1041 582c5,-8 5,-41 0,-49 -5,6 -5,34 -4,43 2,8 0,2 4,6z"/>
  <path class="fil7" d="M1330 582c5,-4 3,2 3,-23 0,-8 2,-19 -2,-26 -7,2 -4,13 -4,22l0 21c1,7 1,4 3,6z"/>
  <path class="fil4" d="M972 174l53 0c3,-12 4,-60 0,-69l0 67c-13,0 -43,-3 -53,2z"/>
  <path class="fil7" d="M665 582c3,-6 5,-46 -2,-49 -3,6 -2,30 -2,39 0,9 -2,7 4,10z"/>
  <path class="fil10" d="M1741 572c7,-10 0,-25 4,-37 5,9 3,28 2,39 5,-7 3,-12 3,-21 0,-11 3,-15 -5,-21 -7,8 -3,29 -4,40z"/>
  <path class="fil4" d="M1025 495l2 -32c0,-11 1,-23 -1,-34l-36 -2c6,7 26,3 34,3l1 65z"/>
  <path class="fil11" d="M1101 541l-17 -5c8,-2 32,-2 41,0 -7,6 -8,-2 -17,5 8,-1 14,1 20,-3 -2,-5 2,-4 -8,-5 -3,0 -11,0 -15,0 -12,0 -21,-4 -23,7l19 1z"/>
  <path class="fil4" d="M3268 130l-3 -5c1,-4 1,-8 1,-11 -1,-11 1,-6 -4,-10l2 28c7,1 1,1 4,-2z"/>
  <path class="fil6" d="M3966 548l-12 -2c0,7 -2,7 4,9 6,1 7,-3 8,-7z"/>
  <polygon class="fil12" points="1420,581 1420,584 1426,584 1429,579 1425,576 1426,582 "/>
  <polygon class="fil13" points="462,565 463,558 459,561 "/>
  <path class="fil14" d="M3954 552c7,0 8,-1 13,-2 -1,-6 -2,-9 -8,-9l-5 0 0 11z"/>
  <g id="_968829008">
   <path class="fil15" d="M3953 552l9 0c3,0 5,-1 5,-5 0,-4 -3,-5 -5,-5l-9 0 0 10zm-6 -14l15 0c7,0 11,3 11,8 0,6 -5,8 -6,8l0 0c2,1 5,2 5,7 0,4 1,7 2,9l-6 0c-1,-2 -1,-4 -1,-5 0,-6 -1,-9 -6,-9l-8 0 0 14 -6 0 0 -32z"/>
   <path class="fil15" d="M3959 530c-13,0 -23,11 -23,24 0,13 10,23 23,23 13,0 24,-10 24,-23 0,-13 -11,-24 -24,-24zm0 52c-15,0 -28,-13 -28,-28 0,-16 13,-28 28,-28 16,0 28,12 28,28 0,15 -12,28 -28,28z"/>
  </g>
 </g>
</svg>
