<?xml version="1.0" encoding="UTF-8"?>
<!DOCTYPE svg PUBLIC "-//W3C//DTD SVG 1.1//EN" "http://www.w3.org/Graphics/SVG/1.1/DTD/svg11.dtd">
<!-- Creator: CorelDRAW X7 -->
<svg xmlns="http://www.w3.org/2000/svg" xml:space="preserve" width="60.0455mm" height="17.4534mm" version="1.1" style="shape-rendering:geometricPrecision; text-rendering:geometricPrecision; image-rendering:optimizeQuality; fill-rule:evenodd; clip-rule:evenodd"
viewBox="0 0 2611 759"
 xmlns:xlink="http://www.w3.org/1999/xlink">
 <defs>
  <style type="text/css">
   <![CDATA[
    .fil3 {fill:#FEFEFE}
    .fil2 {fill:#D91E43}
    .fil0 {fill:#CECED3}
    .fil4 {fill:#333231}
    .fil1 {fill:white}
    .fil5 {fill:#2B2A29;fill-rule:nonzero}
   ]]>
  </style>
 </defs>
 <g id="Слой_x0020_1">
  <metadata id="CorelCorpID_0Corel-Layer"/>
  <g id="_2028658544">
   <polygon class="fil0" points="0,0 2611,0 2611,759 0,759 "/>
   <g>
    <polygon class="fil1" points="23,23 23,735 2587,735 2587,23 "/>
   </g>
   <path class="fil2" d="M2469 485c0,52 -14,87 -46,112 -33,25 -77,34 -125,33l0 -89c29,0 48,-5 61,-22 13,-17 12,-47 7,-71 -11,-44 -27,-87 -37,-132 -16,-73 -3,-144 62,-179 13,-7 46,-20 64,-21l0 100c-9,7 -15,11 -22,21 -1,3 -2,4 -3,7 -4,9 -5,17 -6,27 -2,51 45,152 45,214zm-594 -460c2,11 0,595 0,665 0,13 1,33 0,45l712 0 0 -711c-206,-1 -416,0 -624,0 -16,0 -77,-2 -88,1z"/>
   <path class="fil3" d="M2469 485c0,-62 -47,-163 -45,-214 1,-10 2,-18 6,-27 1,-3 2,-4 3,-7 7,-10 13,-14 22,-21l0 -100c-18,1 -51,14 -64,21 -65,35 -78,106 -62,179 10,45 26,88 37,132 5,24 6,54 -7,71 -13,17 -32,22 -61,22l0 89c48,1 92,-8 125,-33 32,-25 46,-60 46,-112z"/>
   <path class="fil4" d="M1447 351c-6,-7 -29,-46 -36,-57l-36 -58 -33 -1 0 184 34 0 -1 -117c5,4 35,54 38,59 6,10 34,55 36,61 11,-1 21,-3 32,-6l0 -180 -34 -1c-3,10 1,98 0,116z"/>
   <path class="fil4" d="M1254 339c-3,22 -10,43 -32,49 -40,11 -66,-21 -60,-74 4,-32 21,-56 57,-49 30,6 39,41 35,74zm-62 -106c-56,9 -75,59 -69,111 7,53 41,85 101,77 50,-7 74,-52 68,-110 -5,-54 -40,-86 -100,-78z"/>
   <path class="fil4" d="M839 378c-4,10 -8,22 -12,32 97,42 137,-32 110,-72 -20,-32 -85,-31 -72,-62 3,-6 9,-9 17,-11 21,-4 29,5 45,9l12 -31c-10,-7 -30,-11 -44,-11 -70,-1 -80,59 -56,87 16,19 62,27 68,43 7,17 -8,27 -24,27 -18,1 -30,-6 -44,-11z"/>
   <path class="fil4" d="M301 378l-12 32c24,13 66,18 90,3 27,-15 36,-52 21,-75 -21,-32 -86,-31 -73,-62 3,-6 9,-9 17,-11 21,-4 29,5 45,9l12 -31c-8,-6 -32,-11 -44,-11 -30,0 -60,12 -66,43 -12,65 69,63 78,87 7,18 -8,27 -24,27 -18,1 -30,-6 -44,-11z"/>
   <path class="fil4" d="M1640 388l-64 -1 1 -46 51 -1 0 -31 -51 0 -1 -41 52 -1 9 -31 -97 -1c-2,10 -1,170 -1,184l101 0 0 -31z"/>
   <polygon class="fil4" points="727,340 778,340 778,313 726,313 727,267 779,267 788,236 690,235 690,419 790,419 790,387 727,387 "/>
   <polygon class="fil4" points="968,267 1017,268 1017,419 1054,419 1054,268 1103,267 1103,236 968,235 "/>
   <path class="fil4" d="M550 419l102 0 0 -32 -65 0 0 -151 -37 -1c-2,7 0,163 0,184z"/>
   <path class="fil4" d="M454 419l37 0 0 -183 -36 -1c-3,9 -1,78 -1,92 0,30 0,61 0,92z"/>
   <path class="fil0" d="M777 515c35,-9 39,48 13,56 -34,9 -39,-49 -13,-56zm-34 37c7,49 89,47 82,-17 -6,-52 -92,-47 -82,17z"/>
   <path class="fil0" d="M1350 547c-6,-40 44,-44 45,-8 1,16 -4,30 -18,32 -17,3 -25,-10 -27,-24zm12 -46c-26,7 -35,30 -30,53 5,22 24,37 51,31 50,-11 37,-99 -21,-84z"/>
   <path class="fil0" d="M1013 584l15 0c2,-17 1,-33 1,-51 4,1 31,37 35,43 5,6 6,9 17,8 1,-25 0,-56 0,-82l-16 -1 0 47c-3,-2 -25,-30 -28,-35 -13,-15 -4,-11 -32,-12 3,6 7,6 8,15 1,17 -2,50 0,68z"/>
   <path class="fil0" d="M1240 522l0 62 14 0c2,-17 1,-34 1,-51 4,1 29,35 36,43 5,6 5,10 16,8l1 -82 -16 -1 0 47c-4,-1 -34,-41 -38,-47l-22 0c4,11 8,3 8,21z"/>
   <path class="fil0" d="M723 580l0 -17c-8,3 -20,12 -35,6 -9,-4 -17,-14 -17,-27 0,-13 7,-22 17,-26 14,-5 25,1 35,6l0 -17c-22,-13 -71,-6 -71,39 1,28 22,42 47,42 11,0 15,-2 24,-6z"/>
   <path class="fil0" d="M932 584l46 0 5 -14 -34 0 0 -21 22 0 5 -13 -28 -1 1 -20c30,0 29,4 32,-14 -13,0 -39,-2 -50,1 0,11 -1,76 1,82z"/>
   <path class="fil0" d="M847 566l2 18c10,-1 27,7 43,-4 9,-6 12,-16 9,-27 -3,-9 -13,-13 -21,-17 -5,-3 -13,-5 -14,-12 -1,-8 7,-11 14,-11 9,1 14,5 20,8l0 -17c-39,-18 -65,18 -45,36 11,11 29,11 29,22 0,19 -34,5 -37,4z"/>
   <path class="fil0" d="M1102 516l22 0 0 69c4,-1 4,-1 8,-1 5,0 7,1 9,-1 2,-4 1,-58 0,-67l22 0 4 -15 -65 0 0 15z"/>
   <path class="fil0" d="M530 543c10,-8 26,15 14,29 -4,4 -15,6 -16,-4 0,-3 -1,-22 2,-25zm-14 -31l0 72c6,-1 5,-4 12,-2 7,1 7,2 14,1 22,-5 23,-34 13,-44 -9,-9 -18,-5 -26,-1l0 -29c-5,-1 -9,2 -13,3z"/>
   <path class="fil0" d="M1188 584l17 0 0 -83c-5,0 -12,-1 -17,1l0 82z"/>
   <path class="fil0" d="M571 591l2 13c11,-1 15,-4 18,-10 8,-13 17,-47 24,-58l-12 -1c-1,7 -6,23 -10,28l-9 -28 -14 0c13,44 29,57 1,56z"/>
   <path class="fil3" d="M1664 233l14 1 1 8 -5 4 5 7c-9,-1 -4,-8 -12,-8 0,1 0,5 0,5 -1,4 1,2 -3,3l0 -20zm20 16c7,-17 -19,-29 -26,-12 -9,19 18,30 26,12z"/>
   <path class="fil3" d="M1667 242l7 0c1,-3 2,-2 0,-5l-7 -1 0 6z"/>
   <g>
    <path class="fil5" d="M1665 240l7 0c3,0 4,-1 4,-4 0,-3 -2,-3 -4,-3l-7 0 0 7zm-4 -10l11 0c5,0 8,2 8,6 0,4 -3,5 -4,6l0 0c2,0 4,1 4,5 0,2 0,5 1,6l-5 0c0,-1 0,-2 0,-4 0,-4 -1,-6 -5,-6l-6 0 0 10 -4 0 0 -23z"/>
    <path class="fil5" d="M1670 224c-9,0 -17,8 -17,17 0,10 8,17 17,17 10,0 17,-7 17,-17 0,-9 -7,-17 -17,-17zm0 38c-11,0 -20,-10 -20,-21 0,-11 9,-20 20,-20 11,0 21,9 21,20 0,11 -10,21 -21,21z"/>
   </g>
  </g>
 </g>
</svg>
