<?xml version="1.0" encoding="utf-8"?>
<!-- Generator: Adobe Illustrator 21.1.0, SVG Export Plug-In . SVG Version: 6.00 Build 0)  -->
<svg version="1.1" id="ZNACKA" xmlns="http://www.w3.org/2000/svg" xmlns:xlink="http://www.w3.org/1999/xlink" x="0px" y="0px"
	 viewBox="0 0 300 98.9" style="enable-background:new 0 0 300 98.9;" xml:space="preserve">
<style type="text/css">
	.st0{fill:#FFFFFF;}
   
</style>
<g>
	<polygon class="st0" points="0,0 0,52.5 300,90 262.5,0 	"/>
	<g>
		<g>
			<path d="M256.8,13.6h1.5c0.6,0,0.9-0.3,0.9-0.8c0-0.7-0.4-0.8-0.9-0.8h-1.5V13.6z M255.9,11.2h2.5c1.1,0,1.7,0.5,1.7,1.4
				c0,1-0.7,1.3-0.9,1.3l0,0c0.3,0,0.8,0.3,0.8,1.1c0,0.6,0.1,1.2,0.3,1.4h-1c-0.1-0.2-0.1-0.5-0.1-0.8c0-1-0.2-1.4-1-1.4h-1.3v2.1
				H256v-5.1H255.9z"/>
			<path d="M257.9,10c-2.1,0-3.8,1.7-3.8,3.8s1.7,3.8,3.8,3.8s3.8-1.7,3.8-3.8C261.8,11.7,260,10,257.9,10 M257.9,18.4
				c-2.5,0-4.6-2-4.6-4.6c0-2.5,2-4.6,4.6-4.6c2.5,0,4.6,2,4.6,4.6C262.5,16.3,260.5,18.4,257.9,18.4"/>
		</g>
		<g>
			<polygon points="18.3,17.6 10,17.6 10,10 35.7,10 35.7,17.6 27.4,17.6 27.4,39.6 18.3,39.6 			"/>
			<g>
				<path d="M46.3,26.4c0-2-1.5-3.6-3.5-3.6c-2.4,0-3.8,1.3-4.2,3.6H46.3z M38.5,30.7c0.2,2.5,1.5,4.2,4.1,4.2
					c1.3,0,2.7-0.5,3.4-1.5h7.5c-1.6,4.7-6.1,6.8-10.9,6.8c-6.8,0-11.9-4.1-11.9-11.2c0-6.3,4.4-11.4,11.2-11.4
					c8.4,0,12,4.7,12,13.2L38.5,30.7L38.5,30.7z"/>
				<path d="M70,26.2c-0.1-0.9-0.4-1.6-0.9-2c-0.5-0.5-1.2-0.7-2.1-0.7c-3.2,0-3.6,2.7-3.6,5.4s0.5,5.3,3.6,5.3c1.8,0,3-1.5,3.2-3.2
					H78c-0.8,5.8-5.4,9.1-11.2,9.1c-6.5,0-11.7-4.5-11.7-11.3s5.2-11.3,11.7-11.3c5.7,0,10.4,2.7,11,8.7H70z"/>
				<path d="M79.4,10h8.2v10.4h0.1c1.4-1.7,3.2-2.9,6.7-2.9c3.9,0,7.4,2.4,7.4,7.3v14.8h-8.2V28.3c0-2.5-0.3-4.2-2.7-4.2
					c-1.5,0-3.3,0.7-3.3,4.2v11.4h-8.2V10z"/>
				<path d="M104.3,18.1h7.9v2.7h0.1c1.5-2.2,3.7-3.3,7-3.3c3.9,0,7.4,2.4,7.4,7.3v14.8h-8.2V28.3c0-2.5-0.3-4.2-2.7-4.2
					c-1.5,0-3.3,0.7-3.3,4.2v11.4h-8.2C104.3,39.7,104.3,18.1,104.3,18.1z"/>
			</g>
			<path d="M129.1,18.1h8.2v21.5h-8.2V18.1z M137.3,15.7h-8.2V10h8.2V15.7z"/>
		</g>
		<g>
			<path d="M147.8,29.7c0,0.7,0.1,1.4,0.3,2c0.7,1.8,2.7,2.2,4.4,2.2c1.5,0,3.8-0.5,3.8-2.7c0-1.5-1.3-2-6.4-3.4
				c-4.7-1.3-10-2.6-10-8.6c0-6.8,5.9-9.8,12-9.8c6.4,0,12.2,2.5,12.4,9.7h-8.6c0.2-1.1-0.3-1.9-1.1-2.4s-1.7-0.7-2.7-0.7
				c-1.2,0-3.3,0.3-3.3,2c0.1,2.1,4.4,2.7,8.6,3.7c4.2,1.2,8.3,3.1,8.3,8.6c0,7.7-7.1,10.2-13.7,10.2c-3.3,0-13-1.2-13-10.7
				L147.8,29.7L147.8,29.7z"/>
			<path d="M176.9,18.1h4.4v5.1h-4.4v7.5c0,2,0.4,2.9,2.5,2.9c0.6,0,1.2,0,1.9-0.1v6.2c-1.7,0-3.5,0.2-5.3,0.2
				c-3.5,0-7.3-0.5-7.3-6.4V23.1H165V18h3.6v-6.6h8.2L176.9,18.1L176.9,18.1z"/>
			<path d="M193.5,23.5c-3.2,0-3.5,3-3.5,5.3s0.4,5.4,3.5,5.4c3.2,0,3.5-3.1,3.5-5.4S196.7,23.5,193.5,23.5 M193.5,40.2
				c-8.1,0-11.7-5.4-11.7-11.3s3.7-11.3,11.7-11.3c8.1,0,11.7,5.4,11.7,11.3C205.3,34.8,201.6,40.2,193.5,40.2"/>
			<path d="M206.8,18.1h7.9v2.7h0.1c1.5-2.2,3.7-3.3,7-3.3c3.9,0,7.4,2.4,7.4,7.3v14.8H221V28.3c0-2.5-0.3-4.2-2.7-4.2
				c-1.5,0-3.3,0.7-3.3,4.2v11.4h-8.2V18.1z"/>
			<path d="M246.2,26.4c0-2-1.5-3.6-3.5-3.6c-2.4,0-3.8,1.3-4.2,3.6H246.2z M238.4,30.7c0.2,2.5,1.5,4.2,4.1,4.2
				c1.3,0,2.7-0.5,3.4-1.5h7.5c-1.6,4.7-6.1,6.8-10.9,6.8c-6.8,0-11.9-4.1-11.9-11.2c0-6.3,4.4-11.4,11.2-11.4c8.4,0,12,4.7,12,13.2
				L238.4,30.7L238.4,30.7z"/>
		</g>
	</g>
</g>

</svg>
