<?xml version="1.0" encoding="UTF-8"?>
<!DOCTYPE svg PUBLIC "-//W3C//DTD SVG 1.1//EN" "http://www.w3.org/Graphics/SVG/1.1/DTD/svg11.dtd">
<!-- Creator: CorelDRAW X7 -->
<svg xmlns="http://www.w3.org/2000/svg" xml:space="preserve" width="58.333mm" height="17.5mm" version="1.1" style="shape-rendering:geometricPrecision; text-rendering:geometricPrecision; image-rendering:optimizeQuality; fill-rule:evenodd; clip-rule:evenodd"
viewBox="0 0 2523 757"
 xmlns:xlink="http://www.w3.org/1999/xlink">
 <defs>
  <style type="text/css">
   <![CDATA[
    .fil1 {fill:#FEFEFE;fill-rule:nonzero}
    .fil0 {fill:#2B2A29;fill-rule:nonzero}
   ]]>
  </style>
 </defs>
 <g id="Слой_x0020_1">
  <metadata id="CorelCorpID_0Corel-Layer"/>
  <g id="_1905071632">
   <polygon class="fil0" points="2523,757 0,439 0,0 2212,0 "/>
   <polygon class="fil1" points="163,150 94,150 94,87 308,87 308,150 239,150 239,333 163,333 "/>
   <path class="fil1" d="M400 224c0,-17 -12,-30 -30,-30 -21,0 -32,10 -35,30l65 0zm-66 35c2,21 14,35 35,35 11,0 23,-4 29,-13l64 0c-14,39 -52,57 -92,57 -58,0 -101,-34 -101,-94 0,-52 38,-94 95,-94 71,0 102,39 102,109l-132 0z"/>
   <path class="fil1" d="M596 222c0,-7 -3,-13 -7,-17 -5,-3 -10,-6 -17,-6 -27,0 -30,23 -30,45 0,22 3,44 30,44 14,0 25,-12 26,-26l65 0c-6,49 -44,76 -93,76 -54,0 -97,-37 -97,-94 0,-57 43,-94 97,-94 48,0 87,23 91,72l-65 0z"/>
   <path class="fil1" d="M675 87l68 0 0 87 1 0c11,-14 27,-24 56,-24 32,0 61,19 61,61l0 122 -68 0 0 -93c0,-21 -3,-36 -23,-36 -12,0 -27,6 -27,35l0 94 -68 0 0 -246z"/>
   <path class="fil1" d="M883 154l66 0 0 23 1 0c13,-18 31,-27 58,-27 32,0 62,19 62,61l0 122 -69 0 0 -93c0,-21 -2,-36 -22,-36 -12,0 -27,6 -27,35l0 94 -69 0 0 -179z"/>
   <path class="fil1" d="M1093 154l69 0 0 179 -69 0 0 -179zm69 -19l-69 0 0 -48 69 0 0 48z"/>
   <path class="fil1" d="M1251 251c0,5 1,11 3,16 5,15 22,18 36,18 13,0 32,-4 32,-23 0,-12 -11,-16 -54,-28 -39,-11 -83,-22 -83,-71 0,-57 49,-82 99,-82 54,0 101,21 103,80l-72 0c2,-9 -2,-15 -9,-19 -6,-5 -14,-6 -22,-6 -10,0 -27,2 -27,16 1,17 37,22 71,31 35,10 70,26 70,71 0,65 -59,85 -114,85 -28,0 -109,-10 -109,-88l76 0z"/>
   <path class="fil1" d="M1493 154l37 0 0 42 -37 0 0 63c0,16 3,24 21,24 5,0 10,-1 16,-1l0 51c-14,0 -29,2 -44,2 -29,0 -61,-4 -61,-53l0 -86 -31 0 0 -42 31 0 0 -54 68 0 0 54z"/>
   <path class="fil1" d="M1633 199c-26,0 -29,26 -29,45 0,19 3,44 29,44 26,0 29,-25 29,-44 0,-19 -3,-45 -29,-45zm0 139c-67,0 -98,-45 -98,-94 0,-50 31,-94 98,-94 67,0 98,44 98,94 0,49 -31,94 -98,94z"/>
   <path class="fil1" d="M1745 154l66 0 0 23 1 0c13,-18 31,-27 58,-27 32,0 62,19 62,61l0 122 -69 0 0 -93c0,-21 -2,-36 -22,-36 -12,0 -27,6 -27,35l0 94 -69 0 0 -179z"/>
   <path class="fil1" d="M2077 224c0,-17 -12,-30 -30,-30 -21,0 -32,10 -35,30l65 0zm-66 35c2,21 13,35 35,35 11,0 23,-4 29,-13l64 0c-14,39 -52,57 -92,57 -58,0 -101,-34 -101,-94 0,-52 38,-94 95,-94 71,0 102,39 102,109l-132 0z"/>
   <path class="fil1" d="M2164 117l12 0c5,0 8,-2 8,-7 0,-5 -4,-6 -8,-6l-12 0 0 13zm-8 -19l21 0c10,0 14,4 14,11 0,9 -5,11 -7,11l0 0c3,1 7,3 7,10 0,5 0,9 2,11l-8 0c-1,-2 -1,-4 -1,-6 0,-8 -2,-12 -9,-12l-11 0 0 18 -8 0 0 -43z"/>
   <path class="fil1" d="M2173 87c-18,0 -32,15 -32,32 0,18 14,33 32,33 18,0 32,-15 32,-33 0,-17 -14,-32 -32,-32zm0 71c-21,0 -38,-17 -38,-39 0,-21 17,-38 38,-38 21,0 38,17 38,38 0,22 -17,39 -38,39z"/>
  </g>
 </g>
</svg>
