<?xml version="1.0" encoding="UTF-8"?>
<!DOCTYPE svg PUBLIC "-//W3C//DTD SVG 1.1//EN" "http://www.w3.org/Graphics/SVG/1.1/DTD/svg11.dtd">
<!-- Creator: CorelDRAW X7 -->
<svg xmlns="http://www.w3.org/2000/svg" xml:space="preserve" width="71.4mm" height="12.5869mm" version="1.1" style="shape-rendering:geometricPrecision; text-rendering:geometricPrecision; image-rendering:optimizeQuality; fill-rule:evenodd; clip-rule:evenodd"
viewBox="0 0 3824 674"
 xmlns:xlink="http://www.w3.org/1999/xlink">
 <defs>
  <style type="text/css">
   <![CDATA[
    .fil0 {fill:#13007B}
    .fil1 {fill:#FEFEFE}
   ]]>
  </style>
 </defs>
 <g id="Слой_x0020_1">
  <metadata id="CorelCorpID_0Corel-Layer"/>
  <g id="_2028646960">
   <path class="fil0" d="M2802 203c20,7 18,19 18,42l0 123c0,25 2,31 -17,42 -3,11 -1,47 -1,60l153 0 0 -62c-15,-7 -18,-11 -18,-31 -1,-16 -1,-33 0,-50 5,3 8,12 12,17l58 90c4,6 21,33 25,36l146 0c1,-25 -1,-236 1,-248 2,-13 8,-13 17,-19l0 -58 -156 0 -1 58c14,7 13,18 13,36 0,16 1,35 -1,50l-84 -144 -165 0 0 58z"/>
   <path class="fil0" d="M1254 212c9,-2 20,-2 28,2 9,5 7,12 7,23 2,37 0,86 1,125 0,20 -1,39 -21,42 -23,2 -35,-6 -36,-27 -2,-25 0,-94 0,-124 0,-22 -2,-37 21,-41zm-179 170c6,51 43,74 91,84 49,11 113,11 164,6 51,-6 98,-22 110,-67 5,-21 3,-61 3,-85 0,-95 17,-154 -90,-174 -49,-9 -116,-9 -165,-2 -52,7 -97,24 -110,66 -6,20 -4,61 -4,84 0,27 -2,63 1,88z"/>
   <path class="fil0" d="M2590 381c-3,20 -17,27 -39,21 -20,-5 -17,-23 -17,-45 0,-20 -1,-114 0,-125 3,-18 21,-23 41,-20 20,3 16,17 16,46 0,20 1,111 -1,123zm-57 -241c-55,3 -107,11 -136,41 -17,18 -22,35 -22,67 0,29 0,59 0,88 0,51 -2,94 57,119 44,19 104,21 156,20 49,-2 112,-10 137,-40 17,-20 19,-35 19,-69 0,-29 0,-58 0,-88 0,-51 7,-98 -54,-122 -44,-17 -106,-19 -157,-16z"/>
   <path class="fil0" d="M3250 410l0 59 368 1 0 -116 -145 -1c-1,20 4,32 -9,42 -12,8 -27,8 -44,7l0 -63 98 0 1 -63 -99 0 0 -59c70,0 48,18 54,41l143 0 1 -113 -368 0 0 54c0,6 4,7 7,11 10,12 6,49 6,67l0 110c0,15 -1,19 -13,23z"/>
   <path class="fil0" d="M1650 354l-152 0c0,22 0,44 0,66 0,18 -3,23 32,35 33,10 77,17 113,20 39,2 89,0 126,-8 38,-8 68,-23 84,-49 7,-11 14,-35 15,-50 2,-58 -50,-86 -105,-96 -31,-6 -89,-9 -107,-26 -16,-16 -1,-34 21,-34 10,0 19,4 23,10 6,9 2,20 5,30l143 0 0 -77c-59,-27 -143,-34 -209,-32 -69,3 -147,21 -146,94 1,105 115,85 188,112 17,6 29,13 25,35 -4,23 -30,20 -41,17 -17,-7 -15,-27 -15,-47z"/>
   <path class="fil0" d="M0 205c4,4 7,5 11,10 12,17 14,30 20,48l41 137c7,23 13,48 21,70l212 0c4,-11 54,-183 60,-204 4,-13 10,-38 18,-48 4,-6 7,-8 11,-13l0 -60 -170 0 0 60c18,9 19,10 14,33 -5,28 -21,105 -27,128 -4,-8 -8,-31 -11,-41 -5,-21 -16,-72 -20,-87 -6,-18 -5,-27 13,-33l0 -60 -193 0 0 60z"/>
   <path class="fil0" d="M1023 333l-152 0c-3,15 1,37 -1,53 -1,15 -17,23 -33,19 -7,-2 -13,-6 -16,-11 -6,-9 -3,-65 -3,-78 0,-18 0,-36 0,-53 0,-17 -3,-38 7,-47 10,-10 29,-9 39,0 10,9 6,33 6,48l153 0 1 -93c-21,-6 -38,-13 -60,-18 -60,-15 -152,-19 -211,-8 -44,8 -78,26 -89,65 -7,23 -4,120 -4,150 0,47 13,75 61,94 69,27 199,23 270,0 10,-3 18,-6 26,-12 9,-6 7,-9 7,-32 0,-24 1,-53 -1,-77z"/>
   <path class="fil0" d="M1906 291l111 0c2,-7 1,-37 1,-47 -1,-20 2,-26 22,-27 1,51 0,109 0,160 0,20 -1,31 -18,37l0 55 190 1 0 -59c-15,-5 -18,-18 -18,-35l0 -158c19,0 22,7 22,25 0,9 -1,42 1,48l110 0 0 -145 -420 -1 -1 146z"/>
   <path class="fil0" d="M423 202c8,4 13,7 16,15 2,10 1,134 1,153 0,9 1,20 -2,28 -5,12 -13,12 -15,17l0 55 192 0 1 -55c-2,-4 -11,-8 -15,-15 -4,-8 -3,-19 -3,-29l0 -124c0,-27 -1,-34 18,-45l0 -56 -193 -1 0 57z"/>
   <path class="fil1" d="M3753 82c3,8 18,30 18,37l-10 0 -19 -38 -14 0 -1 38 -9 0 0 -84c8,-1 21,0 30,0 10,0 16,3 20,9 5,7 8,29 -8,35l-7 3zm-19 -69c-35,6 -63,36 -57,78 5,34 37,62 78,56 33,-6 62,-37 55,-78 -5,-33 -37,-62 -76,-56z"/>
   <path class="fil0" d="M3734 13c39,-6 71,23 76,56 7,41 -22,72 -55,78 -41,6 -73,-22 -78,-56 -6,-42 22,-72 57,-78zm-8 -11c-46,11 -70,53 -60,97 8,37 47,69 95,59 38,-8 71,-48 61,-96 -9,-37 -47,-71 -96,-60z"/>
   <path class="fil0" d="M226 656c-7,5 -23,4 -33,1 -32,-10 -32,-51 -6,-65 19,-9 43,-5 55,7 16,16 10,39 -2,51 -7,-1 -10,-6 -17,-8l-7 7 10 7zm26 3c4,-6 8,-8 13,-17 3,-6 4,-14 4,-23 -4,-49 -77,-53 -104,-28 -23,22 -15,58 9,71 31,17 64,2 68,3 6,2 11,8 18,9 4,-3 5,-4 7,-7l-15 -8z"/>
   <path class="fil0" d="M897 590c8,-2 29,-1 38,-1 13,0 24,2 23,16 0,12 -12,14 -24,14 -9,0 -29,1 -37,0l0 -29zm64 35c4,-5 16,-7 14,-25 -2,-30 -63,-21 -95,-21l0 89 17 -1 0 -37c9,0 42,-1 50,1 16,4 7,22 13,36 5,2 14,1 20,1 -1,-3 -1,-2 -3,-4 -10,-13 6,-33 -16,-39z"/>
   <path class="fil0" d="M2216 589c12,0 26,0 39,0 12,0 23,3 22,16 0,12 -12,14 -24,14 -12,0 -25,1 -38,0l1 -30zm63 35c5,-4 17,-8 15,-24 -1,-11 -10,-17 -20,-19 -10,-3 -65,-4 -75,-2l0 89 16 0 1 -38c84,-4 51,11 63,38l20 0 -2 -4c-12,-14 6,-31 -18,-40z"/>
   <path class="fil0" d="M1724 639c1,28 31,34 60,31 45,-5 40,-36 26,-45 -22,-13 -67,-4 -66,-24 1,-13 20,-15 32,-14 7,1 12,2 18,5 3,2 4,3 5,6 4,8 -1,7 17,6 0,-36 -78,-37 -87,-8 -5,15 5,23 16,27 14,4 48,6 55,13 4,4 5,11 0,16 -8,9 -58,16 -61,-13l-15 0z"/>
   <path class="fil0" d="M3367 639c0,42 77,37 91,17 9,-12 3,-25 -5,-30 -20,-14 -66,-5 -66,-24 -1,-13 17,-16 30,-15 23,1 23,10 27,18l15 0c0,-27 -35,-33 -62,-28 -29,6 -39,37 -8,46 11,4 26,5 38,7 26,6 20,19 15,23 -11,9 -52,11 -59,-7 -3,-9 1,-7 -16,-7z"/>
   <polygon class="fil0" points="3157,590 3227,590 3227,579 3139,579 3139,668 3228,668 3228,657 3156,657 3156,627 3222,627 3222,616 3156,616 "/>
   <path class="fil0" d="M1356 657c2,-4 48,-44 58,-55 14,-13 15,-7 15,-23 -10,-1 -84,-1 -90,1l0 10 67 0c-2,4 -15,15 -19,19l-39 36c-15,14 -14,7 -14,23l95 0 0 -11 -73 0z"/>
   <path class="fil0" d="M2981 635c-5,8 -4,13 -14,19 -15,9 -58,10 -60,-27 -2,-22 9,-35 27,-39 9,-2 21,-1 30,2 10,4 11,8 16,16l15 -1c-1,-38 -110,-47 -105,23 1,27 23,41 50,42 28,1 57,-13 56,-35l-15 0z"/>
   <path class="fil0" d="M670 631c1,-5 16,-34 18,-37 1,1 1,0 2,2l3 6c2,4 3,7 4,10 3,5 7,13 8,19l-35 0zm-6 11l48 0 11 26 18 0c-2,-9 -17,-36 -22,-47 -24,-49 -15,-43 -39,-42 -6,8 -44,83 -45,89l17 -1 12 -25z"/>
   <path class="fil0" d="M1962 579c-2,5 -2,61 0,68 10,33 83,31 93,-1 3,-10 1,-53 1,-67l-17 0c0,51 10,80 -31,80 -48,0 -24,-47 -31,-80l-15 0z"/>
   <path class="fil0" d="M409 579c0,13 -2,60 1,69 11,31 82,30 92,-2 3,-9 2,-54 2,-67l-17 0c0,18 1,38 0,56 0,18 -13,24 -31,24 -19,0 -30,-7 -31,-25 0,-18 1,-37 0,-55l-16 0z"/>
   <path class="fil0" d="M2687 631c1,-7 14,-31 18,-38 3,4 16,33 17,38l-35 0zm-6 11l48 0 11 26 18 0c-3,-14 -38,-74 -42,-89l-20 0c-6,14 -16,30 -22,44 -5,10 -21,38 -22,45l16 -1 13 -25z"/>
   <polygon class="fil0" points="2458,589 2525,589 2525,579 2441,579 2441,668 2458,667 2458,627 2517,627 2517,616 2458,616 "/>
   <polygon class="fil0" points="1151,590 1151,668 1168,667 1168,589 1208,589 1209,579 1110,579 1110,589 "/>
   <path class="fil0" d="M3727 43c16,-1 37,-3 36,15 -1,17 -20,15 -36,14l0 -29zm33 36c16,-6 13,-28 8,-35 -4,-6 -10,-9 -20,-9 -9,0 -22,-1 -30,0l0 84 9 0 1 -38 14 0 19 38 10 0c0,-7 -15,-29 -18,-37l7 -3z"/>
   <path class="fil1" d="M3727 72c16,1 35,3 36,-14 1,-18 -20,-16 -36,-15l0 29z"/>
  </g>
 </g>
</svg>
