<?xml version="1.0" encoding="UTF-8"?>
<!DOCTYPE svg PUBLIC "-//W3C//DTD SVG 1.1//EN" "http://www.w3.org/Graphics/SVG/1.1/DTD/svg11.dtd">
<!-- Creator: CorelDRAW X7 -->
<svg xmlns="http://www.w3.org/2000/svg" xml:space="preserve" width="45mm" height="20mm" version="1.1" style="shape-rendering:geometricPrecision; text-rendering:geometricPrecision; image-rendering:optimizeQuality; fill-rule:evenodd; clip-rule:evenodd"
viewBox="0 0 7931 3525"
 xmlns:xlink="http://www.w3.org/1999/xlink">
 <defs>
  <style type="text/css">
   <![CDATA[
    .fil0 {fill:none}
    .fil1 {fill:#FEFEFE}
    .fil2 {fill:#898989}
   ]]>
  </style>
    <clipPath id="id0">
     <path d="M0 0l7931 0 0 3525 -7931 0 0 -3525z"/>
    </clipPath>
 </defs>
 <g id="Слой_x0020_1">
  <metadata id="CorelCorpID_0Corel-Layer"/>
  <g id="_1644290672">
   <g>
   </g>
   <g style="clip-path:url(#id0)">
   </g>
   <polygon class="fil0" points="0,0 7931,0 7931,3525 0,3525 "/>
   <g id="_1644286672">
    <path class="fil1" d="M858 3525c36,-60 92,-106 157,-129 -161,-240 -114,-488 33,-634 147,-147 394,-194 635,-34 34,-94 114,-170 219,-193 105,-23 209,11 279,81l163 -181 -181 -162c-6,-6 -11,-12 -17,-18 -134,-135 -353,-135 -487,0 -34,34 -60,73 -76,116 -259,-139 -588,-99 -806,119 -219,218 -258,547 -120,806 -42,17 -81,42 -115,76 -44,44 -74,97 -89,153l405 0zm190 -763l0 0z"/>
    <path class="fil2" d="M1048 2762c-147,146 -194,394 -33,634 -65,23 -121,69 -157,129l1341 0c-1,-113 25,-227 80,-329 -42,-17 -81,-42 -115,-76 -135,-135 -135,-353 0,-487 5,-6 11,-12 17,-17 -70,-70 -174,-104 -279,-81 -105,23 -185,99 -219,193 -241,-160 -488,-113 -635,34l0 0z"/>
    <path class="fil1" d="M2552 3525c-34,-129 -15,-280 85,-429 -95,-34 -170,-115 -194,-220 -23,-104 11,-208 81,-279l-180 -162 -163 181c-6,5 -12,11 -17,17 -135,134 -135,352 0,487 34,34 73,59 115,76 -55,102 -82,216 -80,329l353 0z"/>
    <path class="fil2" d="M3697 3525c15,-56 45,-109 89,-153 34,-34 73,-59 115,-76 -138,-259 -98,-588 120,-806l-111 -110c-218,218 -547,258 -805,119 -17,42 -43,82 -77,116 -134,134 -352,134 -487,0 -6,-6 -11,-12 -17,-18 -70,71 -104,175 -81,279 24,106 99,186 194,220 -100,149 -119,300 -85,429l1145 0z"/>
    <path class="fil1" d="M2506 2254l-162 181 -181 -162c70,-71 104,-175 81,-279 -24,-106 -99,-186 -194,-220 161,-240 114,-488 -33,-634 -147,-147 -394,-194 -635,-34 -34,-94 -114,-170 -219,-193 -105,-23 -209,11 -279,81l-162 -181 180 -162c6,-6 11,-12 17,-18 135,-135 353,-135 487,0 34,34 60,73 77,116 258,-139 587,-99 805,119 219,218 258,547 120,806 42,17 81,42 116,76 134,135 134,353 0,487 -6,6 -12,12 -18,17zm-489 -1114l0 0z"/>
    <path class="fil2" d="M2017 1140c147,146 194,394 33,634 95,34 170,114 194,220 23,104 -11,208 -81,279 -6,-6 -11,-12 -17,-18 -134,-135 -353,-135 -487,0 -34,34 -60,73 -76,116 -259,-139 -588,-99 -806,119l-111 -110c219,-218 258,-547 120,-806 42,-17 82,-42 116,-76 134,-135 134,-353 0,-487 -6,-6 -12,-12 -18,-17 70,-70 174,-104 279,-81 105,23 185,99 219,193 241,-160 488,-113 635,34l0 0z"/>
    <path class="fil1" d="M559 632l163 181 180 -162c-70,-71 -104,-175 -81,-279 24,-106 99,-186 194,-220 -34,-51 -59,-102 -75,-152l-308 0c8,18 16,35 25,52 -42,17 -81,42 -115,76 -135,135 -135,353 0,487 5,6 11,12 17,17z"/>
    <path class="fil2" d="M940 0c16,50 41,101 75,152 -95,34 -170,114 -194,220 -23,104 11,208 81,279 6,-6 11,-12 17,-18 135,-135 353,-134 487,0 34,34 60,74 77,116 258,-139 587,-99 805,119l111 -110c-205,-205 -253,-508 -143,-758l-1316 0z"/>
    <path class="fil1" d="M2524 2597l-180 -162 162 -181c70,70 174,104 279,81 105,-23 185,-99 219,-193 241,160 488,113 635,-34 147,-147 194,-394 33,-634 95,-34 170,-115 194,-220 23,-104 -11,-208 -81,-279l181 -162 162 181c6,5 12,11 18,17 134,134 134,352 0,487 -35,34 -74,59 -116,76 138,259 99,588 -120,806 -218,218 -547,258 -805,119 -17,42 -43,82 -77,116 -134,134 -352,135 -487,0 -6,-6 -11,-12 -17,-18zm1115 -489l0 0z"/>
    <path class="fil2" d="M3639 2108c-147,147 -394,194 -635,34 -34,94 -114,170 -219,193 -105,23 -209,-11 -279,-81 6,-5 12,-11 18,-17 134,-134 134,-352 0,-487 -35,-34 -74,-59 -116,-76 138,-259 99,-588 -120,-806l111 -110c218,218 547,258 805,119 17,42 43,82 77,116 134,134 352,134 487,0 6,-6 11,-12 17,-18 70,71 104,175 81,279 -24,106 -99,186 -194,220 161,240 114,488 -33,634l0 0z"/>
    <path class="fil1" d="M3785 975l181 -162 -163 -181c-70,70 -174,104 -279,81 -105,-23 -185,-99 -219,-193 -241,160 -488,113 -635,-34 -117,-116 -170,-296 -107,-486l-307 0c-110,250 -62,553 143,758 218,218 547,258 806,119 16,42 42,82 76,116 134,134 352,135 487,0 6,-6 11,-12 17,-18zm-1115 -489l0 0z"/>
    <path class="fil2" d="M2670 486c147,147 394,194 635,34 34,94 114,170 219,193 105,23 209,-11 279,-81 -6,-5 -12,-11 -17,-17 -135,-134 -135,-352 0,-487 34,-34 73,-59 115,-76 -9,-17 -17,-34 -25,-52l-1313 0c-63,190 -10,370 107,486l0 0z"/>
    <path class="fil1" d="M4102 3525c36,-60 92,-105 157,-129 -161,-240 -114,-488 33,-634 147,-147 394,-194 635,-34 34,-94 114,-170 219,-193 105,-23 209,11 279,81l163 -181 -181 -162c-6,-6 -11,-12 -17,-18 -135,-135 -353,-135 -487,0 -34,34 -60,73 -76,116 -259,-139 -588,-99 -806,119 -219,218 -258,547 -120,806 -42,17 -81,42 -115,76 -44,44 -74,97 -89,153l405 0zm190 -763l0 0z"/>
    <path class="fil2" d="M4292 2762c-147,146 -194,394 -33,634 -65,24 -121,69 -157,129l1341 0c-1,-113 25,-227 80,-329 -42,-17 -81,-42 -115,-76 -135,-135 -135,-353 0,-487 5,-6 11,-12 17,-17 -70,-70 -174,-104 -279,-81 -105,23 -185,99 -219,193 -241,-160 -488,-113 -635,34l0 0z"/>
    <path class="fil1" d="M5796 3525c-34,-129 -15,-280 85,-429 -95,-34 -170,-114 -194,-220 -23,-104 11,-208 81,-279l-180 -162 -163 181c-6,5 -12,11 -17,17 -135,134 -135,352 0,487 34,34 73,59 115,76 -55,102 -82,216 -80,329l353 0z"/>
    <path class="fil2" d="M6941 3525c15,-56 45,-109 89,-153 34,-34 73,-59 115,-76 -138,-259 -99,-588 120,-806l-111 -110c-218,218 -547,258 -805,119 -17,42 -43,82 -77,116 -134,135 -352,135 -487,0 -6,-6 -11,-12 -17,-18 -70,71 -104,175 -81,279 24,106 99,186 194,220 -100,149 -119,300 -85,429l1145 0z"/>
    <path class="fil1" d="M5750 2254l-162 181 -181 -162c70,-71 104,-175 81,-279 -24,-106 -99,-186 -194,-220 161,-240 114,-488 -33,-634 -147,-147 -394,-194 -635,-34 -34,-94 -114,-170 -219,-193 -105,-23 -209,11 -279,81l-162 -181 180 -162c6,-6 11,-12 17,-18 135,-135 353,-135 487,0 34,34 60,73 77,116 258,-139 587,-99 805,119 219,218 258,547 120,806 42,17 81,42 116,76 134,135 134,353 0,487 -6,6 -12,12 -18,17zm-489 -1114l0 0z"/>
    <path class="fil2" d="M5261 1140c147,146 194,394 33,634 95,34 170,114 194,220 23,104 -11,208 -81,279 -6,-6 -11,-12 -17,-18 -135,-135 -353,-134 -487,0 -34,34 -60,74 -76,116 -259,-139 -588,-99 -806,119l-111 -110c219,-218 258,-547 120,-806 42,-17 81,-42 116,-76 134,-135 134,-353 0,-487 -6,-6 -12,-12 -18,-17 70,-70 174,-104 279,-81 105,23 185,99 219,193 241,-160 488,-113 635,34l0 0z"/>
    <path class="fil1" d="M3803 632l163 181 180 -162c-70,-71 -104,-175 -81,-279 24,-105 99,-186 194,-220 -34,-51 -59,-102 -75,-152l-308 0c8,18 16,35 25,52 -42,17 -81,42 -116,76 -134,135 -134,353 0,487 6,6 12,12 18,17z"/>
    <path class="fil2" d="M4184 0c16,50 41,101 75,152 -95,34 -170,115 -194,220 -23,104 11,208 81,279 6,-6 11,-12 17,-18 135,-134 353,-134 487,0 34,34 60,74 77,116 258,-139 587,-99 805,119l111 -110c-205,-205 -253,-508 -143,-758l-1316 0z"/>
    <path class="fil1" d="M5768 2597l-180 -162 162 -181c70,70 174,104 279,81 105,-23 185,-99 219,-193 241,160 488,113 635,-34 147,-146 194,-394 33,-634 95,-34 170,-114 194,-220 23,-104 -11,-208 -81,-279l181 -162 162 181c6,5 12,11 18,17 134,134 134,352 0,487 -35,34 -74,59 -116,76 138,259 99,588 -120,806 -218,218 -547,258 -806,119 -16,42 -42,82 -76,116 -134,135 -352,135 -487,0 -6,-6 -11,-12 -17,-18zm1115 -489l0 0z"/>
    <path class="fil2" d="M6883 2108c-147,147 -394,194 -635,34 -34,94 -114,170 -219,193 -105,23 -209,-11 -279,-81 6,-5 12,-11 18,-17 134,-134 134,-352 -1,-487 -34,-34 -73,-59 -115,-76 138,-259 99,-588 -120,-806l111 -110c218,218 547,258 805,119 17,42 43,82 77,116 134,134 352,134 487,0 6,-6 11,-12 17,-18 70,71 104,175 81,279 -24,106 -99,186 -194,220 161,240 114,488 -33,634l0 0z"/>
    <path class="fil1" d="M7029 975l180 -162 -162 -181c-70,70 -174,104 -279,81 -105,-23 -185,-99 -219,-193 -241,160 -488,113 -635,-34 -117,-116 -170,-296 -107,-486l-307 0c-110,250 -62,553 143,758 218,218 547,258 806,119 16,43 42,82 76,116 134,135 352,135 487,0 6,-6 11,-12 17,-18zm-1115 -489l0 0z"/>
    <path class="fil2" d="M5914 486c147,147 394,194 635,34 34,94 114,170 219,193 105,23 209,-11 279,-81 -6,-5 -12,-11 -17,-17 -135,-134 -135,-352 0,-487 34,-34 73,-59 115,-76 -9,-17 -17,-34 -25,-52l-1313 0c-63,190 -10,370 107,486l0 0z"/>
   </g>
  </g>
 </g>
</svg>
