<?xml version="1.0" encoding="UTF-8"?>
<!DOCTYPE svg PUBLIC "-//W3C//DTD SVG 1.1//EN" "http://www.w3.org/Graphics/SVG/1.1/DTD/svg11.dtd">
<!-- Creator: CorelDRAW X7 -->
<svg xmlns="http://www.w3.org/2000/svg" xml:space="preserve" width="45mm" height="21mm" version="1.1" style="shape-rendering:geometricPrecision; text-rendering:geometricPrecision; image-rendering:optimizeQuality; fill-rule:evenodd; clip-rule:evenodd"
viewBox="0 0 7931 3701"
 xmlns:xlink="http://www.w3.org/1999/xlink">
 <defs>
  <style type="text/css">
   <![CDATA[
    .str0 {stroke:#FEFEFE;stroke-width:176.245}
    .fil0 {fill:none}
    .fil1 {fill:#898989}
   ]]>
  </style>
 </defs>
 <g id="Слой_x0020_1">
  <metadata id="CorelCorpID_0Corel-Layer"/>
  <g id="_1485213568">
   <rect class="fil0" y="88" width="7931" height="3525"/>
   <g>
    <rect class="fil1 str0" x="793" y="88" width="705" height="705"/>
    <rect class="fil1 str0" x="1498" y="88" width="705" height="705"/>
    <rect class="fil1 str0" x="2203" y="88" width="705" height="705"/>
    <rect class="fil1 str0" x="2908" y="88" width="705" height="705"/>
    <rect class="fil1 str0" x="3613" y="88" width="705" height="705"/>
    <rect class="fil1 str0" x="4318" y="88" width="705" height="705"/>
    <rect class="fil1 str0" x="5023" y="88" width="705" height="705"/>
    <rect class="fil1 str0" x="793" y="793" width="705" height="705"/>
    <rect class="fil1 str0" x="1498" y="793" width="705" height="705"/>
    <rect class="fil1 str0" x="2203" y="793" width="705" height="705"/>
    <rect class="fil1 str0" x="2908" y="793" width="705" height="705"/>
    <rect class="fil1 str0" x="3613" y="793" width="705" height="705"/>
    <rect class="fil1 str0" x="4318" y="793" width="705" height="705"/>
    <rect class="fil1 str0" x="5023" y="793" width="705" height="705"/>
    <rect class="fil1 str0" x="793" y="1498" width="705" height="705"/>
    <rect class="fil1 str0" x="1498" y="1498" width="705" height="705"/>
    <rect class="fil1 str0" x="2203" y="1498" width="705" height="705"/>
    <rect class="fil1 str0" x="2908" y="1498" width="705" height="705"/>
    <rect class="fil1 str0" x="3613" y="1498" width="705" height="705"/>
    <rect class="fil1 str0" x="4318" y="1498" width="705" height="705"/>
    <rect class="fil1 str0" x="5023" y="1498" width="705" height="705"/>
    <rect class="fil1 str0" x="793" y="2203" width="705" height="705"/>
    <rect class="fil1 str0" x="1498" y="2203" width="705" height="705"/>
    <rect class="fil1 str0" x="2203" y="2203" width="705" height="705"/>
    <rect class="fil1 str0" x="2908" y="2203" width="705" height="705"/>
    <rect class="fil1 str0" x="3613" y="2203" width="705" height="705"/>
    <rect class="fil1 str0" x="4318" y="2203" width="705" height="705"/>
    <rect class="fil1 str0" x="5023" y="2203" width="705" height="705"/>
    <rect class="fil1 str0" x="5728" y="88" width="705" height="705"/>
    <rect class="fil1 str0" x="5728" y="793" width="705" height="705"/>
    <rect class="fil1 str0" x="5728" y="1498" width="705" height="705"/>
    <rect class="fil1 str0" x="5728" y="2203" width="705" height="705"/>
    <rect class="fil1 str0" x="793" y="2908" width="705" height="705"/>
    <rect class="fil1 str0" x="1498" y="2908" width="705" height="705"/>
    <rect class="fil1 str0" x="2203" y="2908" width="705" height="705"/>
    <rect class="fil1 str0" x="2908" y="2908" width="705" height="705"/>
    <rect class="fil1 str0" x="3613" y="2908" width="705" height="705"/>
    <rect class="fil1 str0" x="4318" y="2908" width="705" height="705"/>
    <rect class="fil1 str0" x="5023" y="2908" width="705" height="705"/>
    <rect class="fil1 str0" x="5728" y="2908" width="705" height="705"/>
    <rect class="fil1 str0" x="6433" y="88" width="705" height="705"/>
    <rect class="fil1 str0" x="6433" y="793" width="705" height="705"/>
    <rect class="fil1 str0" x="6433" y="1498" width="705" height="705"/>
    <rect class="fil1 str0" x="6433" y="2203" width="705" height="705"/>
    <rect class="fil1 str0" x="6433" y="2908" width="705" height="705"/>
   </g>
  </g>
 </g>
</svg>
