<?xml version="1.0" encoding="UTF-8"?>
<!DOCTYPE svg PUBLIC "-//W3C//DTD SVG 1.1//EN" "http://www.w3.org/Graphics/SVG/1.1/DTD/svg11.dtd">
<!-- Creator: CorelDRAW X7 -->
<svg xmlns="http://www.w3.org/2000/svg" xml:space="preserve" width="45mm" height="20.1287mm" version="1.1" style="shape-rendering:geometricPrecision; text-rendering:geometricPrecision; image-rendering:optimizeQuality; fill-rule:evenodd; clip-rule:evenodd"
viewBox="0 0 2737 1224"
 xmlns:xlink="http://www.w3.org/1999/xlink">
 <defs>
  <style type="text/css">
   <![CDATA[
    .fil0 {fill:none}
    .fil3 {fill:#FEFEFE}
    .fil2 {fill:#898989}
    .fil1 {fill:gray}
   ]]>
  </style>
    <clipPath id="id0">
     <path d="M0 8l2737 0 0 1216 -2737 0 0 -1216z"/>
    </clipPath>
 </defs>
 <g id="Слой_x0020_1">
  <metadata id="CorelCorpID_0Corel-Layer"/>
  <g id="_1485208064">
   <g>
   </g>
   <g style="clip-path:url(#id0)">
   </g>
   <polygon class="fil0" points="0,8 2737,8 2737,1224 0,1224 "/>
   <g id="_1485166752">
    <path class="fil1" d="M1786 0c360,0 690,125 951,334l0 890 -2443 0c138,-698 753,-1224 1492,-1224z"/>
    <path class="fil2" d="M1786 82c364,0 697,136 951,359l0 783 -2359 0c137,-652 715,-1142 1408,-1142z"/>
    <g>
     <path class="fil2" d="M553 1224c56,-83 113,-99 114,-140 2,-37 -40,-68 -75,-11l-7 12c-18,-34 -31,-73 -8,-109 45,-73 176,-43 183,79 2,34 -8,68 -25,97 105,-38 193,-4 262,72l-444 0z"/>
     <path class="fil2" d="M988 457c111,-109 235,-147 388,-153 138,-6 187,52 229,30 33,-18 39,-69 -28,-71l-14 0c20,-33 48,-63 90,-62 86,3 126,131 23,199 -28,18 -62,27 -96,26 92,78 102,180 61,287 -57,147 -182,334 -120,496 2,5 4,10 7,15l-118 0c-25,-70 -21,-145 0,-221 34,-121 75,-216 18,-332 -60,-124 -194,-185 -315,-110l-13 8c-124,88 -144,298 -3,382 132,78 248,-38 183,-100 -29,-28 -75,-8 -71,28l1 12c-51,-17 -87,-44 -112,-92 20,-29 46,-50 79,-63 -24,-51 -5,-88 24,-131 4,53 11,81 70,99 64,20 101,51 97,122 22,-33 52,-60 84,-83 10,57 -1,112 -16,167 -71,68 -133,141 -238,152 -127,12 -240,-65 -276,-187 -7,-24 -12,-49 -15,-74 -26,44 -42,61 -89,70 2,-9 5,-17 6,-26 -80,33 -167,-91 -89,-167 16,-16 36,-23 56,-31 -18,24 -40,47 -15,77 22,26 54,14 71,-10 55,-77 23,-139 134,-250l0 0 0 -1c2,-2 4,-4 7,-6zm675 767c-19,-66 -68,-106 -157,-141 4,-35 12,-69 22,-103 106,28 194,90 231,196 5,14 9,30 11,48l-107 0z"/>
     <path class="fil2" d="M2308 298c150,42 245,130 327,259 74,117 48,188 89,214 4,2 8,4 13,5l0 102c-11,-3 -23,-7 -35,-13 -30,-15 -55,-40 -71,-70 -21,119 -105,178 -218,196 -155,25 -381,11 -489,145 -21,26 -32,56 -37,88l-106 0c3,-29 10,-58 21,-87 43,-112 133,-172 245,-201 121,-31 224,-43 297,-150 77,-114 63,-260 -63,-328l-13 -7c-139,-63 -331,24 -333,188 -1,153 158,196 178,109 10,-39 -31,-69 -60,-48l-10 7c-11,-52 -5,-97 24,-143 36,3 67,15 95,37 31,-46 73,-48 125,-44 -45,30 -65,50 -51,109 15,66 6,114 -57,146 40,2 78,14 113,31 -44,37 -96,55 -152,70 -95,-28 -189,-45 -250,-131 -75,-104 -64,-240 23,-332 17,-18 37,-35 57,-50 -51,0 -74,-6 -105,-43 9,-2 17,-4 25,-7 -69,-53 -4,-191 101,-161 21,6 37,20 55,34 -30,-4 -61,-11 -75,25 -12,32 15,54 44,57 94,8 132,-50 284,-10l0 0 0 0c3,1 6,2 9,3zm-296 926c21,-42 24,-94 13,-165 33,-14 66,-24 101,-32 18,67 21,135 1,197l-115 0z"/>
     <path class="fil2" d="M2737 1185c-38,-3 -76,4 -113,24 -8,5 -15,10 -22,15l-115 0c50,-93 147,-144 250,-135l0 96z"/>
     <path class="fil2" d="M1023 1139c5,-13 5,-28 6,-41 40,39 58,57 74,112 49,-37 89,-51 138,-7 8,7 15,14 20,21l-264 0c-39,-43 -84,-72 -135,-83 0,0 0,-1 0,-1 -28,-48 -20,-71 1,-122 16,32 32,73 64,76 40,3 60,-19 96,45z"/>
     <path class="fil2" d="M1735 669c14,-2 27,-9 39,-15 -14,54 -21,79 -60,120 56,24 89,52 75,117 -8,37 -24,59 -47,87 -33,-56 -64,-89 -133,-101 -14,-3 -24,-4 -38,-4 0,-1 0,-1 0,-1 24,-56 51,-110 70,-159 24,-64 31,-126 12,-182 1,0 1,0 1,0 27,-49 51,-53 106,-61 -20,31 -47,64 -33,94 17,36 45,42 8,105z"/>
     <path class="fil2" d="M2498 1051c10,11 22,19 33,27 -54,14 -79,21 -134,7 7,61 -1,103 -63,124 -37,11 -64,8 -99,2 31,-56 44,-99 21,-165 -5,-14 -10,-23 -16,-36 0,0 0,0 1,0 60,-7 120,-11 172,-19 67,-10 124,-36 164,-80 0,0 0,0 1,0 55,0 71,19 105,62 -36,-2 -79,-9 -98,18 -22,33 -13,61 -87,60z"/>
    </g>
    <g>
     <path class="fil3" d="M1452 744l0 -1c-4,-23 -12,-47 -24,-72 -60,-124 -194,-185 -315,-110l-13 8c-124,89 -144,298 -3,382 132,78 248,-38 183,-100 -29,-28 -75,-8 -72,28l2 12c-51,-16 -87,-44 -112,-91 20,-30 46,-51 79,-64 -25,-51 -5,-88 24,-131 4,54 11,82 70,99 64,20 101,52 97,122 22,-33 52,-60 84,-82z"/>
     <path class="fil3" d="M1506 1083c-4,43 -1,85 15,126 2,5 4,10 7,15l135 0c-19,-66 -68,-106 -157,-141z"/>
     <path class="fil3" d="M2292 843l0 0c19,-15 36,-34 51,-57 78,-114 64,-260 -62,-328l-14 -7c-138,-63 -330,24 -332,188 -2,153 157,196 178,109 10,-39 -31,-69 -60,-48l-10 7c-11,-52 -5,-97 24,-143 35,3 67,15 95,37 31,-46 73,-48 125,-44 -45,29 -65,50 -51,109 15,66 6,114 -57,146 40,2 78,14 113,31z"/>
     <path class="fil3" d="M2025 1059c-39,19 -74,43 -101,77 -21,26 -32,56 -37,88l125 0c21,-42 24,-94 13,-165z"/>
     <path class="fil3" d="M2737 1185c-38,-4 -76,4 -113,24 -8,5 -16,10 -23,15l136 0 0 -39z"/>
     <path class="fil3" d="M2126 1027l0 0c18,67 21,135 2,197l359 0c50,-93 147,-144 250,-135l0 -211c-11,-3 -23,-7 -35,-13 -30,-15 -55,-40 -71,-70 -9,48 -27,87 -54,116l1 0c55,0 71,19 105,62 -36,-2 -79,-9 -98,18 -22,33 -13,61 -87,60 10,11 22,19 33,27 -54,14 -79,21 -134,7 7,61 -1,103 -63,124 -37,11 -64,8 -99,2 31,-56 44,-99 21,-165 -5,-14 -10,-23 -16,-36l0 0c-38,4 -77,9 -114,17zm611 -584c-71,-63 -149,-119 -232,-167l-51 87c73,48 130,113 181,194 74,117 48,188 89,214 4,2 8,4 13,5l0 -333z"/>
     <path class="fil3" d="M1528 980l0 0c106,28 194,90 231,196 5,14 9,30 11,48l11 0c3,-29 10,-58 21,-87 43,-112 133,-172 245,-201 31,-8 61,-14 89,-22l1 -2c-93,-28 -186,-45 -247,-130 -75,-104 -64,-240 23,-332 17,-18 37,-35 57,-50 -51,0 -74,-6 -105,-43 9,-2 17,-4 25,-7 -69,-53 -4,-191 101,-161 21,6 37,20 55,34 -30,-4 -61,-11 -75,25 -12,32 15,54 44,57 94,8 132,-50 284,-10l0 0 0 0c3,1 6,2 9,3 56,15 104,37 146,65l51 -87c-445,-257 -993,-257 -1438,0l51 87c77,-39 162,-55 258,-59 138,-6 187,52 229,30 33,-18 39,-69 -28,-71l-14 0c20,-33 48,-63 90,-62 86,3 126,131 23,199 -28,18 -62,27 -96,26 37,32 61,67 73,105l1 0c27,-49 51,-53 106,-61 -20,31 -47,64 -33,94 17,36 45,42 8,105 14,-2 27,-9 39,-15 -14,54 -21,79 -60,120 56,24 89,52 75,117 -8,37 -24,59 -47,87 -33,-56 -64,-89 -133,-101 -14,-3 -24,-4 -38,-4l-1 0c-15,35 -30,71 -42,107z"/>
     <path class="fil3" d="M1410 1224c-25,-70 -21,-145 0,-221 9,-31 18,-60 26,-89l-2 -2c-71,68 -132,139 -236,150 -127,12 -240,-65 -276,-187 -7,-24 -12,-49 -15,-74 -26,44 -42,61 -89,70 2,-9 5,-17 6,-26 -80,33 -167,-91 -89,-167 16,-16 36,-23 56,-31 -18,24 -40,47 -15,77 22,26 54,14 71,-10 55,-77 23,-139 134,-250l0 0 0 -1c2,-2 4,-4 7,-6 41,-40 84,-71 130,-94l-51 -87c-357,206 -604,553 -688,948l174 0c56,-83 113,-99 114,-140 2,-37 -40,-68 -75,-11l-7 12c-18,-34 -31,-73 -8,-109 45,-73 176,-43 183,79 2,34 -8,68 -25,97 46,-16 88,-19 127,-11l0 -1c-28,-48 -20,-71 1,-122 16,32 32,73 64,76 40,3 60,-19 96,45 5,-13 5,-28 6,-41 40,39 58,57 74,112 49,-37 89,-51 138,-7 8,7 15,14 20,21l149 0z"/>
    </g>
   </g>
  </g>
 </g>
</svg>
